<!-- Generator: Adobe Illustrator 19.2.1, SVG Export Plug-In  -->
<svg version="1.1"
	 xmlns="http://www.w3.org/2000/svg" xmlns:xlink="http://www.w3.org/1999/xlink" xmlns:a="http://ns.adobe.com/AdobeSVGViewerExtensions/3.0/"
	 x="0px" y="0px" width="856.5px" height="85.3px" viewBox="0 0 856.5 85.3" style="enable-background:new 0 0 856.5 85.3;"
	 xml:space="preserve">
<defs>
</defs>
<g>
	<path d="M136.5,61.7c-0.4,0-0.8,0-1.2,0c-5.5-0.1-10.2-2.1-14.1-6.1s-5.9-8.7-5.9-14.3c0-5.5,1.9-10.2,5.8-14.1
		c3.9-4,8.5-6,14.1-6.2v4.5c-4.3,0.1-7.9,1.7-10.9,4.8c-3,3.1-4.5,6.8-4.5,11c0,3.9,1.3,7.3,3.8,10.3c2.5,3,5.7,4.8,9.5,5.4V35H127
		v-4.5h10.6v31.2C137.2,61.7,136.9,61.7,136.5,61.7z"/>
	<path d="M176.9,55.7c-4,4-8.8,6-14.3,6c-5.6,0-10.4-2-14.3-6c-4-4-6-8.8-6-14.4c0-5.6,2-10.4,6-14.3c4-4,8.8-6,14.3-6
		c5.6,0,10.4,2,14.3,6c4,4,6,8.8,6,14.3C182.9,47,180.9,51.8,176.9,55.7z M173.8,30.2c-3.1-3.1-6.8-4.6-11.2-4.6
		c-4.4,0-8.1,1.5-11.2,4.6c-3.1,3.1-4.7,6.8-4.7,11.2s1.6,8.1,4.7,11.2c3.1,3.1,6.8,4.7,11.2,4.7c4.4,0,8.1-1.6,11.2-4.7
		c3.1-3.1,4.6-6.8,4.6-11.2S176.9,33.3,173.8,30.2z"/>
	<path d="M212.1,55.7c-4-4-6-8.8-6-14.4c0-5.6,2-10.4,6-14.3c4-4,8.8-6,14.3-6v4.5c-4.4,0-8.1,1.5-11.2,4.6
		c-3.1,3.1-4.7,6.8-4.7,11.2s1.6,8.1,4.7,11.2c3.1,3.1,6.8,4.7,11.2,4.7v4.5C220.8,61.7,216.1,59.7,212.1,55.7z"/>
	<path d="M263.5,55.7c-4,4-8.8,6-14.3,6s-10.4-2-14.3-6c-4-4-6-8.8-6-14.4c0-5.6,2-10.4,6-14.3c4-4,8.8-6,14.3-6s10.4,2,14.3,6
		c4,4,6,8.8,6,14.3C269.5,47,267.5,51.8,263.5,55.7z M260.4,30.2c-3.1-3.1-6.8-4.6-11.2-4.6c-4.4,0-8.1,1.5-11.2,4.6
		c-3.1,3.1-4.7,6.8-4.7,11.2s1.6,8.1,4.7,11.2s6.8,4.7,11.2,4.7c4.4,0,8.1-1.6,11.2-4.7c3.1-3.1,4.6-6.8,4.6-11.2
		S263.5,33.3,260.4,30.2z"/>
	<path d="M287.8,61.7V30.8c-1.3-1.4-2.9-2.5-4.6-3.4c-1.7-0.9-3.5-1.4-5.4-1.7v36h-4.5V21c0.4,0,0.8,0,1.2,0s0.7,0,1.1,0
		c2.2,0,4.3,0.4,6.4,1.1c2.1,0.7,4,1.6,5.8,2.9V21h4.4v40.7H287.8z"/>
	<path d="M304,35v26.7h-4.4V35h-2.9v-4.5h2.9V21h17.8v4.5H304v5h13.8V35H304z"/>
	<path d="M330.3,55.6c-3.9-4-5.9-8.7-5.9-14.3c0-1,0-2.1,0-3.2c0-1.1,0-2.1,0-3.2h-2.6v-4.5h2.6V21h19.8v4.5h-15.3v5h15.6V35h-15.6
		c0,1,0,2.1,0,3.2c0,1.1,0,2.1,0,3.2c0,4.3,1.5,8,4.5,11.1c3,3.1,6.7,4.7,11.1,4.8v4.5C339,61.7,334.2,59.6,330.3,55.6z"/>
	<path d="M360.4,59.9c-2.6-1.2-4.8-2.9-6.7-4.9v6.8h-4.4V21c0.3,0,0.6,0,0.8,0c0.3,0,0.5,0,0.8,0c0.3,0,0.5,0,0.8,0
		c0.3,0,0.6,0,0.8,0c4.3,0,8,1.5,11,4.6c3.1,3,4.6,6.7,4.6,11c0,3.5-1.1,6.7-3.2,9.4c-2.2,2.8-4.9,4.6-8.2,5.6
		c1.4,1.8,3.2,3.1,5.3,4.1c2.1,1,4.3,1.5,6.6,1.5v4.5C365.7,61.7,363,61.1,360.4,59.9z M360.8,29.1c-1.9-2.1-4.3-3.3-7.1-3.6v22.1
		c2.8-0.3,5.2-1.5,7.1-3.6c1.9-2.1,2.9-4.6,2.9-7.5S362.7,31.3,360.8,29.1z"/>
	<path d="M381.3,55.6c-3.9-4-5.9-8.7-5.9-14.3c0-1,0-2.1,0-3.2c0-1.1,0-2.1,0-3.2h-2.6v-4.5h2.6V21h19.8v4.5h-15.3v5h15.6V35h-15.6
		c0,1,0,2.1,0,3.2c0,1.1,0,2.1,0,3.2c0,4.3,1.5,8,4.5,11.1c3,3.1,6.7,4.7,11.1,4.8v4.5C389.9,61.7,385.2,59.6,381.3,55.6z"/>
	<path d="M414.3,61.7V30.8c-1.3-1.4-2.9-2.5-4.6-3.4c-1.7-0.9-3.5-1.4-5.4-1.7v36h-4.5V21c0.4,0,0.8,0,1.2,0s0.7,0,1.1,0
		c2.2,0,4.3,0.4,6.4,1.1c2.1,0.7,4,1.6,5.8,2.9V21h4.4v40.7H414.3z"/>
	<path d="M429.1,55.7c-4-4-6-8.8-6-14.4c0-5.6,2-10.4,6-14.3c4-4,8.8-6,14.3-6v4.5c-4.4,0-8.1,1.5-11.2,4.6
		c-3.1,3.1-4.7,6.8-4.7,11.2s1.6,8.1,4.7,11.2c3.1,3.1,6.8,4.7,11.2,4.7v4.5C437.9,61.7,433.1,59.7,429.1,55.7z"/>
	<path d="M455,55.6c-3.9-4-5.9-8.7-5.9-14.3c0-1,0-2.1,0-3.2c0-1.1,0-2.1,0-3.2h-2.6v-4.5h2.6V21h19.8v4.5h-15.3v5h15.6V35h-15.6
		c0,1,0,2.1,0,3.2c0,1.1,0,2.1,0,3.2c0,4.3,1.5,8,4.5,11.1c3,3.1,6.7,4.7,11.1,4.8v4.5C463.7,61.7,459,59.6,455,55.6z"/>
	<path d="M498.9,55.7c-4-4-6-8.8-6-14.4c0-5.6,2-10.4,6-14.3c4-4,8.8-6,14.3-6v4.5c-4.4,0-8.1,1.5-11.2,4.6
		c-3.1,3.1-4.7,6.8-4.7,11.2s1.6,8.1,4.7,11.2c3.1,3.1,6.8,4.7,11.2,4.7v4.5C507.7,61.7,502.9,59.7,498.9,55.7z"/>
	<path d="M529.1,59.9c-2.6-1.2-4.8-2.9-6.7-4.9v6.8H518V21c0.3,0,0.6,0,0.8,0c0.3,0,0.5,0,0.8,0c0.3,0,0.5,0,0.8,0
		c0.3,0,0.6,0,0.8,0c4.3,0,8,1.5,11,4.6c3.1,3,4.6,6.7,4.6,11c0,3.5-1.1,6.7-3.2,9.4c-2.2,2.8-4.9,4.6-8.2,5.6
		c1.4,1.8,3.2,3.1,5.3,4.1c2.1,1,4.3,1.5,6.6,1.5v4.5C534.4,61.7,531.7,61.1,529.1,59.9z M529.5,29.1c-1.9-2.1-4.3-3.3-7.1-3.6v22.1
		c2.8-0.3,5.2-1.5,7.1-3.6c1.9-2.1,2.9-4.6,2.9-7.5S531.4,31.3,529.5,29.1z"/>
	<path d="M567.1,61.7l-3.1-9.9h-14l-3.1,9.9h-4.7l3.1-9.9h-2.4v-4.6h3.8l8.2-26h4.2l12.6,40.5H567.1z M557,29.4l-5.6,17.8h11.1
		L557,29.4z"/>
	<path d="M583,57.2h14.3v4.5H576l17.5-36.2h-13.9V21h21L583,57.2z"/>
	<path d="M617.2,33.5v28.2h-4.4V33.5l-9-12.5h5.5L615,29l5.8-7.9h5.5L617.2,33.5z"/>
	<path d="M674.5,61.7l-3.1-9.9h-14l-3.1,9.9h-4.7l3.1-9.9h-2.4v-4.6h3.8l8.2-26h4.2l12.6,40.5H674.5z M664.4,29.4l-5.6,17.8h11.1
		L664.4,29.4z"/>
	<path d="M690.2,25.5v36.2h-4.4V25.5h-8V21h20.4v4.5H690.2z"/>
	<path d="M750.3,61.7l-4.3,0.1L740.9,44l-5,17.8l-4.3-0.1L721.4,21h4.6l7.8,31.8l5-17.6h4.3l5,17.6l7.7-31.8h4.6L750.3,61.7z"/>
	<path d="M797.7,55.7c-4,4-8.8,6-14.3,6s-10.4-2-14.3-6c-4-4-6-8.8-6-14.4c0-5.6,2-10.4,6-14.3c4-4,8.8-6,14.3-6s10.4,2,14.3,6
		c4,4,6,8.8,6,14.3C803.6,47,801.6,51.8,797.7,55.7z M794.6,30.2c-3.1-3.1-6.8-4.6-11.2-4.6c-4.4,0-8.1,1.5-11.2,4.6
		c-3.1,3.1-4.7,6.8-4.7,11.2s1.6,8.1,4.7,11.2s6.8,4.7,11.2,4.7c4.4,0,8.1-1.6,11.2-4.7c3.1-3.1,4.6-6.8,4.6-11.2
		S797.6,33.3,794.6,30.2z"/>
	<path d="M819.1,59.9c-2.6-1.2-4.8-2.9-6.7-4.9v6.8h-4.4V21c0.3,0,0.6,0,0.8,0c0.3,0,0.5,0,0.8,0c0.3,0,0.5,0,0.8,0s0.6,0,0.8,0
		c4.3,0,8,1.5,11,4.6c3.1,3,4.6,6.7,4.6,11c0,3.5-1.1,6.7-3.2,9.4c-2.2,2.8-4.9,4.6-8.2,5.6c1.4,1.8,3.2,3.1,5.3,4.1
		c2.1,1,4.3,1.5,6.6,1.5v4.5C824.4,61.7,821.7,61.1,819.1,59.9z M819.5,29.1c-1.9-2.1-4.3-3.3-7.1-3.6v22.1c2.8-0.3,5.2-1.5,7.1-3.6
		c1.9-2.1,2.9-4.6,2.9-7.5S821.4,31.3,819.5,29.1z"/>
	<path d="M851.8,61.7l-11.5-29.2l-3.9,4.4v24.8h-4.4V21h4.4v9.2l8.3-9.2h5.9l-7,7.8l12.9,32.9H851.8z"/>
</g>
<g>
	<path d="M32.2,82.7H17.5l40.9-63.6c-2.5-5.2-6.1-9.1-10.7-11.8c-4.6-2.7-9.8-4-15.5-4c-4.1,0-7.9,0.8-11.4,2.3
		c-3.5,1.5-6.6,3.6-9.2,6.2c-2.6,2.6-4.7,5.7-6.2,9.2C3.8,24.5,3,28.3,3,32.4C3,37.7,4.3,42.5,7,47c2.6,4.5,6.2,8.1,10.7,10.7
		l-1.6,2.7C10.6,57.3,6.6,53.2,3.9,48C1.3,42.9,0,37.2,0,31c0-1.4,0.2-2.9,0.5-4.5c0.3-1.5,0.7-3,1.1-4.4c1.1-3.5,2.7-6.7,4.8-9.4
		c2.1-2.7,4.6-5,7.4-6.9C16.6,4,19.7,2.5,23,1.5c3.3-1,6.8-1.5,10.4-1.5c4.4,0,8.5,0.9,12.3,2.7c3.8,1.8,7.1,4.2,9.9,7.2
		c2.8,3,5,6.4,6.6,10.3c1.6,3.9,2.5,8,2.5,12.2L32.2,82.7z M64.4,36.9c-0.3,2.3-0.9,4.6-1.7,6.8c-0.9,2.2-1.9,4.3-3.1,6.2L40.3,79.7
		h23.7v3H34.8L64.4,36.9z"/>
	<path d="M88.9,83.9c-0.9,0.4-1.7,0.7-2.6,1c-0.9,0.3-1.9,0.4-2.9,0.4c-1.5,0-2.9-0.3-4.2-0.8c-1.3-0.5-2.4-1.3-3.4-2.2
		c-1-0.9-1.7-2.1-2.3-3.3s-0.9-2.7-0.9-4.2c0-3,1-5.6,3.1-7.6c2.1-2.1,4.6-3.1,7.7-3.1c1,0,2,0.1,2.9,0.3c0.9,0.2,1.8,0.6,2.6,1.2
		V83.9z M94.1,74.7c0,2.8-1,5.3-3,7.5V67.3c1,1,1.8,2.2,2.3,3.5S94.1,73.4,94.1,74.7z"/>
</g>
</svg>
