<!-- Generator: Adobe Illustrator 19.2.1, SVG Export Plug-In  -->
<svg version="1.1"
	 xmlns="http://www.w3.org/2000/svg" xmlns:xlink="http://www.w3.org/1999/xlink" xmlns:a="http://ns.adobe.com/AdobeSVGViewerExtensions/3.0/"
	 x="0px" y="0px" width="757.1px" height="214.4px" viewBox="0 0 757.1 214.4" style="enable-background:new 0 0 757.1 214.4;"
	 xml:space="preserve">
<defs>
</defs>
<g>
	<path d="M84,73.1c-4.5-4.2-7.8-9-10-14.4c-2.2-5.3-3.3-11.1-3.3-17.2c0-5.7,1.2-11.1,3.6-16.3c2.4-5.2,5.7-9.7,9.8-13.6V73.1z
		 M140.2,74.2c-3.9,3.4-8.2,5.9-12.9,7.7c-4.7,1.7-9.6,2.6-14.7,2.6c-4.9,0-9.6-0.8-14.2-2.4c-4.6-1.6-8.7-4-12.5-7.1V9.8
		c3.7-3.1,7.9-5.5,12.5-7.1c4.6-1.7,9.3-2.5,14.2-2.5c5.1,0,10,0.9,14.8,2.6c4.8,1.8,9,4.4,12.9,7.8l-1.9,2.4
		c-3.5-3.2-7.5-5.7-11.9-7.2c-4.4-1.6-9-2.4-13.8-2.4c-4.3,0-8.5,0.7-12.5,2c-4,1.4-7.7,3.3-11.1,5.9v62c3.4,2.6,7.1,4.6,11.2,5.9
		c4.1,1.4,8.2,2,12.5,2c4.8,0,9.3-0.8,13.8-2.5c4.4-1.7,8.4-4,11.9-7.1L140.2,74.2z"/>
	<path d="M159.8,73.5c-4.3-4.1-7.7-8.8-10.1-14.1c-2.4-5.3-3.6-11-3.6-17c0-6,1.2-11.6,3.6-17c2.4-5.3,5.8-10,10.2-14.1V73.5z
		 M231.1,42.4c0,5.9-1.1,11.4-3.3,16.6c-2.2,5.1-5.3,9.6-9.1,13.4c-3.9,3.8-8.4,6.8-13.5,9c-5.1,2.2-10.7,3.3-16.6,3.3
		c-4.9,0-9.6-0.8-14.2-2.4c-4.6-1.6-8.8-4-12.6-7.1V9.6c3.8-3.2,8-5.6,12.5-7.2c4.5-1.6,9.3-2.4,14.3-2.4c5.9,0,11.4,1.1,16.6,3.3
		c5.2,2.2,9.7,5.2,13.5,9.1c3.8,3.9,6.8,8.4,9.1,13.5C230,31,231.1,36.5,231.1,42.4z M227.4,42.4c0-5.4-1-10.4-3-15.2
		c-2-4.7-4.8-8.8-8.3-12.3s-7.7-6.2-12.4-8.2c-4.7-2-9.8-3-15.2-3c-4.3,0-8.5,0.7-12.5,2.1c-4,1.4-7.8,3.4-11.1,6v61.2
		c3.4,2.6,7.1,4.6,11.1,6c4,1.4,8.2,2.2,12.5,2.2c5.4,0,10.5-1,15.2-3c4.7-2,8.8-4.8,12.3-8.2c3.5-3.5,6.3-7.6,8.3-12.3
		C226.4,52.8,227.4,47.8,227.4,42.4z"/>
	<path d="M234.6,4.9v-3h17.3v81.2h-12.3V4.9H234.6z M254.3,83.1V1.8c3.5,0,6.5,0.6,9.2,1.8c2.7,1.2,4.9,3.1,6.8,5.7V1.8h3v81.2h-3
		V19.3c0-1.8-0.3-3.5-1-5.2c-0.6-1.7-1.6-3.1-2.8-4.4c-1.2-1.3-2.6-2.4-4.2-3.2c-1.6-0.8-3.3-1.3-5.1-1.6v78.1H254.3z"/>
	<path d="M286.1,83.1V4.9h-5v-3h17.3v81.2H286.1z M303.6,4.9v15.3h20.1v3h-20.1v59.8h-3V1.8h27.5v3H303.6z"/>
	<path d="M341,83.1V4.9h-5v-3h17.4v81.2H341z M355.5,83.1V1.8h28.6v3h-25.6v15.3h20v3h-20v56.6h25.6v3.2H355.5z"/>
	<path d="M396.8,83.1V4.9h-4.8v-3h17.4v81.2H396.8z M450.1,38.6c0,5.9-1.3,11.4-3.9,16.6c-2.6,5.1-6.3,9.5-11.1,13l9,14.9h-3.6
		l-7.9-13.2c-5.5,3.3-11.4,5.1-17.8,5.5v7.7h-3V1.8h1.5c5,0,9.8,1,14.3,2.9c4.5,1.9,8.4,4.5,11.7,7.9c3.3,3.3,5.9,7.3,7.9,11.7
		C449.1,28.8,450.1,33.5,450.1,38.6z M447.1,38.6c0-4.5-0.8-8.8-2.5-12.8c-1.7-4-3.9-7.5-6.9-10.5s-6.3-5.4-10.2-7.3
		c-3.9-1.8-8.1-2.9-12.6-3.1v67.2c4.5-0.2,8.7-1.2,12.6-3.1c3.9-1.8,7.3-4.3,10.2-7.3c2.9-3,5.2-6.5,6.9-10.5
		C446.2,47.3,447.1,43.1,447.1,38.6z"/>
	<path d="M463,83.1V4.9h-5v-3h17.4v81.2H463z M477.5,83.1V1.8h28.6v3h-25.6v15.3h20v3h-20v56.6h25.6v3.2H477.5z"/>
	<path d="M514.1,4.9v-3h17.3v81.2h-12.3V4.9H514.1z M533.8,83.1V1.8c3.5,0,6.5,0.6,9.2,1.8c2.7,1.2,4.9,3.1,6.8,5.7V1.8h3v81.2h-3
		V19.3c0-1.8-0.3-3.5-1-5.2c-0.6-1.7-1.6-3.1-2.8-4.4c-1.2-1.3-2.6-2.4-4.2-3.2c-1.6-0.8-3.3-1.3-5.1-1.6v78.1H533.8z"/>
	<path d="M574.1,73.1c-4.5-4.2-7.8-9-10-14.4c-2.2-5.3-3.3-11.1-3.3-17.2c0-5.7,1.2-11.1,3.6-16.3c2.4-5.2,5.7-9.7,9.8-13.6V73.1z
		 M630.3,74.2c-3.9,3.4-8.2,5.9-12.9,7.7c-4.7,1.7-9.6,2.6-14.7,2.6c-4.9,0-9.6-0.8-14.2-2.4s-8.7-4-12.5-7.1V9.8
		c3.7-3.1,7.9-5.5,12.5-7.1c4.6-1.7,9.3-2.5,14.2-2.5c5.1,0,10,0.9,14.8,2.6c4.8,1.8,9,4.4,12.9,7.8l-1.9,2.4
		c-3.5-3.2-7.5-5.7-11.9-7.2c-4.4-1.6-9-2.4-13.8-2.4c-4.3,0-8.5,0.7-12.5,2c-4,1.4-7.7,3.3-11.1,5.9v62c3.4,2.6,7.1,4.6,11.2,5.9
		c4.1,1.4,8.2,2,12.5,2c4.8,0,9.3-0.8,13.8-2.5c4.4-1.7,8.4-4,11.9-7.1L630.3,74.2z"/>
	<path d="M643.3,83.1V4.9h-5v-3h17.4v81.2H643.3z M657.8,83.1V1.8h28.6v3h-25.6v15.3h20v3h-20v56.6h25.6v3.2H657.8z"/>
	<path d="M4.9,212.7v-78.2H0v-3h17.5v81.2H4.9z M58.1,168.2c0,5-0.9,9.6-2.7,14c-1.8,4.4-4.3,8.2-7.5,11.5c-3.2,3.3-6.9,6-11.2,8
		c-4.3,2-8.9,3.1-13.9,3.3v7.7h-3v-81.2c5.6,0,10.8,1,15.4,2.9c4.7,1.9,8.7,4.5,12.1,7.8c3.4,3.3,6,7.2,7.9,11.7
		C57.2,158.3,58.1,163,58.1,168.2z M55.1,168.3c0-4.5-0.8-8.8-2.5-12.8c-1.7-4-3.9-7.5-6.9-10.5c-2.9-3-6.3-5.5-10.2-7.3
		s-8.1-2.9-12.6-3.1V202c4.5-0.2,8.7-1.2,12.6-3.1s7.3-4.3,10.2-7.3s5.2-6.5,6.9-10.5C54.3,177.1,55.1,172.8,55.1,168.3z"/>
	<path d="M70.7,212.7v-78.2H66v-3h17.4v81.2H70.7z M124,168.2c0,5.9-1.3,11.4-3.9,16.6c-2.6,5.1-6.3,9.5-11.1,13l9,14.9h-3.6
		l-7.9-13.2c-5.5,3.3-11.4,5.1-17.8,5.5v7.7h-3v-81.2h1.5c5,0,9.8,1,14.3,2.9c4.5,1.9,8.4,4.5,11.7,7.9c3.3,3.3,5.9,7.3,7.9,11.7
		C123,158.4,124,163.1,124,168.2z M121,168.2c0-4.5-0.8-8.8-2.5-12.8c-1.7-4-3.9-7.5-6.9-10.5s-6.3-5.4-10.2-7.3
		c-3.9-1.8-8.1-2.9-12.6-3.1v67.2c4.5-0.2,8.7-1.2,12.6-3.1c3.9-1.8,7.3-4.3,10.2-7.3c2.9-3,5.2-6.5,6.9-10.5
		C120.1,176.9,121,172.7,121,168.2z"/>
	<path d="M145.7,203.1c-4.3-4.1-7.7-8.8-10.1-14.1c-2.4-5.3-3.6-11-3.6-17c0-6,1.2-11.6,3.6-17c2.4-5.3,5.8-10,10.2-14.1V203.1z
		 M217,172c0,5.9-1.1,11.4-3.3,16.6c-2.2,5.1-5.3,9.6-9.1,13.4c-3.9,3.8-8.4,6.8-13.5,9c-5.1,2.2-10.7,3.3-16.6,3.3
		c-4.9,0-9.6-0.8-14.2-2.4c-4.6-1.6-8.8-4-12.6-7.1v-65.7c3.8-3.2,8-5.6,12.5-7.2c4.5-1.6,9.3-2.4,14.3-2.4c5.9,0,11.4,1.1,16.6,3.3
		c5.2,2.2,9.7,5.2,13.5,9.1c3.8,3.9,6.8,8.4,9.1,13.5C215.9,160.6,217,166.1,217,172z M213.3,172c0-5.4-1-10.4-3-15.2
		c-2-4.7-4.8-8.8-8.3-12.3s-7.7-6.2-12.4-8.2c-4.7-2-9.8-3-15.2-3c-4.3,0-8.5,0.7-12.5,2.1c-4,1.4-7.8,3.4-11.1,6v61.2
		c3.4,2.6,7.1,4.6,11.1,6c4,1.4,8.2,2.2,12.5,2.2c5.4,0,10.5-1,15.2-3c4.7-2,8.8-4.8,12.3-8.2c3.5-3.5,6.3-7.6,8.3-12.3
		C212.3,182.4,213.3,177.4,213.3,172z"/>
	<path d="M227,212.7v-78.2h-5.7v-3h18v81.2H227z M257.6,212.7v-64.4c0-1.7-0.3-3.4-1-5c-0.7-1.6-1.6-3-2.8-4.2
		c-1.2-1.2-2.6-2.2-4.1-3c-1.6-0.8-3.2-1.3-5-1.5v78.1h-3v-81.2h0.8c3.2,0,6,0.6,8.6,1.8c2.6,1.2,4.8,3.1,6.6,5.7v-7.6h12.3v81.2
		H257.6z M288.1,212.7v-63.7c0-1.8-0.3-3.5-1-5.2c-0.6-1.7-1.5-3.1-2.7-4.4c-1.2-1.3-2.5-2.4-4.1-3.2c-1.6-0.8-3.3-1.3-5.1-1.6v78.1
		h-3v-81.2h0.8c2.5,0,4.9,0.4,7,1.2c2.2,0.8,4.1,2,5.7,3.6c1.6,1.5,3,3.4,3.9,5.5c1,2.1,1.4,4.5,1.4,7.1v63.8H288.1z"/>
	<path d="M312.9,203.1c-4.3-4.1-7.7-8.8-10.1-14.1c-2.4-5.3-3.6-11-3.6-17c0-6,1.2-11.6,3.6-17c2.4-5.3,5.8-10,10.2-14.1V203.1z
		 M384.2,172c0,5.9-1.1,11.4-3.3,16.6c-2.2,5.1-5.3,9.6-9.1,13.4c-3.9,3.8-8.4,6.8-13.5,9c-5.1,2.2-10.7,3.3-16.6,3.3
		c-4.9,0-9.6-0.8-14.2-2.4c-4.6-1.6-8.8-4-12.6-7.1v-65.7c3.8-3.2,8-5.6,12.5-7.2c4.5-1.6,9.3-2.4,14.3-2.4c5.9,0,11.4,1.1,16.6,3.3
		c5.2,2.2,9.7,5.2,13.5,9.1c3.8,3.9,6.8,8.4,9.1,13.5C383,160.6,384.2,166.1,384.2,172z M380.5,172c0-5.4-1-10.4-3-15.2
		c-2-4.7-4.8-8.8-8.3-12.3s-7.7-6.2-12.4-8.2c-4.7-2-9.8-3-15.2-3c-4.3,0-8.5,0.7-12.5,2.1c-4,1.4-7.8,3.4-11.1,6v61.2
		c3.4,2.6,7.1,4.6,11.1,6c4,1.4,8.2,2.2,12.5,2.2c5.4,0,10.5-1,15.2-3c4.7-2,8.8-4.8,12.3-8.2c3.5-3.5,6.3-7.6,8.3-12.3
		C379.5,182.4,380.5,177.4,380.5,172z"/>
	<path d="M453.7,212.7v-78.2h-5v-3H466v81.2H453.7z M494.4,212.7v-59.8h-23v59.8h-3v-81.2h3v18.4h23v-18.4h3v81.2H494.4z"/>
	<path d="M544.2,212.7l-2.6-8h-28l-2.6,8h-3.2l2.7-8h-5.3v-3h6.3l16.2-48l19.8,59H544.2z M527.6,163.3l-12.9,38.3h25.8L527.6,163.3z
		 M550.7,212.7L529,150l6.3-18.3l28,80.9H550.7z"/>
	<path d="M579.2,202.7c-4.5-4.2-7.8-9-10-14.4c-2.2-5.3-3.3-11.1-3.3-17.2c0-5.7,1.2-11.1,3.6-16.3c2.4-5.2,5.7-9.7,9.8-13.6V202.7z
		 M635.5,203.8c-3.9,3.4-8.2,5.9-12.9,7.7c-4.7,1.7-9.6,2.6-14.7,2.6c-4.9,0-9.6-0.8-14.2-2.4c-4.6-1.6-8.7-4-12.5-7.1v-65.1
		c3.7-3.1,7.9-5.5,12.5-7.1c4.6-1.7,9.3-2.5,14.2-2.5c5.1,0,10,0.9,14.8,2.6c4.8,1.8,9,4.4,12.9,7.8l-1.9,2.4
		c-3.5-3.2-7.5-5.7-11.9-7.2c-4.4-1.6-9-2.4-13.8-2.4c-4.3,0-8.5,0.7-12.5,2c-4,1.4-7.7,3.3-11.1,5.9v62c3.4,2.6,7.1,4.6,11.2,5.9
		c4.1,1.4,8.2,2,12.5,2c4.8,0,9.3-0.8,13.8-2.5c4.4-1.7,8.4-4,11.9-7.1L635.5,203.8z"/>
	<path d="M648.4,212.7v-78.2h-5v-3h17.3v81.2H648.4z M685.3,212.7c0-2.6-0.5-5.1-1.5-7.6c-1-2.5-2.3-4.7-4-6.6
		c-1.7-1.9-3.8-3.5-6.1-4.8c-2.3-1.2-4.8-1.9-7.5-2.1v21.1h-3v-81.2h3v57c1.3,0.1,2.6,0.4,3.9,0.6l13.8-57.7h3.1l-14,58.6
		c2.3,0.9,4.4,2.1,6.3,3.6c1.9,1.5,3.5,3.3,4.9,5.3c1.4,2,2.4,4.2,3.1,6.5c0.7,2.3,1.1,4.7,1.1,7.1H685.3z"/>
	<path d="M741.3,209.6c-2.5,1.4-5.2,2.6-7.9,3.3c-2.8,0.8-5.6,1.2-8.6,1.2c-4.5,0-8.6-0.8-12.5-2.5c-3.9-1.7-7.3-4-10.2-6.9
		s-5.2-6.3-6.9-10.2c-1.7-3.9-2.5-8.1-2.5-12.5h3c0,4,0.8,7.8,2.3,11.4c1.5,3.6,3.6,6.7,6.2,9.3c2.6,2.6,5.7,4.7,9.3,6.2
		c3.6,1.5,7.4,2.3,11.4,2.3c2.3,0,4.6-0.3,6.9-0.8c2.3-0.5,4.5-1.4,6.6-2.5v-50.3l-13.5-5c-3.9-1.4-6.7-3.3-8.4-5.6
		c-1.7-2.3-2.5-4.6-2.5-6.9c0-2.7,1-5.1,2.9-7.1c1.9-2,4.6-3,7.9-3c2.3,0,4.4,0.7,6.4,2c1.9,1.3,3.3,3.1,4.2,5.2l-2.8,1.1
		c-0.6-1.6-1.7-2.8-3.1-3.7c-1.4-0.9-3-1.4-4.6-1.4c-2.4,0-4.3,0.7-5.6,2c-1.3,1.3-1.9,2.9-1.9,4.8c0,1.7,0.6,3.5,1.9,5.2
		c1.3,1.7,3.2,3.1,5.8,4.1l16.5,6.4V209.6z M757.1,182c0,5.3-1.2,10.3-3.7,14.9c-2.4,4.6-5.8,8.4-10.2,11.4v-51.8
		c4.3,3,7.7,6.7,10.2,11.1C755.9,171.9,757.1,176.7,757.1,182z"/>
</g>
</svg>
