<!-- Generator: Adobe Illustrator 19.2.1, SVG Export Plug-In  -->
<svg version="1.1"
	 xmlns="http://www.w3.org/2000/svg" xmlns:xlink="http://www.w3.org/1999/xlink" xmlns:a="http://ns.adobe.com/AdobeSVGViewerExtensions/3.0/"
	 x="0px" y="0px" width="484.1px" height="88.3px" viewBox="0 0 484.1 88.3" style="enable-background:new 0 0 484.1 88.3;"
	 xml:space="preserve">
<defs>
</defs>
<g>
	<path d="M123.9,58.7c-3.9-4-5.9-8.7-5.9-14.3c0-1,0-2.1,0-3.2c0-1.1,0-2.1,0-3.2h-2.6v-4.5h2.6v-9.5h19.8v4.5h-15.3v5H138v4.5
		h-15.6c0,1,0,2.1,0,3.2c0,1.1,0,2.1,0,3.2c0,4.3,1.5,8,4.5,11.1c3,3.1,6.7,4.7,11.1,4.8v4.5C132.5,64.7,127.8,62.6,123.9,58.7z"/>
	<path d="M168.9,64.7l-4.8-32.6l-6.4,6.8l-6.4-6.8l-4.8,32.6h-4.5l6.2-42.2l9.5,10l9.5-10l6.2,42.2H168.9z"/>
	<path d="M197.4,64.7v-9.6H184v9.6h-4.5v-9.6H177v-4.4h2.6c0-1,0-2.1,0-3.2c0-1.1,0-2.1,0-3.2c0-5.5,2-10.2,5.9-14.2
		c3.9-4,8.6-6,14.1-6.1c0.4,0,0.8,0,1.2,0s0.7,0,1.1,0c0,6.8,0,13.5,0,20.3c0,6.8,0,13.6,0,20.3H197.4z M197.4,28.7
		c-3.8,0.6-7,2.4-9.5,5.4c-2.5,3-3.8,6.4-3.8,10.3c0,1.1,0,2.2,0,3.2c0,1.1,0,2.1,0,3.2h13.3V28.7z"/>
	<path d="M206.2,64.7V24.1h4.4v40.7H206.2z"/>
	<path d="M215,64.7V24.1h4.5v36.2h13.1v4.5H215z"/>
	<path d="M284.2,62.9c-2.6,1.1-5.2,1.7-8,1.7c-5.6,0-10.4-2-14.4-6c-4-4-6-8.8-6-14.3s2-10.4,6-14.3c4-4,8.8-6,14.4-6
		c2.8,0,5.4,0.5,8,1.6c2.6,1.1,4.8,2.7,6.7,4.7l-3.2,3c-1.5-1.6-3.3-2.8-5.2-3.7c-2-0.9-4.1-1.3-6.3-1.3c-4.4,0-8.1,1.5-11.2,4.6
		c-3.1,3.1-4.7,6.8-4.7,11.2c0,4.4,1.6,8.1,4.7,11.2c3.1,3.1,6.8,4.7,11.2,4.7c2.2,0,4.3-0.4,6.3-1.3c2-0.9,3.7-2.1,5.2-3.7l3.2,3.1
		C289,60.3,286.8,61.8,284.2,62.9z"/>
	<path d="M315.2,64.7v-9.6h-13.3v9.6h-4.5v-9.6h-2.6v-4.4h2.6c0-1,0-2.1,0-3.2c0-1.1,0-2.1,0-3.2c0-5.5,2-10.2,5.9-14.2
		c3.9-4,8.6-6,14.1-6.1c0.4,0,0.8,0,1.2,0s0.7,0,1.1,0c0,6.8,0,13.5,0,20.3c0,6.8,0,13.6,0,20.3H315.2z M315.2,28.7
		c-3.8,0.6-7,2.4-9.5,5.4c-2.5,3-3.8,6.4-3.8,10.3c0,1.1,0,2.2,0,3.2c0,1.1,0,2.1,0,3.2h13.3V28.7z"/>
	<path d="M350.2,64.7l-4.8-32.6l-6.4,6.8l-6.4-6.8l-4.8,32.6h-4.5l6.2-42.2l9.5,10l9.5-10l6.2,42.2H350.2z"/>
	<path d="M366.4,37.5c-0.8,0.4-1.8,0.6-2.7,0.6c-0.1,0-0.3,0-0.5,0s-0.3,0-0.5,0v26.6h-4.4V24c0.9,0,1.8,0,2.7,0c0.9,0,1.8,0,2.7,0
		c1,0,1.9,0.2,2.7,0.5c0.8,0.4,1.6,0.9,2.2,1.5c0.7,0.7,1.2,1.5,1.6,2.3c0.3,0.9,0.5,1.8,0.5,2.7c0,0.9-0.2,1.8-0.5,2.6
		c-0.3,0.8-0.9,1.6-1.5,2.3C368,36.6,367.3,37.1,366.4,37.5z M364.3,28.5c-0.4-0.1-0.8-0.1-1.3-0.1c-0.1,0-0.1,0-0.2,0
		c0,0-0.1,0-0.2,0v5.1c0.2,0,0.4,0,0.5,0s0.3,0,0.5,0c0.8,0,1.4-0.3,1.9-0.8c0.5-0.5,0.7-1.2,0.7-1.8c0-0.1,0-0.1,0-0.2
		c0-0.1,0-0.1-0.1-0.2c0-0.3-0.1-0.5-0.2-0.7s-0.3-0.4-0.5-0.6C365.1,28.8,364.7,28.6,364.3,28.5z"/>
	<path d="M391.1,64.7v-9.6h-13.3v9.6h-4.5v-9.6h-2.6v-4.4h2.6c0-1,0-2.1,0-3.2c0-1.1,0-2.1,0-3.2c0-5.5,2-10.2,5.9-14.2
		c3.9-4,8.6-6,14.1-6.1c0.4,0,0.8,0,1.2,0s0.7,0,1.1,0c0,6.8,0,13.5,0,20.3c0,6.8,0,13.6,0,20.3H391.1z M391.1,28.7
		c-3.8,0.6-7,2.4-9.5,5.4s-3.8,6.4-3.8,10.3c0,1.1,0,2.2,0,3.2c0,1.1,0,2.1,0,3.2h13.3V28.7z"/>
	<path d="M399.9,64.7V24.1h4.4v40.7H399.9z"/>
	<path d="M429.6,64.6c-0.4,0-0.8,0-1.2,0c-5.5-0.1-10.2-2.1-14.1-6.1c-3.9-4-5.9-8.7-5.9-14.2c0-5.5,1.9-10.2,5.8-14.2
		c3.9-4,8.6-6,14.1-6.1v4.4c-4.3,0.1-7.9,1.7-11,4.8c-3,3.1-4.5,6.8-4.5,11.1c0,3.9,1.3,7.3,3.8,10.3c2.5,3,5.7,4.8,9.5,5.4v-4.9
		h-6.2v-4.4h10.6v14C430.3,64.6,430,64.6,429.6,64.6z"/>
	<path d="M449.7,64.7V35.9l-9.6-5.7v34.5h-4.4V22.4l14,8.4v-6.7h4.4v40.7H449.7z"/>
	<path d="M480.2,60.7c-2.6,2.6-5.8,4-9.6,4c-2.7,0-5.3-0.8-7.6-2.3c-2.3-1.6-4-3.6-5-6.2l4.2-1.6c0.7,1.7,1.8,3.1,3.3,4.1
		c1.5,1.1,3.2,1.6,5.1,1.6c2.5,0,4.6-0.9,6.4-2.7c1.8-1.8,2.7-3.9,2.7-6.4c0-1.2-0.2-2.2-0.7-3c-0.5-0.8-1.1-1.6-1.9-2.2
		c-0.6-0.5-1.3-1-2.1-1.4c-0.8-0.4-1.6-0.9-2.5-1.3c-0.5-0.3-0.9-0.5-1.4-0.7c-0.5-0.2-1-0.4-1.5-0.6c-0.1,0-0.2-0.1-0.4-0.1
		c-0.1-0.1-0.2-0.1-0.4-0.2c-1.9-0.8-3.6-1.9-5.1-3.1s-2.3-3-2.3-5.4c0-2.5,0.9-4.6,2.7-6.4c1.8-1.8,3.9-2.6,6.4-2.6
		c2.1,0,3.9,0.6,5.6,1.9s2.7,3,3.2,5l-4.3,1c-0.3-1-0.8-1.9-1.6-2.5c-0.8-0.6-1.8-1-2.8-1c-1.3,0-2.3,0.5-3.2,1.3
		c-0.9,0.9-1.3,2-1.3,3.2c0,0.5,0.1,1,0.4,1.4c0.2,0.4,0.5,0.8,0.9,1.1c0.5,0.4,1.1,0.8,1.9,1.2c0.8,0.4,1.5,0.7,2.3,1.1
		c0.4,0.2,0.9,0.4,1.3,0.6c0.4,0.2,0.8,0.4,1.3,0.6c1.1,0.5,2.2,1.1,3.2,1.6c1,0.6,1.9,1.2,2.8,1.9c1.3,1,2.3,2.3,3,3.6
		c0.7,1.4,1.1,3.1,1.1,5C484.1,54.8,482.8,58,480.2,60.7z"/>
</g>
<g>
	<path d="M48.5,72.7v13.1h-3V9.8L5.7,69.7h24V37.9l12.6-19.1v67H29.7V72.7H0L48.5,0v69.7h3.8v3H48.5z"/>
	<path d="M76.6,86.9c-0.9,0.4-1.7,0.7-2.6,1c-0.9,0.3-1.9,0.4-2.9,0.4c-1.5,0-2.9-0.3-4.2-0.8c-1.3-0.5-2.4-1.3-3.4-2.2
		c-1-0.9-1.7-2.1-2.3-3.3c-0.6-1.3-0.9-2.7-0.9-4.2c0-3,1-5.6,3.1-7.6c2.1-2.1,4.6-3.1,7.7-3.1c1,0,2,0.1,2.9,0.3
		c0.9,0.2,1.8,0.6,2.6,1.2V86.9z M81.8,77.8c0,2.8-1,5.3-3,7.5V70.3c1,1,1.8,2.2,2.3,3.5S81.8,76.4,81.8,77.8z"/>
</g>
</svg>
