<!-- Generator: Adobe Illustrator 19.2.1, SVG Export Plug-In  -->
<svg version="1.1"
	 xmlns="http://www.w3.org/2000/svg" xmlns:xlink="http://www.w3.org/1999/xlink" xmlns:a="http://ns.adobe.com/AdobeSVGViewerExtensions/3.0/"
	 x="0px" y="0px" width="1205px" height="69.8px" viewBox="0 0 1205 69.8" style="enable-background:new 0 0 1205 69.8;"
	 xml:space="preserve">
<defs>
</defs>
<g>
	<path d="M24.6,45.5c-4.6,5-10.3,7.8-17.1,8.3v15.9H0V2c0.5,0,0.9,0,1.4,0c0.5,0,0.9,0,1.4,0c0.5,0,0.9,0,1.4,0c0.5,0,0.9,0,1.4,0
		c7.1,0,13.2,2.5,18.3,7.6c5.1,5.1,7.6,11.2,7.6,18.3C31.5,34.6,29.2,40.5,24.6,45.5z M19.4,15.5c-3.2-3.5-7.1-5.5-11.9-5.9v36.8
		c4.7-0.5,8.6-2.5,11.8-6c3.2-3.5,4.8-7.7,4.8-12.4C24.1,23.2,22.5,19,19.4,15.5z"/>
	<path d="M68.3,64.6c-3.4,3.5-7.6,5.2-12.4,5.2c-4.8,0-8.9-1.7-12.4-5.2c-3.5-3.4-5.2-7.6-5.2-12.4V2h7.5c0,8.3,0,16.7,0,25.1
		s0,16.8,0,25.2c0,2.8,1,5.1,3,7.1c2,2,4.3,3,7.1,3c2.8,0,5.2-1,7.2-3c2-2,3-4.3,3-7.1V2h7.4c0,8.3,0,16.7,0,25.1s0,16.8,0,25.2
		C73.4,57,71.7,61.1,68.3,64.6z"/>
	<path d="M102.1,9.5v60.3h-7.4V9.5H81.4V2h34v7.5H102.1z"/>
	<path d="M175.6,9.5v60.3h-7.4V9.5h-13.3V2h34v7.5H175.6z"/>
	<path d="M229,69.8V25.3h-21.9v44.5h-7.5V25.3h-4.8v-7.5h4.8V2h7.5v15.8H229V2h7.5v67.8H229z"/>
	<path d="M259.1,59.6c-6.6-6.6-9.9-14.6-9.9-23.8c0-1.7,0-3.5,0-5.3c0-1.8,0-3.5,0-5.3H245v-7.5h4.3V2h32.9v7.5h-25.5v8.4h25.9v7.5
		h-25.9c0,1.7,0,3.5,0,5.3c0,1.8,0,3.5,0,5.3c0,7.2,2.5,13.4,7.6,18.5c5,5.2,11.2,7.8,18.4,7.9v7.6
		C273.6,69.7,265.7,66.3,259.1,59.6z"/>
	<path d="M336.7,59.6c-6.6-6.6-9.9-14.6-9.9-23.8c0-1.7,0-3.5,0-5.3c0-1.8,0-3.5,0-5.3h-4.3v-7.5h4.3V2h32.9v7.5h-25.5v8.4h25.9v7.5
		h-25.9c0,1.7,0,3.5,0,5.3c0,1.8,0,3.5,0,5.3c0,7.2,2.5,13.4,7.6,18.5c5,5.2,11.2,7.8,18.4,7.9v7.6
		C351.2,69.7,343.3,66.3,336.7,59.6z"/>
	<path d="M403.5,69.8V15.1l-14.2,11.2L375,15.1v54.6h-7.4V0l21.6,16.9L410.8,0v69.8H403.5z"/>
	<path d="M476.3,59.8c-6.6,6.6-14.6,9.9-23.9,9.9c-9.3,0-17.3-3.3-23.9-9.9c-6.6-6.6-9.9-14.6-9.9-24c0-9.3,3.3-17.3,9.9-23.9
		c6.6-6.6,14.6-9.9,23.9-9.9c9.3,0,17.3,3.3,23.9,9.9c6.6,6.6,9.9,14.6,9.9,23.9C486.3,45.2,482.9,53.2,476.3,59.8z M471.1,17.2
		c-5.2-5.2-11.4-7.7-18.7-7.7c-7.3,0-13.5,2.6-18.7,7.7c-5.2,5.2-7.8,11.4-7.8,18.6c0,7.3,2.6,13.5,7.8,18.7
		c5.2,5.2,11.4,7.8,18.7,7.8c7.3,0,13.6-2.6,18.7-7.8c5.2-5.2,7.7-11.4,7.7-18.7C478.9,28.6,476.3,22.4,471.1,17.2z"/>
	<path d="M507.7,9.5v60.3h-7.4V9.5H487V2h34v7.5H507.7z"/>
	<path d="M528.6,69.8V2h7.4v67.8H528.6z"/>
	<path d="M601.1,59.8c-6.6,6.6-14.6,9.9-23.9,9.9c-9.3,0-17.3-3.3-23.9-9.9c-6.6-6.6-9.9-14.6-9.9-24c0-9.3,3.3-17.3,9.9-23.9
		c6.6-6.6,14.6-9.9,23.9-9.9c9.3,0,17.3,3.3,23.9,9.9c6.6,6.6,9.9,14.6,9.9,23.9C611,45.2,607.7,53.2,601.1,59.8z M595.9,17.2
		c-5.2-5.2-11.4-7.7-18.7-7.7c-7.3,0-13.5,2.6-18.7,7.7c-5.2,5.2-7.8,11.4-7.8,18.6c0,7.3,2.6,13.5,7.8,18.7
		c5.2,5.2,11.4,7.8,18.7,7.8c7.3,0,13.6-2.6,18.7-7.8c5.2-5.2,7.7-11.4,7.7-18.7C603.6,28.6,601,22.4,595.9,17.2z"/>
	<path d="M641.6,69.8V18.2c-2.2-2.3-4.8-4.2-7.6-5.6c-2.9-1.5-5.9-2.4-9-2.8v60h-7.5V2c0.7,0,1.3,0,1.9,0s1.2,0,1.8,0
		c3.7,0.1,7.2,0.6,10.7,1.8c3.5,1.1,6.7,2.7,9.6,4.8V2h7.4v67.8H641.6z"/>
	<path d="M687.5,69.8V2h7.4v67.8H687.5z"/>
	<path d="M725.8,69.8V18.2c-2.2-2.3-4.8-4.2-7.6-5.6c-2.9-1.5-5.9-2.4-9-2.8v60h-7.5V2c0.7,0,1.3,0,1.9,0s1.2,0,1.8,0
		c3.7,0.1,7.2,0.6,10.7,1.8c3.5,1.1,6.7,2.7,9.6,4.8V2h7.4v67.8H725.8z"/>
	<path d="M796.5,45.5c-4.6,5-10.3,7.8-17.1,8.3v15.9h-7.5V2c0.5,0,0.9,0,1.4,0c0.5,0,0.9,0,1.4,0c0.5,0,0.9,0,1.4,0
		c0.4,0,0.9,0,1.4,0c7.1,0,13.2,2.5,18.3,7.6c5.1,5.1,7.6,11.2,7.6,18.3C803.4,34.6,801.1,40.5,796.5,45.5z M791.3,15.5
		c-3.2-3.5-7.1-5.5-11.9-5.9v36.8c4.7-0.5,8.6-2.5,11.8-6c3.2-3.5,4.8-7.7,4.8-12.4C796,23.2,794.4,19,791.3,15.5z"/>
	<path d="M828.7,66.7c-4.3-2-8-4.8-11.2-8.2v11.2h-7.4V2c0.5,0,0.9,0,1.4,0c0.4,0,0.9,0,1.4,0c0.4,0,0.9,0,1.3,0s0.9,0,1.4,0
		c7.1,0,13.3,2.5,18.4,7.6c5.1,5.1,7.7,11.2,7.7,18.3c0,5.9-1.8,11.1-5.4,15.8c-3.6,4.6-8.2,7.7-13.7,9.3c2.4,2.9,5.3,5.2,8.8,6.9
		s7.1,2.5,11,2.5v7.5C837.6,69.8,833,68.7,828.7,66.7z M829.4,15.5c-3.2-3.5-7.1-5.5-11.9-5.9v36.8c4.7-0.5,8.6-2.5,11.8-6
		c3.2-3.5,4.8-7.7,4.8-12.4C834.2,23.2,832.6,19,829.4,15.5z"/>
	<path d="M907.2,59.8c-6.6,6.6-14.6,9.9-23.9,9.9s-17.3-3.3-23.9-9.9c-6.6-6.6-9.9-14.6-9.9-24c0-9.3,3.3-17.3,9.9-23.9
		C866.1,5.3,874,2,883.3,2s17.3,3.3,23.9,9.9c6.6,6.6,9.9,14.6,9.9,23.9C917.2,45.2,913.9,53.2,907.2,59.8z M902.1,17.2
		c-5.2-5.2-11.4-7.7-18.7-7.7c-7.3,0-13.5,2.6-18.7,7.7c-5.2,5.2-7.8,11.4-7.8,18.6c0,7.3,2.6,13.5,7.8,18.7
		c5.2,5.2,11.4,7.8,18.7,7.8c7.3,0,13.6-2.6,18.7-7.8c5.2-5.2,7.7-11.4,7.7-18.7C909.8,28.6,907.2,22.4,902.1,17.2z"/>
	<path d="M959.5,69.8V15.1l-14.2,11.2L931,15.1v54.6h-7.4V0l21.6,16.9L966.9,0v69.8H959.5z"/>
	<path d="M1032.3,59.8c-6.6,6.6-14.6,9.9-23.9,9.9c-9.3,0-17.3-3.3-23.9-9.9c-6.6-6.6-9.9-14.6-9.9-24c0-9.3,3.3-17.3,9.9-23.9
		c6.6-6.6,14.6-9.9,23.9-9.9c9.3,0,17.3,3.3,23.9,9.9c6.6,6.6,9.9,14.6,9.9,23.9C1042.3,45.2,1039,53.2,1032.3,59.8z M1027.2,17.2
		c-5.2-5.2-11.4-7.7-18.7-7.7c-7.3,0-13.5,2.6-18.7,7.7c-5.2,5.2-7.8,11.4-7.8,18.6c0,7.3,2.6,13.5,7.8,18.7
		c5.2,5.2,11.4,7.8,18.7,7.8c7.3,0,13.6-2.6,18.7-7.8c5.2-5.2,7.7-11.4,7.7-18.7C1034.9,28.6,1032.3,22.4,1027.2,17.2z"/>
	<path d="M1063.7,9.5v60.3h-7.4V9.5H1043V2h34v7.5H1063.7z"/>
	<path d="M1084.6,69.8V2h7.4v67.8H1084.6z"/>
	<path d="M1157.1,59.8c-6.6,6.6-14.6,9.9-23.9,9.9c-9.3,0-17.3-3.3-23.9-9.9s-9.9-14.6-9.9-24c0-9.3,3.3-17.3,9.9-23.9
		c6.6-6.6,14.6-9.9,23.9-9.9c9.3,0,17.3,3.3,23.9,9.9c6.6,6.6,9.9,14.6,9.9,23.9C1167,45.2,1163.7,53.2,1157.1,59.8z M1151.9,17.2
		c-5.2-5.2-11.4-7.7-18.7-7.7c-7.3,0-13.5,2.6-18.7,7.7c-5.2,5.2-7.8,11.4-7.8,18.6c0,7.3,2.6,13.5,7.8,18.7
		c5.2,5.2,11.4,7.8,18.7,7.8c7.3,0,13.6-2.6,18.7-7.8c5.2-5.2,7.7-11.4,7.7-18.7C1159.6,28.6,1157,22.4,1151.9,17.2z"/>
	<path d="M1197.6,69.8V18.2c-2.2-2.3-4.8-4.2-7.6-5.6c-2.8-1.5-5.9-2.4-9-2.8v60h-7.5V2c0.7,0,1.3,0,1.9,0c0.6,0,1.2,0,1.8,0
		c3.7,0.1,7.2,0.6,10.7,1.8c3.5,1.1,6.7,2.7,9.6,4.8V2h7.4v67.8H1197.6z"/>
</g>
</svg>
