<!-- Generator: Adobe Illustrator 19.2.1, SVG Export Plug-In  -->
<svg version="1.1"
	 xmlns="http://www.w3.org/2000/svg" xmlns:xlink="http://www.w3.org/1999/xlink" xmlns:a="http://ns.adobe.com/AdobeSVGViewerExtensions/3.0/"
	 x="0px" y="0px" width="644.8px" height="339.4px" viewBox="0 0 644.8 339.4" style="enable-background:new 0 0 644.8 339.4;"
	 xml:space="preserve">
<style type="text/css">
	.st0{fill:#FFFFFF;}
</style>
<defs>
</defs>
<g>
	<path class="st0" d="M39.5,83.1V4.9h-5v-3h17.3v81.2H39.5z M80.2,83.1V23.2h-23v59.8h-3V1.8h3v18.4h23V1.8h3v81.2H80.2z"/>
	<path class="st0" d="M96,83.1V4.9h-5v-3h17.3v81.2H96z M110.7,83.1V1.8h3v81.2H110.7z"/>
	<path class="st0" d="M137.6,83.1V4.9h-16v-3h28.6v81.2H137.6z M155.4,4.9v78.2h-3V1.8h19.9v3H155.4z"/>
	<path class="st0" d="M249.7,72.8c-4-3.9-7.2-8.4-9.5-13.6c-2.3-5.2-3.5-10.6-3.5-16.2c0-6,1.1-11.7,3.2-16.8s5.4-9.9,9.7-14V72.8z
		 M278.9,84.5c-5,0-9.8-0.8-14.4-2.5c-4.6-1.7-8.9-4.1-12.7-7.3V10.3c3.5-3,7.5-5.3,12.1-7.2c4.6-1.8,9.2-2.8,13.8-2.8
		c5.5,0,10.7,0.8,15.5,2.4c4.8,1.6,9.3,4.3,13.4,7.9l-1.9,2.4c-3.6-3.2-7.6-5.7-12.1-7.3c-4.5-1.6-9.1-2.4-13.8-2.4
		c-4.3,0-8.5,0.7-12.6,2.2c-4.1,1.5-7.9,3.5-11.3,6.1v61.5c3.5,2.7,7.3,4.7,11.4,6.1c4.1,1.4,8.4,2.2,12.8,2.2c5,0,9.9-0.9,14.5-2.8
		c4.6-1.9,8.7-4.5,12.2-7.8c3.5-3.3,6.4-7.2,8.6-11.6c2.2-4.4,3.4-9.2,3.7-14.3h-27.1v-3h30.2c0,6-1.1,11.6-3.3,16.7
		c-2.2,5.2-5.3,9.6-9.1,13.4c-3.9,3.8-8.3,6.8-13.4,9C290,83.4,284.6,84.5,278.9,84.5z"/>
	<path class="st0" d="M342.7,73.5c-4.3-4.1-7.7-8.8-10.1-14.1c-2.4-5.3-3.6-11-3.6-17c0-6,1.2-11.6,3.6-17c2.4-5.3,5.8-10,10.2-14.1
		V73.5z M414,42.4c0,5.9-1.1,11.4-3.3,16.6c-2.2,5.1-5.3,9.6-9.1,13.4c-3.9,3.8-8.4,6.8-13.5,9c-5.1,2.2-10.7,3.3-16.6,3.3
		c-4.9,0-9.6-0.8-14.2-2.4c-4.6-1.6-8.8-4-12.6-7.1V9.6c3.8-3.2,8-5.6,12.5-7.2S366.4,0,371.4,0c5.9,0,11.4,1.1,16.6,3.3
		c5.2,2.2,9.7,5.2,13.5,9.1c3.8,3.9,6.8,8.4,9.1,13.5C412.8,31,414,36.5,414,42.4z M410.3,42.4c0-5.4-1-10.4-3-15.2
		c-2-4.7-4.8-8.8-8.3-12.3c-3.5-3.5-7.7-6.2-12.4-8.2s-9.8-3-15.2-3c-4.3,0-8.5,0.7-12.5,2.1s-7.8,3.4-11.1,6v61.2
		c3.4,2.6,7.1,4.6,11.1,6c4,1.4,8.2,2.2,12.5,2.2c5.4,0,10.5-1,15.2-3s8.8-4.8,12.3-8.2c3.5-3.5,6.3-7.6,8.3-12.3
		S410.3,47.8,410.3,42.4z"/>
	<path class="st0" d="M492.3,73.5c-4.3-4.1-7.7-8.8-10.1-14.1c-2.4-5.3-3.6-11-3.6-17c0-6,1.2-11.6,3.6-17c2.4-5.3,5.8-10,10.2-14.1
		V73.5z M563.5,42.4c0,5.9-1.1,11.4-3.3,16.6c-2.2,5.1-5.3,9.6-9.1,13.4c-3.9,3.8-8.4,6.8-13.5,9c-5.1,2.2-10.7,3.3-16.6,3.3
		c-4.9,0-9.6-0.8-14.2-2.4c-4.6-1.6-8.8-4-12.6-7.1V9.6c3.8-3.2,8-5.6,12.5-7.2S516,0,521,0c5.9,0,11.4,1.1,16.6,3.3
		c5.2,2.2,9.7,5.2,13.5,9.1c3.8,3.9,6.8,8.4,9.1,13.5C562.4,31,563.5,36.5,563.5,42.4z M559.9,42.4c0-5.4-1-10.4-3-15.2
		c-2-4.7-4.8-8.8-8.3-12.3c-3.5-3.5-7.7-6.2-12.4-8.2s-9.8-3-15.2-3c-4.3,0-8.5,0.7-12.5,2.1s-7.8,3.4-11.1,6v61.2
		c3.4,2.6,7.1,4.6,11.1,6c4,1.4,8.2,2.2,12.5,2.2c5.4,0,10.5-1,15.2-3s8.8-4.8,12.3-8.2c3.5-3.5,6.3-7.6,8.3-12.3
		S559.9,47.8,559.9,42.4z"/>
	<path class="st0" d="M571.4,4.9v-3h17.3v81.2h-12.3V4.9H571.4z M591.1,83.1V1.8c3.5,0,6.5,0.6,9.2,1.8c2.7,1.2,5,3.1,6.8,5.7V1.8h3
		v81.2h-3V19.3c0-1.8-0.3-3.5-1-5.2c-0.6-1.7-1.6-3.1-2.8-4.4c-1.2-1.3-2.6-2.4-4.2-3.2c-1.6-0.8-3.3-1.3-5.1-1.6v78.1H591.1z"/>
	<path class="st0" d="M16,212.7v-78.2H0v-3h28.6v81.2H16z M33.8,134.5v78.2h-3v-81.2h19.9v3H33.8z"/>
	<path class="st0" d="M63.4,212.7v-78.2h-5v-3h17.3v81.2H63.4z M104.1,212.7v-59.8h-23v59.8h-3v-81.2h3v18.4h23v-18.4h3v81.2H104.1z
		"/>
	<path class="st0" d="M119.9,212.7v-78.2h-5v-3h17.4v81.2H119.9z M134.3,212.7v-81.2H163v3h-25.6v15.3h20v3h-20v56.6H163v3.2H134.3z
		"/>
	<path class="st0" d="M232.5,212.7v-78.2h-4.9v-3h17.5v81.2H232.5z M285.8,168.2c0,5-0.9,9.6-2.7,14c-1.8,4.4-4.3,8.2-7.5,11.5
		c-3.2,3.3-6.9,6-11.2,8c-4.3,2-8.9,3.1-13.9,3.3v7.7h-3v-81.2c5.6,0,10.8,1,15.4,2.9c4.7,1.9,8.7,4.5,12.1,7.8
		c3.4,3.3,6,7.2,7.9,11.7C284.8,158.3,285.8,163,285.8,168.2z M282.7,168.3c0-4.5-0.8-8.8-2.5-12.8c-1.7-4-3.9-7.5-6.9-10.5
		c-2.9-3-6.3-5.5-10.2-7.3c-3.9-1.8-8.1-2.9-12.6-3.1V202c4.5-0.2,8.7-1.2,12.6-3.1c3.9-1.8,7.3-4.3,10.2-7.3s5.2-6.5,6.9-10.5
		C281.9,177.1,282.7,172.8,282.7,168.3z"/>
	<path class="st0" d="M298.4,212.7v-78.2h-4.8v-3H311v81.2H298.4z M351.6,168.2c0,5.9-1.3,11.4-3.9,16.6c-2.6,5.1-6.3,9.5-11.1,13
		l9,14.9h-3.6l-7.9-13.2c-5.5,3.3-11.4,5.1-17.8,5.5v7.7h-3v-81.2h1.5c5,0,9.8,1,14.3,2.9c4.5,1.9,8.4,4.5,11.7,7.9
		c3.3,3.3,5.9,7.3,7.9,11.7C350.7,158.4,351.6,163.1,351.6,168.2z M348.6,168.2c0-4.5-0.8-8.8-2.5-12.8c-1.7-4-3.9-7.5-6.9-10.5
		s-6.3-5.4-10.2-7.3c-3.9-1.8-8.1-2.9-12.6-3.1v67.2c4.5-0.2,8.7-1.2,12.6-3.1c3.9-1.8,7.3-4.3,10.2-7.3c2.9-3,5.2-6.5,6.9-10.5
		C347.8,176.9,348.6,172.7,348.6,168.2z"/>
	<path class="st0" d="M373.4,203.1c-4.3-4.1-7.7-8.8-10.1-14.1c-2.4-5.3-3.6-11-3.6-17c0-6,1.2-11.6,3.6-17
		c2.4-5.3,5.8-10,10.2-14.1V203.1z M444.6,172c0,5.9-1.1,11.4-3.3,16.6c-2.2,5.1-5.3,9.6-9.1,13.4c-3.9,3.8-8.4,6.8-13.5,9
		c-5.1,2.2-10.7,3.3-16.6,3.3c-4.9,0-9.6-0.8-14.2-2.4c-4.6-1.6-8.8-4-12.6-7.1v-65.7c3.8-3.2,8-5.6,12.5-7.2
		c4.5-1.6,9.3-2.4,14.3-2.4c5.9,0,11.4,1.1,16.6,3.3c5.2,2.2,9.7,5.2,13.5,9.1c3.8,3.9,6.8,8.4,9.1,13.5
		C443.5,160.6,444.6,166.1,444.6,172z M441,172c0-5.4-1-10.4-3-15.2c-2-4.7-4.8-8.8-8.3-12.3c-3.5-3.5-7.7-6.2-12.4-8.2
		c-4.7-2-9.8-3-15.2-3c-4.3,0-8.5,0.7-12.5,2.1c-4,1.4-7.8,3.4-11.1,6v61.2c3.4,2.6,7.1,4.6,11.1,6c4,1.4,8.2,2.2,12.5,2.2
		c5.4,0,10.5-1,15.2-3c4.7-2,8.8-4.8,12.3-8.2c3.5-3.5,6.3-7.6,8.3-12.3C439.9,182.4,441,177.4,441,172z"/>
	<path class="st0" d="M458.2,212.7v-78.2h-5.7v-3h18v81.2H458.2z M488.8,212.7v-64.4c0-1.7-0.3-3.4-1-5c-0.7-1.6-1.6-3-2.8-4.2
		s-2.6-2.2-4.1-3c-1.6-0.8-3.2-1.3-5-1.5v78.1h-3v-81.2h0.8c3.2,0,6,0.6,8.6,1.8c2.6,1.2,4.8,3.1,6.6,5.7v-7.6h12.3v81.2H488.8z
		 M519.4,212.7v-63.7c0-1.8-0.3-3.5-1-5.2c-0.6-1.7-1.5-3.1-2.7-4.4c-1.2-1.3-2.5-2.4-4.1-3.2c-1.6-0.8-3.3-1.3-5.1-1.6v78.1h-3
		v-81.2h0.8c2.5,0,4.9,0.4,7,1.2c2.2,0.8,4.1,2,5.7,3.6c1.6,1.5,3,3.4,3.9,5.5c1,2.1,1.4,4.5,1.4,7.1v63.8H519.4z"/>
	<path class="st0" d="M544.1,203.1c-4.3-4.1-7.7-8.8-10.1-14.1c-2.4-5.3-3.6-11-3.6-17c0-6,1.2-11.6,3.6-17
		c2.4-5.3,5.8-10,10.2-14.1V203.1z M615.4,172c0,5.9-1.1,11.4-3.3,16.6c-2.2,5.1-5.3,9.6-9.1,13.4c-3.9,3.8-8.4,6.8-13.5,9
		c-5.1,2.2-10.7,3.3-16.6,3.3c-4.9,0-9.6-0.8-14.2-2.4c-4.6-1.6-8.8-4-12.6-7.1v-65.7c3.8-3.2,8-5.6,12.5-7.2
		c4.5-1.6,9.3-2.4,14.3-2.4c5.9,0,11.4,1.1,16.6,3.3c5.2,2.2,9.7,5.2,13.5,9.1c3.8,3.9,6.8,8.4,9.1,13.5
		C614.3,160.6,615.4,166.1,615.4,172z M611.7,172c0-5.4-1-10.4-3-15.2c-2-4.7-4.8-8.8-8.3-12.3c-3.5-3.5-7.7-6.2-12.4-8.2
		c-4.7-2-9.8-3-15.2-3c-4.3,0-8.5,0.7-12.5,2.1c-4,1.4-7.8,3.4-11.1,6v61.2c3.4,2.6,7.1,4.6,11.1,6c4,1.4,8.2,2.2,12.5,2.2
		c5.4,0,10.5-1,15.2-3c4.7-2,8.8-4.8,12.3-8.2c3.5-3.5,6.3-7.6,8.3-12.3C610.7,182.4,611.7,177.4,611.7,172z"/>
	<path class="st0" d="M639.6,185.8c-1.8,1-3.6,1.5-5.5,1.5c-3,0-5.6-1-7.7-3.1c-2.1-2.1-3.1-4.6-3.1-7.6c0-3,1-5.6,3.1-7.6
		c2.1-2.1,4.6-3.1,7.7-3.1c1,0,2,0.1,2.9,0.3c0.9,0.2,1.8,0.6,2.6,1.2V185.8z M639.6,213.8c-0.9,0.4-1.7,0.7-2.6,1
		c-0.9,0.3-1.9,0.4-2.9,0.4c-1.5,0-2.9-0.3-4.2-0.8c-1.3-0.5-2.4-1.3-3.4-2.2c-1-0.9-1.7-2.1-2.3-3.3c-0.6-1.3-0.9-2.7-0.9-4.2
		c0-3,1-5.6,3.1-7.6c2.1-2.1,4.6-3.1,7.7-3.1c1,0,2,0.1,2.9,0.3c0.9,0.2,1.8,0.6,2.6,1.2V213.8z M644.8,176.6c0,2.8-1,5.3-3,7.5
		l0.1-14.9c1,1,1.8,2.2,2.2,3.5C644.5,173.9,644.8,175.2,644.8,176.6z M644.8,204.7c0,2.8-1,5.3-3,7.5v-14.9c1,1,1.8,2.2,2.3,3.5
		C644.5,202,644.8,203.3,644.8,204.7z"/>
</g>
<g>
	<path class="st0" d="M170.4,294c-1.4,0.6-2.9,0.9-4.5,0.9c-0.2,0-0.5,0-0.8,0s-0.6,0-0.9,0v44.3h-7.4v-67.7c1.5,0,3,0,4.5,0
		c1.5,0,3,0,4.5,0c1.6,0,3.1,0.3,4.5,0.9c1.4,0.6,2.7,1.4,3.7,2.5c1.2,1.1,2.1,2.4,2.6,3.9c0.5,1.4,0.8,2.9,0.8,4.5
		c0,1.5-0.3,3-0.9,4.4c-0.6,1.4-1.4,2.7-2.6,3.8C173.1,292.5,171.8,293.3,170.4,294z M167,279c-0.7-0.1-1.4-0.1-2.2-0.1
		c-0.1,0-0.2,0-0.3,0c-0.1,0-0.2,0-0.3,0v8.5c0.3,0,0.6,0,0.9,0s0.5,0,0.8,0c1.3,0,2.4-0.5,3.1-1.3c0.8-0.9,1.2-1.9,1.2-3.1
		c0-0.1,0-0.2,0-0.4c0-0.1,0-0.2-0.1-0.4c-0.1-0.4-0.2-0.8-0.4-1.2c-0.2-0.4-0.5-0.7-0.8-1C168.3,279.5,167.6,279.1,167,279z"/>
	<path class="st0" d="M219.2,339.2c-0.6,0-1.3,0-1.9,0c-9.2-0.1-17-3.5-23.5-10.1c-6.5-6.6-9.8-14.5-9.8-23.7v-33.9h7.4
		c0,2.8,0,5.6,0,8.5c0,2.8,0,5.6,0,8.5c0,2.9,0,5.7,0,8.5c0,2.8,0,5.6,0,8.5c0,6.4,2.1,12.1,6.3,17.1c4.2,5,9.5,8,15.9,9v-60h7.5
		v67.9C220.4,339.2,219.8,339.2,219.2,339.2z"/>
	<path class="st0" d="M263.4,312c-3,4.4-6.9,7.6-11.7,9.5c0.7,1,1.1,2,1.4,3c0.3,1.1,0.4,2.1,0.4,3.1c0,3-1.1,5.7-3.3,8.1
		c-2.2,2.4-5,3.6-8.3,3.6c-1.7,0-3.4,0-5.1,0s-3.4,0-5.2,0v-15.8h-3.6V316h3.6v-44.4c1.7,0,3.5,0,5.2,0s3.4,0,5.1,0
		c7.1,0,13.2,2.5,18.3,7.6c5.1,5.1,7.6,11.2,7.6,18.3C267.8,302.8,266.4,307.6,263.4,312z M255,284.5c-3.6-3.6-8-5.4-13-5.4
		c-0.5,0-0.9,0-1.4,0c-0.5,0-0.9,0-1.4,0v37h2.8c5.1,0,9.4-1.8,13-5.4c3.6-3.6,5.4-7.9,5.4-13C260.4,292.5,258.6,288.1,255,284.5z
		 M245.6,329.8c0.2-0.3,0.3-0.7,0.4-1c0.1-0.1,0.1-0.3,0.1-0.4c0-0.2,0-0.4,0-0.5c0-1.1-0.4-2.1-1.1-2.9c-0.7-0.9-1.7-1.3-3.1-1.3
		h-2.8v8.5c0.1,0,0.3,0,0.4,0c0.1,0,0.3,0,0.4,0c0.1,0,0.2,0,0.4,0c0.1,0,0.2,0,0.4,0c0.7,0,1.5-0.1,2.2-0.2c0.7-0.1,1.4-0.5,2-1.1
		C245.2,330.4,245.4,330.1,245.6,329.8z"/>
	<path class="st0" d="M275.1,339.4v-67.8h7.5v60.3h21.8v7.5H275.1z"/>
	<path class="st0" d="M311.7,339.4v-67.8h7.4v67.8H311.7z"/>
	<path class="st0" d="M373.5,336.4c-4.3,1.9-8.7,2.8-13.4,2.8c-9.4,0-17.4-3.3-24-9.9c-6.6-6.6-9.9-14.6-9.9-23.9
		c0-9.3,3.3-17.3,9.9-23.9c6.6-6.6,14.6-9.9,24-9.9c4.6,0,9.1,0.9,13.4,2.7c4.3,1.8,8,4.5,11.2,7.9l-5.4,5c-2.5-2.6-5.4-4.7-8.7-6.1
		c-3.3-1.4-6.8-2.2-10.4-2.2c-7.3,0-13.5,2.6-18.7,7.7c-5.2,5.2-7.8,11.4-7.8,18.7c0,7.3,2.6,13.5,7.8,18.7
		c5.2,5.2,11.4,7.8,18.7,7.8c3.7,0,7.1-0.7,10.4-2.2c3.3-1.5,6.2-3.5,8.7-6.2l5.4,5.1C381.6,331.9,377.8,334.5,373.5,336.4z"/>
	<path class="st0" d="M391.5,339.4v-67.8h7.4v67.8H391.5z"/>
	<path class="st0" d="M427.2,279.1v60.3h-7.4v-60.3h-13.3v-7.5h34v7.5H427.2z"/>
	<path class="st0" d="M470.2,320.2v19h-7.4v-19L445,271.6h7.8l13.6,37.2l13.5-37.2h7.9L470.2,320.2z"/>
</g>
</svg>
