<!-- Generator: Adobe Illustrator 19.2.1, SVG Export Plug-In  -->
<svg version="1.1"
	 xmlns="http://www.w3.org/2000/svg" xmlns:xlink="http://www.w3.org/1999/xlink" xmlns:a="http://ns.adobe.com/AdobeSVGViewerExtensions/3.0/"
	 x="0px" y="0px" width="696.4px" height="83.8px" viewBox="0 0 696.4 83.8" style="enable-background:new 0 0 696.4 83.8;"
	 xml:space="preserve">
<defs>
</defs>
<g>
	<path d="M136.5,60.2c-0.4,0-0.8,0-1.2,0c-5.5-0.1-10.2-2.1-14.1-6.1c-3.9-4-5.9-8.7-5.9-14.3c0-5.5,1.9-10.2,5.8-14.1
		c3.9-4,8.5-6,14.1-6.2V24c-4.3,0.1-7.9,1.7-10.9,4.8s-4.5,6.8-4.5,11c0,3.9,1.3,7.3,3.8,10.3s5.7,4.8,9.5,5.4v-22H127V29h10.6v31.2
		C137.2,60.2,136.9,60.2,136.5,60.2z"/>
	<path d="M148.8,50.6v5.1h15.3v4.4h-19.8v-9.5h-2.6v-4.5h2.6V19.5h20v4.4h-15.6v22.2h15.6v4.5H148.8z"/>
	<path d="M181.4,24v36.2H177V24h-8v-4.5h20.4V24H181.4z"/>
	<path d="M232.2,60.2v-9.6h-13.3v9.6h-4.5v-9.6h-2.6v-4.4h2.6c0-1,0-2.1,0-3.2c0-1.1,0-2.1,0-3.2c0-5.5,2-10.2,5.9-14.2
		c3.9-4,8.6-6,14.1-6.1c0.4,0,0.8,0,1.2,0s0.7,0,1.1,0c0,6.8,0,13.5,0,20.3c0,6.8,0,13.6,0,20.3H232.2z M232.2,24.2
		c-3.8,0.6-7,2.4-9.5,5.4c-2.5,3-3.8,6.4-3.8,10.3c0,1.1,0,2.2,0,3.2c0,1.1,0,2.1,0,3.2h13.3V24.2z"/>
	<path d="M272.7,32v28.2h-4.4V32l-9-12.5h5.5l5.8,7.9l5.8-7.9h5.5L272.7,32z"/>
	<path d="M314.5,54.2c-4,4-8.8,6-14.3,6c-5.6,0-10.4-2-14.3-6c-4-4-6-8.8-6-14.4c0-5.6,2-10.4,6-14.3c4-4,8.8-6,14.3-6
		c5.6,0,10.4,2,14.3,6c4,4,6,8.8,6,14.3C320.4,45.5,318.5,50.2,314.5,54.2z M311.4,28.7c-3.1-3.1-6.8-4.6-11.2-4.6
		c-4.4,0-8.1,1.5-11.2,4.6c-3.1,3.1-4.7,6.8-4.7,11.2c0,4.4,1.6,8.1,4.7,11.2c3.1,3.1,6.8,4.7,11.2,4.7c4.4,0,8.1-1.6,11.2-4.7
		c3.1-3.1,4.6-6.8,4.6-11.2C316,35.5,314.5,31.8,311.4,28.7z"/>
	<path d="M345.5,60.1c-0.4,0-0.8,0-1.2,0c-5.5-0.1-10.2-2.1-14.1-6.1c-3.9-4-5.9-8.7-5.9-14.2V19.4h4.4c0,1.7,0,3.4,0,5.1
		c0,1.7,0,3.4,0,5.1c0,1.7,0,3.4,0,5.1c0,1.7,0,3.4,0,5.1c0,3.9,1.3,7.3,3.8,10.3c2.5,3,5.7,4.8,9.5,5.4v-36h4.5v40.7
		C346.2,60.1,345.8,60.1,345.5,60.1z"/>
	<path d="M363.6,24v36.2h-4.4V24h-8v-4.5h20.4V24H363.6z"/>
	<path d="M397,60.1c-0.4,0-0.8,0-1.2,0c-5.5-0.1-10.2-2.1-14.1-6.1c-3.9-4-5.9-8.7-5.9-14.2V19.4h4.4c0,1.7,0,3.4,0,5.1
		c0,1.7,0,3.4,0,5.1c0,1.7,0,3.4,0,5.1c0,1.7,0,3.4,0,5.1c0,3.9,1.3,7.3,3.8,10.3c2.5,3,5.7,4.8,9.5,5.4v-36h4.5v40.7
		C397.8,60.1,397.4,60.1,397,60.1z"/>
	<path d="M423.6,43.8c-1.8,2.6-4.1,4.5-7,5.7c0.4,0.6,0.7,1.2,0.8,1.8s0.2,1.3,0.2,1.9c0,1.8-0.7,3.4-2,4.9c-1.3,1.4-3,2.2-5,2.2
		c-1,0-2,0-3.1,0c-1,0-2.1,0-3.1,0v-9.5h-2.2v-4.5h2.2V19.6c1,0,2.1,0,3.1,0c1,0,2,0,3.1,0c4.3,0,7.9,1.5,11,4.6s4.6,6.7,4.6,11
		C426.2,38.3,425.3,41.1,423.6,43.8z M418.5,27.3c-2.2-2.2-4.8-3.3-7.8-3.3c-0.3,0-0.6,0-0.8,0c-0.3,0-0.5,0-0.8,0v22.2h1.7
		c3.1,0,5.7-1.1,7.8-3.2c2.2-2.2,3.2-4.8,3.2-7.8C421.7,32.1,420.7,29.5,418.5,27.3z M412.9,54.4c0.1-0.2,0.2-0.4,0.2-0.6
		c0-0.1,0.1-0.2,0.1-0.3c0-0.1,0-0.2,0-0.3c0-0.6-0.2-1.2-0.6-1.8c-0.4-0.5-1-0.8-1.8-0.8H409v5.1c0.1,0,0.2,0,0.2,0s0.2,0,0.2,0
		s0.1,0,0.2,0s0.1,0,0.2,0c0.4,0,0.9,0,1.3-0.1s0.9-0.3,1.2-0.6C412.6,54.8,412.8,54.6,412.9,54.4z"/>
	<path d="M437.2,50.6v5.1h15.3v4.4h-19.8v-9.5h-2.6v-4.5h2.6V19.5h20v4.4h-15.6v22.2h15.6v4.5H437.2z"/>
	<path d="M496.3,60.2v-9.6H483v9.6h-4.5v-9.6h-2.6v-4.4h2.6c0-1,0-2.1,0-3.2c0-1.1,0-2.1,0-3.2c0-5.5,2-10.2,5.9-14.2
		c3.9-4,8.6-6,14.1-6.1c0.4,0,0.8,0,1.2,0s0.7,0,1.1,0c0,6.8,0,13.5,0,20.3c0,6.8,0,13.6,0,20.3H496.3z M496.3,24.2
		c-3.8,0.6-7,2.4-9.5,5.4c-2.5,3-3.8,6.4-3.8,10.3c0,1.1,0,2.2,0,3.2c0,1.1,0,2.1,0,3.2h13.3V24.2z"/>
	<path d="M533.4,58.4c-2.6,1.1-5.2,1.7-8,1.7c-5.6,0-10.4-2-14.4-6c-4-4-6-8.8-6-14.3s2-10.4,6-14.3c4-4,8.8-6,14.4-6
		c2.8,0,5.4,0.5,8,1.6c2.6,1.1,4.8,2.7,6.7,4.7l-3.2,3c-1.5-1.6-3.3-2.8-5.2-3.7c-2-0.9-4.1-1.3-6.3-1.3c-4.4,0-8.1,1.5-11.2,4.6
		c-3.1,3.1-4.7,6.8-4.7,11.2c0,4.4,1.6,8.1,4.7,11.2c3.1,3.1,6.8,4.7,11.2,4.7c2.2,0,4.3-0.4,6.3-1.3c2-0.9,3.7-2.1,5.2-3.7l3.2,3.1
		C538.3,55.7,536,57.3,533.4,58.4z"/>
	<path d="M572.5,58.4c-2.6,1.1-5.2,1.7-8,1.7c-5.6,0-10.4-2-14.4-6c-4-4-6-8.8-6-14.3s2-10.4,6-14.3c4-4,8.8-6,14.4-6
		c2.8,0,5.4,0.5,8,1.6c2.6,1.1,4.8,2.7,6.7,4.7l-3.2,3c-1.5-1.6-3.3-2.8-5.2-3.7s-4.1-1.3-6.3-1.3c-4.4,0-8.1,1.5-11.2,4.6
		c-3.1,3.1-4.7,6.8-4.7,11.2c0,4.4,1.6,8.1,4.7,11.2c3.1,3.1,6.8,4.7,11.2,4.7c2.2,0,4.3-0.4,6.3-1.3c2-0.9,3.7-2.1,5.2-3.7l3.2,3.1
		C577.4,55.7,575.1,57.3,572.5,58.4z"/>
	<path d="M616.2,54.2c-4,4-8.8,6-14.3,6c-5.6,0-10.4-2-14.3-6c-4-4-6-8.8-6-14.4c0-5.6,2-10.4,6-14.3c4-4,8.8-6,14.3-6
		c5.6,0,10.4,2,14.3,6c4,4,6,8.8,6,14.3C622.2,45.5,620.2,50.2,616.2,54.2z M613.1,28.7c-3.1-3.1-6.8-4.6-11.2-4.6
		c-4.4,0-8.1,1.5-11.2,4.6c-3.1,3.1-4.7,6.8-4.7,11.2c0,4.4,1.6,8.1,4.7,11.2c3.1,3.1,6.8,4.7,11.2,4.7c4.4,0,8.1-1.6,11.2-4.7
		c3.1-3.1,4.6-6.8,4.6-11.2C617.8,35.5,616.2,31.8,613.1,28.7z"/>
	<path d="M647.2,60.1c-0.4,0-0.8,0-1.2,0c-5.5-0.1-10.2-2.1-14.1-6.1c-3.9-4-5.9-8.7-5.9-14.2V19.4h4.4c0,1.7,0,3.4,0,5.1
		c0,1.7,0,3.4,0,5.1c0,1.7,0,3.4,0,5.1c0,1.7,0,3.4,0,5.1c0,3.9,1.3,7.3,3.8,10.3c2.5,3,5.7,4.8,9.5,5.4v-36h4.5v40.7
		C648,60.1,647.6,60.1,647.2,60.1z"/>
	<path d="M666.9,60.2V31.4l-9.6-5.7v34.5h-4.4V17.9l14,8.4v-6.7h4.4v40.7H666.9z"/>
	<path d="M688.4,24v36.2H684V24h-8v-4.5h20.4V24H688.4z"/>
</g>
<g>
	<path d="M48.9,78.5c-2.5,1.4-5.2,2.6-7.9,3.3c-2.8,0.8-5.6,1.2-8.6,1.2c-4.5,0-8.7-0.8-12.6-2.5c-4-1.7-7.4-4-10.3-6.9
		c-2.9-2.9-5.2-6.4-6.9-10.3C0.8,59.3,0,55.1,0,50.7c0-1.5,0.1-3,0.4-4.6c0.3-1.5,0.6-3,1-4.5l2.9,0.9C3.5,45.2,3,47.9,3,50.7
		c0,4,0.8,7.8,2.3,11.4c1.5,3.6,3.7,6.7,6.3,9.3c2.7,2.7,5.8,4.8,9.3,6.3c3.6,1.5,7.4,2.3,11.4,2.3c2.3,0,4.6-0.3,6.9-0.9
		c2.3-0.6,4.5-1.4,6.6-2.4V24.7c-2.1-1.2-4.3-2-6.6-2.5s-4.6-0.8-6.9-0.8c-4.5,0-8.6,1-12.3,2.9c-3.6,1.9-7,4.3-10,7.1V0h34v3h-31
		v21.7c2.8-2.1,5.9-3.7,9.2-4.8c3.3-1.1,6.7-1.6,10.3-1.6c5.9,0,11.3,1.5,16.3,4.6V78.5z M51,24.3c4.3,3.1,7.7,6.9,10.1,11.5
		c2.4,4.6,3.6,9.5,3.6,14.9c0,5.3-1.2,10.3-3.6,15c-2.4,4.7-5.8,8.5-10.2,11.6V24.3z"/>
	<path d="M88.9,82.4c-0.9,0.4-1.7,0.7-2.6,1c-0.9,0.3-1.9,0.4-2.9,0.4c-1.5,0-2.9-0.3-4.2-0.8c-1.3-0.5-2.4-1.3-3.4-2.2
		c-1-0.9-1.7-2.1-2.3-3.3c-0.6-1.3-0.9-2.7-0.9-4.2c0-3,1-5.6,3.1-7.6c2.1-2.1,4.6-3.1,7.7-3.1c1,0,2,0.1,2.9,0.3
		c0.9,0.2,1.8,0.6,2.6,1.2V82.4z M94.1,73.2c0,2.8-1,5.3-3,7.5V65.8c1,1,1.8,2.2,2.3,3.5C93.8,70.5,94.1,71.9,94.1,73.2z"/>
</g>
</svg>
