<!-- Generator: Adobe Illustrator 19.2.1, SVG Export Plug-In  -->
<svg version="1.1"
	 xmlns="http://www.w3.org/2000/svg" xmlns:xlink="http://www.w3.org/1999/xlink" xmlns:a="http://ns.adobe.com/AdobeSVGViewerExtensions/3.0/"
	 x="0px" y="0px" width="688.1px" height="728.4px" viewBox="0 0 688.1 728.4" style="enable-background:new 0 0 688.1 728.4;"
	 xml:space="preserve">
<style type="text/css">
	.st0{fill:#FFFFFF;}
</style>
<defs>
</defs>
<g>
	<path class="st0" d="M5.4,31.9c-3.5-3.5-5.3-7.8-5.3-12.8c0-5,1.8-9.2,5.3-12.7c3.5-3.5,7.8-5.3,12.7-5.3v4c-3.9,0-7.2,1.4-10,4.1
		C5.4,11.9,4,15.2,4,19.1c0,3.9,1.4,7.2,4.2,10c2.8,2.8,6.1,4.2,10,4.2v4C13.2,37.2,8.9,35.4,5.4,31.9z"/>
	<path class="st0" d="M51.1,31.9c-3.5,3.5-7.8,5.3-12.7,5.3s-9.2-1.8-12.7-5.3c-3.5-3.5-5.3-7.8-5.3-12.8c0-5,1.8-9.2,5.3-12.7
		c3.5-3.5,7.8-5.3,12.7-5.3s9.2,1.8,12.7,5.3c3.5,3.5,5.3,7.8,5.3,12.7C56.4,24.1,54.6,28.4,51.1,31.9z M48.3,9.2
		C45.6,6.4,42.3,5,38.4,5c-3.9,0-7.2,1.4-10,4.1c-2.8,2.8-4.2,6.1-4.2,9.9c0,3.9,1.4,7.2,4.2,10c2.8,2.8,6.1,4.2,10,4.2
		c3.9,0,7.2-1.4,10-4.2c2.8-2.8,4.1-6.1,4.1-10C52.5,15.2,51.1,11.9,48.3,9.2z"/>
	<path class="st0" d="M72.7,37.2V9.7c-1.2-1.2-2.5-2.2-4.1-3c-1.5-0.8-3.1-1.3-4.8-1.5v32h-4V1.1c0.4,0,0.7,0,1,0c0.3,0,0.7,0,1,0
		c2,0,3.9,0.3,5.7,0.9c1.9,0.6,3.6,1.4,5.1,2.6V1.1h3.9v36.1H72.7z"/>
	<path class="st0" d="M91.6,5v32.2h-3.9V5h-7.1v-4h18.1v4H91.6z"/>
	<path class="st0" d="M112.8,35.6c-2.3-1.1-4.3-2.5-6-4.4v6h-3.9V1.1c0.3,0,0.5,0,0.7,0c0.2,0,0.5,0,0.7,0c0.2,0,0.5,0,0.7,0
		s0.5,0,0.7,0c3.8,0,7.1,1.4,9.8,4.1c2.7,2.7,4.1,6,4.1,9.8c0,3.1-1,5.9-2.9,8.4c-1.9,2.5-4.4,4.1-7.3,4.9c1.3,1.6,2.8,2.8,4.7,3.7
		c1.8,0.9,3.8,1.3,5.9,1.3v4C117.5,37.2,115.1,36.7,112.8,35.6z M113.2,8.3c-1.7-1.9-3.8-2.9-6.3-3.2v19.6c2.5-0.3,4.6-1.3,6.3-3.2
		s2.6-4.1,2.6-6.6S114.9,10.1,113.2,8.3z"/>
	<path class="st0" d="M123.8,37.2V1.1h3.9v36.1H123.8z"/>
	<path class="st0" d="M140.1,36.1c-1.7,0.7-3.5,1.1-5.4,1.1c-0.3,0-0.5,0-0.7,0s-0.5,0-0.7,0c-0.3,0-0.5,0-0.7,0s-0.5,0-0.7,0V1.1
		c0.3,0,0.5,0,0.7,0s0.5,0,0.7,0c0.3,0,0.5,0,0.7,0s0.5,0,0.7,0c1.8,0,3.3,0.6,4.4,1.9c1.2,1.3,1.8,2.7,1.8,4.3
		c0,0.5-0.1,1.1-0.2,1.6c-0.1,0.5-0.4,1.1-0.7,1.6c2.8,1.1,4.9,2.9,6.4,5.3s2.2,4.9,2.2,7.6c0,0.2,0,0.4,0,0.6c0,0.2,0,0.4,0,0.6
		c-0.2,1.5-0.6,3-1.2,4.5c-0.6,1.5-1.6,2.8-2.8,4C143.2,34.4,141.8,35.4,140.1,36.1z M136.7,8.4c0.2-0.4,0.3-0.8,0.3-1.2
		c0-0.4-0.1-0.8-0.3-1.2c-0.2-0.4-0.5-0.6-0.9-0.9v4.1C136.2,9.1,136.5,8.8,136.7,8.4z M142.1,16.8c-1.7-1.9-3.8-3-6.3-3.2v19.6
		c2.5-0.3,4.6-1.3,6.3-3.2s2.6-4.1,2.6-6.6C144.6,20.8,143.8,18.6,142.1,16.8z"/>
	<path class="st0" d="M168.7,34.4c-1.8,1.8-4,2.8-6.6,2.8c-2.6,0-4.8-0.9-6.6-2.8c-1.8-1.8-2.8-4-2.8-6.6V1.1h4c0,4.4,0,8.9,0,13.4
		c0,4.5,0,8.9,0,13.4c0,1.5,0.5,2.7,1.6,3.8c1.1,1.1,2.3,1.6,3.8,1.6c1.5,0,2.8-0.5,3.8-1.6c1.1-1.1,1.6-2.3,1.6-3.8V1.1h3.9
		c0,4.4,0,8.9,0,13.4c0,4.5,0,8.9,0,13.4C171.4,30.4,170.5,32.6,168.7,34.4z"/>
	<path class="st0" d="M186.7,5v32.2h-3.9V5h-7.1v-4h18.1v4H186.7z"/>
	<path class="st0" d="M204.3,31.8c-3.5-3.5-5.3-7.8-5.3-12.7c0-0.9,0-1.9,0-2.8s0-1.9,0-2.8h-2.3v-4h2.3V1.1h17.6v4H203v4.5h13.8v4
		H203c0,0.9,0,1.9,0,2.8s0,1.9,0,2.8c0,3.8,1.3,7.1,4,9.9c2.7,2.8,6,4.2,9.8,4.2v4C212,37.2,207.8,35.3,204.3,31.8z"/>
	<path class="st0" d="M249.1,5v32.2h-3.9V5H238v-4h18.1v4H249.1z"/>
	<path class="st0" d="M288.4,31.9c-3.5,3.5-7.8,5.3-12.7,5.3c-5,0-9.2-1.8-12.7-5.3c-3.5-3.5-5.3-7.8-5.3-12.8c0-5,1.8-9.2,5.3-12.7
		c3.5-3.5,7.8-5.3,12.7-5.3c5,0,9.2,1.8,12.7,5.3c3.5,3.5,5.3,7.8,5.3,12.7C293.7,24.1,291.9,28.4,288.4,31.9z M285.6,9.2
		c-2.8-2.8-6.1-4.1-10-4.1c-3.9,0-7.2,1.4-10,4.1c-2.8,2.8-4.2,6.1-4.2,9.9c0,3.9,1.4,7.2,4.2,10c2.8,2.8,6.1,4.2,10,4.2
		c3.9,0,7.2-1.4,10-4.2c2.8-2.8,4.1-6.1,4.1-10C289.8,15.2,288.4,11.9,285.6,9.2z"/>
	<path class="st0" d="M320.9,13.5v23.7H317V13.5h-2.5v-4h2.5V1.1h15.8v4h-11.9v4.5h12.3v4H320.9z"/>
	<path class="st0" d="M367.5,31.9c-3.5,3.5-7.8,5.3-12.7,5.3c-5,0-9.2-1.8-12.7-5.3c-3.5-3.5-5.3-7.8-5.3-12.8c0-5,1.8-9.2,5.3-12.7
		c3.5-3.5,7.8-5.3,12.7-5.3c5,0,9.2,1.8,12.7,5.3c3.5,3.5,5.3,7.8,5.3,12.7C372.8,24.1,371,28.4,367.5,31.9z M364.7,9.2
		c-2.8-2.8-6.1-4.1-10-4.1c-3.9,0-7.2,1.4-10,4.1c-2.8,2.8-4.2,6.1-4.2,9.9c0,3.9,1.4,7.2,4.2,10c2.8,2.8,6.1,4.2,10,4.2
		c3.9,0,7.2-1.4,10-4.2c2.8-2.8,4.1-6.1,4.1-10C368.8,15.2,367.5,11.9,364.7,9.2z"/>
	<path class="st0" d="M386.5,35.6c-2.3-1.1-4.3-2.5-6-4.4v6h-3.9V1.1c0.3,0,0.5,0,0.7,0s0.5,0,0.7,0c0.2,0,0.5,0,0.7,0
		c0.3,0,0.5,0,0.7,0c3.8,0,7.1,1.4,9.8,4.1c2.7,2.7,4.1,6,4.1,9.8c0,3.1-1,5.9-2.9,8.4c-1.9,2.5-4.4,4.1-7.3,4.9
		c1.3,1.6,2.8,2.8,4.7,3.7c1.8,0.9,3.8,1.3,5.9,1.3v4C391.2,37.2,388.8,36.7,386.5,35.6z M386.9,8.3c-1.7-1.9-3.8-2.9-6.3-3.2v19.6
		c2.5-0.3,4.6-1.3,6.3-3.2s2.6-4.1,2.6-6.6S388.6,10.1,386.9,8.3z"/>
	<path class="st0" d="M413.7,34.4c-1.8,1.8-4,2.8-6.6,2.8c-2.6,0-4.8-0.9-6.6-2.8c-1.8-1.8-2.8-4-2.8-6.6V1.1h4c0,4.4,0,8.9,0,13.4
		c0,4.5,0,8.9,0,13.4c0,1.5,0.5,2.7,1.6,3.8c1.1,1.1,2.3,1.6,3.8,1.6c1.5,0,2.8-0.5,3.8-1.6c1.1-1.1,1.6-2.3,1.6-3.8V1.1h3.9
		c0,4.4,0,8.9,0,13.4c0,4.5,0,8.9,0,13.4C416.4,30.4,415.5,32.6,413.7,34.4z"/>
	<path class="st0" d="M439.4,37.2V8.1l-7.6,6l-7.6-6v29.1h-3.9V0l11.5,9l11.5-9v37.2H439.4z"/>
	<path class="st0" d="M457.9,33.8c-2.2,2.3-4.9,3.4-8.1,3.4v-4c2.1,0,3.9-0.7,5.3-2.2c1.5-1.5,2.2-3.3,2.2-5.3c0-0.2,0-0.3,0-0.5
		s0-0.3,0-0.4c-0.1-0.8-0.3-1.6-0.6-2.4c-0.3-0.8-0.8-1.4-1.5-2c-0.8-0.7-1.7-1.5-2.5-2.2c-0.9-0.8-1.7-1.5-2.6-2.2
		c-0.9-0.8-1.6-1.8-2-2.9c-0.4-1.1-0.7-2.2-0.7-3.4c0-2.4,0.9-4.4,2.6-6.1c1.7-1.7,3.8-2.6,6.2-2.6v4c-1.3,0-2.4,0.5-3.4,1.4
		s-1.4,2-1.4,3.3c0,0.1,0,0.2,0,0.3s0,0.2,0,0.3c0,0.5,0.1,1,0.3,1.5c0.2,0.5,0.5,0.9,0.9,1.2c0.9,0.7,1.7,1.5,2.6,2.2
		c0.9,0.7,1.7,1.5,2.6,2.2c1.1,1,2,2.2,2.5,3.6c0.6,1.4,0.9,2.8,0.9,4.3c0,0.1,0,0.1,0,0.2c0,0.1,0,0.1,0,0.2
		C461.2,28.8,460.1,31.5,457.9,33.8z"/>
	<path class="st0" d="M504.6,37.2l-2.7-8.8h-12.5l-2.7,8.8h-4.2l2.8-8.8h-2.1v-4.1h3.4l7.2-23.1h3.7l11.2,36H504.6z M495.6,8.4
		l-4.9,15.8h9.9L495.6,8.4z"/>
	<path class="st0" d="M525.8,37.2V9.7c-1.2-1.2-2.5-2.2-4.1-3c-1.5-0.8-3.1-1.3-4.8-1.5v32h-4V1.1c0.4,0,0.7,0,1,0s0.7,0,1,0
		c2,0,3.9,0.3,5.7,0.9c1.9,0.6,3.6,1.4,5.1,2.6V1.1h3.9v36.1H525.8z"/>
	<path class="st0" d="M548.3,31.8c-3.5,3.5-7.7,5.3-12.6,5.4c-0.2,0-0.3,0-0.5,0c-0.2,0-0.3,0-0.5,0c-0.2,0-0.4,0-0.5,0
		s-0.3,0-0.5,0V1.1c0.2,0,0.3,0,0.5,0s0.3,0,0.5,0c0.2,0,0.3,0,0.5,0c0.2,0,0.3,0,0.5,0c4.9,0.1,9.1,1.9,12.6,5.4
		c3.5,3.5,5.2,7.7,5.2,12.6C553.5,24,551.8,28.3,548.3,31.8z M546.2,10c-2.2-2.7-5.1-4.3-8.5-4.8v27.9c3.4-0.5,6.3-2.1,8.5-4.8
		c2.2-2.7,3.4-5.7,3.4-9.2C549.5,15.7,548.4,12.6,546.2,10z"/>
	<path class="st0" d="M582.2,36.1c-1.7,0.7-3.5,1.1-5.4,1.1c-0.3,0-0.5,0-0.7,0c-0.2,0-0.5,0-0.7,0c-0.3,0-0.5,0-0.7,0
		c-0.2,0-0.5,0-0.7,0V1.1c0.3,0,0.5,0,0.7,0c0.2,0,0.5,0,0.7,0c0.3,0,0.5,0,0.7,0c0.2,0,0.5,0,0.7,0c1.8,0,3.3,0.6,4.4,1.9
		c1.2,1.3,1.8,2.7,1.8,4.3c0,0.5-0.1,1.1-0.2,1.6c-0.1,0.5-0.4,1.1-0.7,1.6c2.8,1.1,4.9,2.9,6.4,5.3c1.5,2.4,2.2,4.9,2.2,7.6
		c0,0.2,0,0.4,0,0.6c0,0.2,0,0.4,0,0.6c-0.2,1.5-0.6,3-1.2,4.5c-0.6,1.5-1.6,2.8-2.8,4C585.3,34.4,583.8,35.4,582.2,36.1z
		 M578.8,8.4c0.2-0.4,0.3-0.8,0.3-1.2c0-0.4-0.1-0.8-0.3-1.2c-0.2-0.4-0.5-0.6-0.9-0.9v4.1C578.3,9.1,578.6,8.8,578.8,8.4z
		 M584.1,16.8c-1.7-1.9-3.8-3-6.3-3.2v19.6c2.5-0.3,4.6-1.3,6.3-3.2s2.6-4.1,2.6-6.6C586.7,20.8,585.8,18.6,584.1,16.8z"/>
	<path class="st0" d="M594.6,37.2V1.1h4v32.2h11.6v4H594.6z"/>
	<path class="st0" d="M641.1,31.9c-3.5,3.5-7.8,5.3-12.7,5.3c-5,0-9.2-1.8-12.7-5.3c-3.5-3.5-5.3-7.8-5.3-12.8c0-5,1.8-9.2,5.3-12.7
		c3.5-3.5,7.8-5.3,12.7-5.3c5,0,9.2,1.8,12.7,5.3c3.5,3.5,5.3,7.8,5.3,12.7C646.4,24.1,644.6,28.4,641.1,31.9z M638.3,9.2
		c-2.8-2.8-6.1-4.1-10-4.1c-3.9,0-7.2,1.4-10,4.1c-2.8,2.8-4.2,6.1-4.2,9.9c0,3.9,1.4,7.2,4.2,10c2.8,2.8,6.1,4.2,10,4.2
		c3.9,0,7.2-1.4,10-4.2c2.8-2.8,4.1-6.1,4.1-10C642.5,15.2,641.1,11.9,638.3,9.2z"/>
	<path class="st0" d="M669.2,37.2c-0.3,0-0.7,0-1,0c-4.9-0.1-9.1-1.9-12.6-5.4c-3.5-3.5-5.2-7.7-5.2-12.7c0-4.9,1.7-9.1,5.1-12.6
		c3.4-3.5,7.6-5.3,12.5-5.5v4c-3.8,0.1-7,1.5-9.7,4.2c-2.7,2.7-4,6-4,9.8c0,3.5,1.1,6.5,3.4,9.2c2.3,2.7,5.1,4.3,8.5,4.8V13.5h-5.5
		v-4h9.5v27.7C669.8,37.2,669.5,37.2,669.2,37.2z"/>
	<path class="st0" d="M684.7,33.8c-2.2,2.3-4.9,3.4-8.1,3.4v-4c2.1,0,3.9-0.7,5.3-2.2c1.5-1.5,2.2-3.3,2.2-5.3c0-0.2,0-0.3,0-0.5
		s0-0.3,0-0.4c-0.1-0.8-0.3-1.6-0.6-2.4c-0.3-0.8-0.8-1.4-1.5-2c-0.8-0.7-1.7-1.5-2.5-2.2c-0.9-0.8-1.7-1.5-2.6-2.2
		c-0.9-0.8-1.6-1.8-2-2.9s-0.7-2.2-0.7-3.4c0-2.4,0.9-4.4,2.6-6.1c1.7-1.7,3.8-2.6,6.2-2.6v4c-1.3,0-2.4,0.5-3.4,1.4
		c-0.9,0.9-1.4,2-1.4,3.3c0,0.1,0,0.2,0,0.3s0,0.2,0,0.3c0,0.5,0.1,1,0.3,1.5c0.2,0.5,0.5,0.9,0.9,1.2c0.9,0.7,1.7,1.5,2.6,2.2
		c0.9,0.7,1.7,1.5,2.6,2.2c1.1,1,2,2.2,2.5,3.6c0.6,1.4,0.9,2.8,0.9,4.3c0,0.1,0,0.1,0,0.2c0,0.1,0,0.1,0,0.2
		C688.1,28.8,686.9,31.5,684.7,33.8z"/>
	<path class="st0" d="M13.1,197.1c-2.5,2.7-5.5,4.2-9.1,4.4v8.5H0v-36.1c0.3,0,0.5,0,0.7,0c0.2,0,0.5,0,0.7,0c0.3,0,0.5,0,0.7,0
		c0.2,0,0.5,0,0.7,0c3.8,0,7.1,1.4,9.8,4.1c2.7,2.7,4.1,6,4.1,9.8C16.8,191.3,15.6,194.4,13.1,197.1z M10.3,181.1
		c-1.7-1.9-3.8-2.9-6.3-3.2v19.6c2.5-0.3,4.6-1.3,6.3-3.2s2.6-4.1,2.6-6.6S12,182.9,10.3,181.1z"/>
	<path class="st0" d="M30.3,208.4c-2.3-1.1-4.3-2.5-6-4.4v6h-3.9v-36.1c0.3,0,0.5,0,0.7,0s0.5,0,0.7,0c0.2,0,0.5,0,0.7,0
		c0.3,0,0.5,0,0.7,0c3.8,0,7.1,1.4,9.8,4.1c2.7,2.7,4.1,6,4.1,9.8c0,3.1-1,5.9-2.9,8.4c-1.9,2.5-4.4,4.1-7.3,4.9
		c1.3,1.6,2.8,2.8,4.7,3.7c1.8,0.9,3.8,1.3,5.9,1.3v4C35,210,32.6,209.5,30.3,208.4z M30.7,181.1c-1.7-1.9-3.8-2.9-6.3-3.2v19.6
		c2.5-0.3,4.6-1.3,6.3-3.2s2.6-4.1,2.6-6.6S32.4,182.9,30.7,181.1z"/>
	<path class="st0" d="M48.8,204.6c-3.5-3.5-5.3-7.8-5.3-12.7c0-0.9,0-1.9,0-2.8s0-1.9,0-2.8h-2.3v-4h2.3v-8.4h17.6v4H47.6v4.5h13.8
		v4H47.6c0,0.9,0,1.9,0,2.8s0,1.9,0,2.8c0,3.8,1.3,7.1,4,9.9c2.7,2.8,6,4.2,9.8,4.2v4C56.5,210,52.3,208.1,48.8,204.6z"/>
	<path class="st0" d="M78.8,197.1c-2.5,2.7-5.5,4.2-9.1,4.4v8.5h-4v-36.1c0.3,0,0.5,0,0.7,0s0.5,0,0.7,0c0.3,0,0.5,0,0.7,0
		s0.5,0,0.7,0c3.8,0,7.1,1.4,9.8,4.1c2.7,2.7,4.1,6,4.1,9.8C82.5,191.3,81.2,194.4,78.8,197.1z M76,181.1c-1.7-1.9-3.8-2.9-6.3-3.2
		v19.6c2.5-0.3,4.6-1.3,6.3-3.2s2.6-4.1,2.6-6.6S77.7,182.9,76,181.1z"/>
	<path class="st0" d="M105.8,210l-2.7-8.8H90.6l-2.7,8.8h-4.2l2.8-8.8h-2.1v-4.1h3.4l7.2-23.1h3.7l11.2,36H105.8z M96.8,181.2
		l-4.9,15.8h9.9L96.8,181.2z"/>
	<path class="st0" d="M124.4,208.4c-2.3-1.1-4.3-2.5-6-4.4v6h-3.9v-36.1c0.3,0,0.5,0,0.7,0c0.2,0,0.5,0,0.7,0c0.2,0,0.5,0,0.7,0
		s0.5,0,0.7,0c3.8,0,7.1,1.4,9.8,4.1c2.7,2.7,4.1,6,4.1,9.8c0,3.1-1,5.9-2.9,8.4c-1.9,2.5-4.4,4.1-7.3,4.9c1.3,1.6,2.8,2.8,4.7,3.7
		c1.8,0.9,3.8,1.3,5.9,1.3v4C129.2,210,126.7,209.5,124.4,208.4z M124.8,181.1c-1.7-1.9-3.8-2.9-6.3-3.2v19.6
		c2.5-0.3,4.6-1.3,6.3-3.2s2.6-4.1,2.6-6.6S126.5,182.9,124.8,181.1z"/>
	<path class="st0" d="M143,204.6c-3.5-3.5-5.3-7.8-5.3-12.7c0-0.9,0-1.9,0-2.8s0-1.9,0-2.8h-2.3v-4h2.3v-8.4h17.6v4h-13.6v4.5h13.8
		v4h-13.8c0,0.9,0,1.9,0,2.8s0,1.9,0,2.8c0,3.8,1.3,7.1,4,9.9c2.7,2.8,6,4.2,9.8,4.2v4C150.7,210,146.5,208.1,143,204.6z"/>
	<path class="st0" d="M189.7,197.1c-2.5,2.7-5.5,4.2-9.1,4.4v8.5h-4v-36.1c0.3,0,0.5,0,0.7,0s0.5,0,0.7,0c0.3,0,0.5,0,0.7,0
		s0.5,0,0.7,0c3.8,0,7.1,1.4,9.8,4.1c2.7,2.7,4.1,6,4.1,9.8C193.4,191.3,192.2,194.4,189.7,197.1z M186.9,181.1
		c-1.7-1.9-3.8-2.9-6.3-3.2v19.6c2.5-0.3,4.6-1.3,6.3-3.2s2.6-4.1,2.6-6.6S188.6,182.9,186.9,181.1z"/>
	<path class="st0" d="M206.9,208.4c-2.3-1.1-4.3-2.5-6-4.4v6H197v-36.1c0.3,0,0.5,0,0.7,0c0.2,0,0.5,0,0.7,0c0.2,0,0.5,0,0.7,0
		s0.5,0,0.7,0c3.8,0,7.1,1.4,9.8,4.1c2.7,2.7,4.1,6,4.1,9.8c0,3.1-1,5.9-2.9,8.4c-1.9,2.5-4.4,4.1-7.3,4.9c1.3,1.6,2.8,2.8,4.7,3.7
		c1.8,0.9,3.8,1.3,5.9,1.3v4C211.6,210,209.2,209.5,206.9,208.4z M207.3,181.1c-1.7-1.9-3.8-2.9-6.3-3.2v19.6
		c2.5-0.3,4.6-1.3,6.3-3.2s2.6-4.1,2.6-6.6S209,182.9,207.3,181.1z"/>
	<path class="st0" d="M225.4,204.6c-3.5-3.5-5.3-7.8-5.3-12.7c0-0.9,0-1.9,0-2.8s0-1.9,0-2.8h-2.3v-4h2.3v-8.4h17.6v4h-13.6v4.5H238
		v4h-13.8c0,0.9,0,1.9,0,2.8s0,1.9,0,2.8c0,3.8,1.3,7.1,4,9.9c2.7,2.8,6,4.2,9.8,4.2v4C233.1,210,228.9,208.1,225.4,204.6z"/>
	<path class="st0" d="M252.6,206.6c-2.2,2.3-4.9,3.4-8.1,3.4v-4c2.1,0,3.9-0.7,5.3-2.2c1.5-1.5,2.2-3.3,2.2-5.3c0-0.2,0-0.3,0-0.5
		s0-0.3,0-0.4c-0.1-0.8-0.3-1.6-0.6-2.4c-0.3-0.8-0.8-1.4-1.5-2c-0.8-0.7-1.7-1.5-2.5-2.2c-0.9-0.8-1.7-1.5-2.6-2.2
		c-0.9-0.8-1.6-1.8-2-2.9s-0.7-2.2-0.7-3.4c0-2.4,0.9-4.4,2.6-6.1c1.7-1.7,3.8-2.6,6.2-2.6v4c-1.3,0-2.4,0.5-3.4,1.4
		c-0.9,0.9-1.4,2-1.4,3.3c0,0.1,0,0.2,0,0.3s0,0.2,0,0.3c0,0.5,0.1,1,0.3,1.5c0.2,0.5,0.5,0.9,0.9,1.2c0.9,0.7,1.7,1.5,2.6,2.2
		c0.9,0.7,1.7,1.5,2.6,2.2c1.1,1,2,2.2,2.5,3.6c0.6,1.4,0.9,2.8,0.9,4.3c0,0.1,0,0.1,0,0.2c0,0.1,0,0.1,0,0.2
		C256,201.6,254.9,204.3,252.6,206.6z"/>
	<path class="st0" d="M270.3,206.6c-2.2,2.3-4.9,3.4-8.1,3.4v-4c2.1,0,3.9-0.7,5.3-2.2c1.5-1.5,2.2-3.3,2.2-5.3c0-0.2,0-0.3,0-0.5
		s0-0.3,0-0.4c-0.1-0.8-0.3-1.6-0.6-2.4c-0.3-0.8-0.8-1.4-1.5-2c-0.8-0.7-1.7-1.5-2.5-2.2c-0.9-0.8-1.7-1.5-2.6-2.2
		c-0.9-0.8-1.6-1.8-2-2.9c-0.4-1.1-0.7-2.2-0.7-3.4c0-2.4,0.9-4.4,2.6-6.1c1.7-1.7,3.8-2.6,6.2-2.6v4c-1.3,0-2.4,0.5-3.4,1.4
		s-1.4,2-1.4,3.3c0,0.1,0,0.2,0,0.3s0,0.2,0,0.3c0,0.5,0.1,1,0.3,1.5c0.2,0.5,0.5,0.9,0.9,1.2c0.9,0.7,1.7,1.5,2.6,2.2
		c0.9,0.7,1.7,1.5,2.6,2.2c1.1,1,2,2.2,2.5,3.6c0.6,1.4,0.9,2.8,0.9,4.3c0,0.1,0,0.1,0,0.2c0,0.1,0,0.1,0,0.2
		C273.6,201.6,272.5,204.3,270.3,206.6z"/>
	<path class="st0" d="M304.3,208.4c-2.3-1.1-4.3-2.5-6-4.4v6h-3.9v-36.1c0.3,0,0.5,0,0.7,0c0.2,0,0.5,0,0.7,0c0.2,0,0.5,0,0.7,0
		s0.5,0,0.7,0c3.8,0,7.1,1.4,9.8,4.1c2.7,2.7,4.1,6,4.1,9.8c0,3.1-1,5.9-2.9,8.4c-1.9,2.5-4.4,4.1-7.3,4.9c1.3,1.6,2.8,2.8,4.7,3.7
		c1.8,0.9,3.8,1.3,5.9,1.3v4C309.1,210,306.6,209.5,304.3,208.4z M304.7,181.1c-1.7-1.9-3.8-2.9-6.3-3.2v19.6
		c2.5-0.3,4.6-1.3,6.3-3.2s2.6-4.1,2.6-6.6S306.4,182.9,304.7,181.1z"/>
	<path class="st0" d="M322.9,204.6c-3.5-3.5-5.3-7.8-5.3-12.7c0-0.9,0-1.9,0-2.8s0-1.9,0-2.8h-2.3v-4h2.3v-8.4h17.6v4h-13.6v4.5
		h13.8v4h-13.8c0,0.9,0,1.9,0,2.8s0,1.9,0,2.8c0,3.8,1.3,7.1,4,9.9c2.7,2.8,6,4.2,9.8,4.2v4C330.6,210,326.4,208.1,322.9,204.6z"/>
	<path class="st0" d="M339.6,210v-36.1h4V206h11.6v4H339.6z"/>
	<path class="st0" d="M360.8,204.6c-3.5-3.5-5.3-7.8-5.3-12.7c0-0.9,0-1.9,0-2.8s0-1.9,0-2.8h-2.3v-4h2.3v-8.4h17.6v4h-13.6v4.5
		h13.8v4h-13.8c0,0.9,0,1.9,0,2.8s0,1.9,0,2.8c0,3.8,1.3,7.1,4,9.9c2.7,2.8,6,4.2,9.8,4.2v4C368.5,210,364.3,208.1,360.8,204.6z"/>
	<path class="st0" d="M400.3,210l-2.7-8.8h-12.5l-2.7,8.8h-4.2l2.8-8.8h-2.1v-4.1h3.4l7.2-23.1h3.7l11.2,36H400.3z M391.3,181.2
		l-4.9,15.8h9.9L391.3,181.2z"/>
	<path class="st0" d="M417.7,206.6c-2.2,2.3-4.9,3.4-8.1,3.4v-4c2.1,0,3.9-0.7,5.3-2.2c1.5-1.5,2.2-3.3,2.2-5.3c0-0.2,0-0.3,0-0.5
		s0-0.3,0-0.4c-0.1-0.8-0.3-1.6-0.6-2.4c-0.3-0.8-0.8-1.4-1.5-2c-0.8-0.7-1.7-1.5-2.5-2.2c-0.9-0.8-1.7-1.5-2.6-2.2
		c-0.9-0.8-1.6-1.8-2-2.9s-0.7-2.2-0.7-3.4c0-2.4,0.9-4.4,2.6-6.1c1.7-1.7,3.8-2.6,6.2-2.6v4c-1.3,0-2.4,0.5-3.4,1.4
		c-0.9,0.9-1.4,2-1.4,3.3c0,0.1,0,0.2,0,0.3s0,0.2,0,0.3c0,0.5,0.1,1,0.3,1.5c0.2,0.5,0.5,0.9,0.9,1.2c0.9,0.7,1.7,1.5,2.6,2.2
		c0.9,0.7,1.7,1.5,2.6,2.2c1.1,1,2,2.2,2.5,3.6c0.6,1.4,0.9,2.8,0.9,4.3c0,0.1,0,0.1,0,0.2c0,0.1,0,0.1,0,0.2
		C421.1,201.6,420,204.3,417.7,206.6z"/>
	<path class="st0" d="M430.9,204.6c-3.5-3.5-5.3-7.8-5.3-12.7c0-0.9,0-1.9,0-2.8s0-1.9,0-2.8h-2.3v-4h2.3v-8.4h17.6v4h-13.6v4.5
		h13.8v4h-13.8c0,0.9,0,1.9,0,2.8s0,1.9,0,2.8c0,3.8,1.3,7.1,4,9.9c2.7,2.8,6,4.2,9.8,4.2v4C438.6,210,434.4,208.1,430.9,204.6z"/>
	<path class="st0" d="M458.1,206.6c-2.2,2.3-4.9,3.4-8.1,3.4v-4c2.1,0,3.9-0.7,5.3-2.2c1.5-1.5,2.2-3.3,2.2-5.3c0-0.2,0-0.3,0-0.5
		s0-0.3,0-0.4c-0.1-0.8-0.3-1.6-0.6-2.4c-0.3-0.8-0.8-1.4-1.5-2c-0.8-0.7-1.7-1.5-2.5-2.2c-0.9-0.8-1.7-1.5-2.6-2.2
		c-0.9-0.8-1.6-1.8-2-2.9s-0.7-2.2-0.7-3.4c0-2.4,0.9-4.4,2.6-6.1c1.7-1.7,3.8-2.6,6.2-2.6v4c-1.3,0-2.4,0.5-3.4,1.4
		c-0.9,0.9-1.4,2-1.4,3.3c0,0.1,0,0.2,0,0.3s0,0.2,0,0.3c0,0.5,0.1,1,0.3,1.5c0.2,0.5,0.5,0.9,0.9,1.2c0.9,0.7,1.7,1.5,2.6,2.2
		c0.9,0.7,1.7,1.5,2.6,2.2c1.1,1,2,2.2,2.5,3.6c0.6,1.4,0.9,2.8,0.9,4.3c0,0.1,0,0.1,0,0.2c0,0.1,0,0.1,0,0.2
		C461.4,201.6,460.3,204.3,458.1,206.6z"/>
	<path class="st0" d="M9.9,381.2c-2.3-1.1-4.3-2.5-6-4.4v6H0v-36.1c0.3,0,0.5,0,0.7,0s0.5,0,0.7,0c0.2,0,0.5,0,0.7,0
		c0.3,0,0.5,0,0.7,0c3.8,0,7.1,1.4,9.8,4.1c2.7,2.7,4.1,6,4.1,9.8c0,3.1-1,5.9-2.9,8.4c-1.9,2.5-4.4,4.1-7.3,4.9
		c1.3,1.6,2.8,2.8,4.7,3.7c1.8,0.9,3.8,1.3,5.9,1.3v4C14.7,382.8,12.2,382.3,9.9,381.2z M10.3,353.9c-1.7-1.9-3.8-2.9-6.3-3.2v19.6
		c2.5-0.3,4.6-1.3,6.3-3.2s2.6-4.1,2.6-6.6S12,355.7,10.3,353.9z"/>
	<path class="st0" d="M28.5,377.4c-3.5-3.5-5.3-7.8-5.3-12.7c0-0.9,0-1.9,0-2.8s0-1.9,0-2.8h-2.3v-4h2.3v-8.4h17.6v4H27.2v4.5H41v4
		H27.2c0,0.9,0,1.9,0,2.8s0,1.9,0,2.8c0,3.8,1.3,7.1,4,9.9c2.7,2.8,6,4.2,9.8,4.2v4C36.2,382.8,32,380.9,28.5,377.4z"/>
	<path class="st0" d="M64.1,382.8v-29.1l-7.6,6l-7.6-6v29.1H45v-37.2l11.5,9l11.5-9v37.2H64.1z"/>
	<path class="st0" d="M72.1,382.8v-36.1H76v36.1H72.1z"/>
	<path class="st0" d="M92.5,382.8v-27.5c-1.2-1.2-2.5-2.2-4.1-3c-1.5-0.8-3.1-1.3-4.8-1.5v32h-4v-36.1c0.4,0,0.7,0,1,0
		c0.3,0,0.7,0,1,0c2,0,3.9,0.3,5.7,0.9c1.9,0.6,3.6,1.4,5.1,2.6v-3.5h3.9v36.1H92.5z"/>
	<path class="st0" d="M115.1,377.4c-3.5,3.5-7.7,5.3-12.6,5.4c-0.2,0-0.3,0-0.5,0c-0.2,0-0.3,0-0.5,0c-0.2,0-0.4,0-0.5,0
		s-0.3,0-0.5,0v-36.1c0.2,0,0.3,0,0.5,0s0.3,0,0.5,0c0.2,0,0.3,0,0.5,0c0.2,0,0.3,0,0.5,0c4.9,0.1,9.1,1.9,12.6,5.4
		c3.5,3.5,5.2,7.7,5.2,12.6C120.3,369.6,118.6,373.9,115.1,377.4z M112.9,355.6c-2.2-2.7-5.1-4.3-8.5-4.8v27.9
		c3.4-0.5,6.3-2.1,8.5-4.8c2.2-2.7,3.4-5.7,3.4-9.2C116.3,361.3,115.2,358.2,112.9,355.6z"/>
	<path class="st0" d="M128,382.8c-0.2,0.3-0.3,0.6-0.4,1c-0.2,0.3-0.3,0.6-0.5,1c-0.2,0.3-0.3,0.7-0.5,1l-1.5-0.7l0.8-1.8
		c-0.1-0.1-0.3-0.1-0.4-0.1c-0.1,0-0.3-0.1-0.4-0.1c-0.4-0.2-0.8-0.5-1.1-0.9c-0.3-0.4-0.4-0.8-0.3-1.3c0-0.2,0-0.4,0-0.6
		c0-0.2,0.1-0.4,0.2-0.5c0.2-0.4,0.5-0.8,1-1.1c0.4-0.3,0.8-0.4,1.3-0.4c0.2,0,0.4,0,0.6,0c0.2,0,0.4,0.1,0.5,0.2
		c0.4,0.2,0.8,0.5,1.1,1c0.3,0.4,0.4,0.9,0.4,1.3c0,0.1,0,0.2,0,0.3c0,0.1,0,0.2,0,0.3c0,0.1-0.1,0.2-0.1,0.3c0,0.1-0.1,0.2-0.1,0.3
		C128.3,382.2,128.2,382.5,128,382.8z"/>
	<path class="st0" d="M159.2,381.2c-2.3-1.1-4.3-2.5-6-4.4v6h-3.9v-36.1c0.3,0,0.5,0,0.7,0c0.2,0,0.5,0,0.7,0c0.2,0,0.5,0,0.7,0
		s0.5,0,0.7,0c3.8,0,7.1,1.4,9.8,4.1c2.7,2.7,4.1,6,4.1,9.8c0,3.1-1,5.9-2.9,8.4c-1.9,2.5-4.4,4.1-7.3,4.9c1.3,1.6,2.8,2.8,4.7,3.7
		c1.8,0.9,3.8,1.3,5.9,1.3v4C163.9,382.8,161.5,382.3,159.2,381.2z M159.6,353.9c-1.7-1.9-3.8-2.9-6.3-3.2v19.6
		c2.5-0.3,4.6-1.3,6.3-3.2s2.6-4.1,2.6-6.6S161.3,355.7,159.6,353.9z"/>
	<path class="st0" d="M177.8,377.4c-3.5-3.5-5.3-7.8-5.3-12.7c0-0.9,0-1.9,0-2.8s0-1.9,0-2.8h-2.3v-4h2.3v-8.4h17.6v4h-13.6v4.5
		h13.8v4h-13.8c0,0.9,0,1.9,0,2.8s0,1.9,0,2.8c0,3.8,1.3,7.1,4,9.9c2.7,2.8,6,4.2,9.8,4.2v4C185.5,382.8,181.3,380.9,177.8,377.4z"
		/>
	<path class="st0" d="M213.4,382.8v-29.1l-7.6,6l-7.6-6v29.1h-3.9v-37.2l11.5,9l11.5-9v37.2H213.4z"/>
	<path class="st0" d="M221.4,382.8v-36.1h3.9v36.1H221.4z"/>
	<path class="st0" d="M241.8,382.8v-27.5c-1.2-1.2-2.5-2.2-4.1-3c-1.5-0.8-3.1-1.3-4.8-1.5v32h-4v-36.1c0.4,0,0.7,0,1,0
		c0.3,0,0.7,0,1,0c2,0,3.9,0.3,5.7,0.9c1.9,0.6,3.6,1.4,5.1,2.6v-3.5h3.9v36.1H241.8z"/>
	<path class="st0" d="M264.4,377.4c-3.5,3.5-7.7,5.3-12.6,5.4c-0.2,0-0.3,0-0.5,0s-0.3,0-0.5,0c-0.2,0-0.4,0-0.5,0s-0.3,0-0.5,0
		v-36.1c0.2,0,0.3,0,0.5,0s0.3,0,0.5,0c0.2,0,0.3,0,0.5,0s0.3,0,0.5,0c4.9,0.1,9.1,1.9,12.6,5.4c3.5,3.5,5.2,7.7,5.2,12.6
		C269.6,369.6,267.8,373.9,264.4,377.4z M262.2,355.6c-2.2-2.7-5.1-4.3-8.5-4.8v27.9c3.4-0.5,6.3-2.1,8.5-4.8
		c2.2-2.7,3.4-5.7,3.4-9.2C265.6,361.3,264.5,358.2,262.2,355.6z"/>
	<path class="st0" d="M277.3,382.8c-0.2,0.3-0.3,0.6-0.4,1c-0.2,0.3-0.3,0.6-0.5,1s-0.3,0.7-0.5,1l-1.5-0.7l0.8-1.8
		c-0.1-0.1-0.3-0.1-0.4-0.1c-0.1,0-0.3-0.1-0.4-0.1c-0.4-0.2-0.8-0.5-1.1-0.9c-0.3-0.4-0.4-0.8-0.3-1.3c0-0.2,0-0.4,0-0.6
		c0-0.2,0.1-0.4,0.2-0.5c0.2-0.4,0.5-0.8,1-1.1c0.4-0.3,0.8-0.4,1.3-0.4c0.2,0,0.4,0,0.6,0c0.2,0,0.4,0.1,0.5,0.2
		c0.4,0.2,0.8,0.5,1.1,1c0.3,0.4,0.4,0.9,0.4,1.3c0,0.1,0,0.2,0,0.3c0,0.1,0,0.2,0,0.3c0,0.1-0.1,0.2-0.1,0.3c0,0.1-0.1,0.2-0.1,0.3
		C277.6,382.2,277.5,382.5,277.3,382.8z"/>
	<path class="st0" d="M308.5,381.2c-2.3-1.1-4.3-2.5-6-4.4v6h-3.9v-36.1c0.3,0,0.5,0,0.7,0c0.2,0,0.5,0,0.7,0c0.2,0,0.5,0,0.7,0
		s0.5,0,0.7,0c3.8,0,7.1,1.4,9.8,4.1c2.7,2.7,4.1,6,4.1,9.8c0,3.1-1,5.9-2.9,8.4c-1.9,2.5-4.4,4.1-7.3,4.9c1.3,1.6,2.8,2.8,4.7,3.7
		c1.8,0.9,3.8,1.3,5.9,1.3v4C313.2,382.8,310.8,382.3,308.5,381.2z M308.9,353.9c-1.7-1.9-3.8-2.9-6.3-3.2v19.6
		c2.5-0.3,4.6-1.3,6.3-3.2s2.6-4.1,2.6-6.6S310.6,355.7,308.9,353.9z"/>
	<path class="st0" d="M327,377.4c-3.5-3.5-5.3-7.8-5.3-12.7c0-0.9,0-1.9,0-2.8s0-1.9,0-2.8h-2.3v-4h2.3v-8.4h17.6v4h-13.6v4.5h13.8
		v4h-13.8c0,0.9,0,1.9,0,2.8s0,1.9,0,2.8c0,3.8,1.3,7.1,4,9.9c2.7,2.8,6,4.2,9.8,4.2v4C334.7,382.8,330.5,380.9,327,377.4z"/>
	<path class="st0" d="M362.6,382.8v-29.1l-7.6,6l-7.6-6v29.1h-3.9v-37.2l11.5,9l11.5-9v37.2H362.6z"/>
	<path class="st0" d="M370.7,382.8v-36.1h3.9v36.1H370.7z"/>
	<path class="st0" d="M391.1,382.8v-27.5c-1.2-1.2-2.5-2.2-4.1-3c-1.5-0.8-3.1-1.3-4.8-1.5v32h-4v-36.1c0.4,0,0.7,0,1,0s0.7,0,1,0
		c2,0,3.9,0.3,5.7,0.9c1.9,0.6,3.6,1.4,5.1,2.6v-3.5h3.9v36.1H391.1z"/>
	<path class="st0" d="M413.6,377.4c-3.5,3.5-7.7,5.3-12.6,5.4c-0.2,0-0.3,0-0.5,0s-0.3,0-0.5,0c-0.2,0-0.4,0-0.5,0s-0.3,0-0.5,0
		v-36.1c0.2,0,0.3,0,0.5,0s0.3,0,0.5,0c0.2,0,0.3,0,0.5,0s0.3,0,0.5,0c4.9,0.1,9.1,1.9,12.6,5.4c3.5,3.5,5.2,7.7,5.2,12.6
		C418.8,369.6,417.1,373.9,413.6,377.4z M411.5,355.6c-2.2-2.7-5.1-4.3-8.5-4.8v27.9c3.4-0.5,6.3-2.1,8.5-4.8
		c2.2-2.7,3.4-5.7,3.4-9.2C414.9,361.3,413.7,358.2,411.5,355.6z"/>
	<path class="st0" d="M426.1,382.6c-0.5,0.5-1.1,0.7-1.8,0.7c-0.7,0-1.3-0.2-1.8-0.7c-0.5-0.5-0.7-1.1-0.7-1.8
		c0-0.7,0.2-1.3,0.7-1.8c0.5-0.5,1.1-0.7,1.8-0.7c0.7,0,1.3,0.2,1.8,0.7c0.5,0.5,0.7,1.1,0.7,1.8
		C426.9,381.5,426.6,382.1,426.1,382.6z M422.3,377.5v-30.8h4v30.8H422.3z"/>
	<path class="st0" d="M16.1,552.8c-1.8,1.8-4,2.8-6.6,2.8c-2.6,0-4.8-0.9-6.6-2.8c-1.8-1.8-2.8-4-2.8-6.6v-26.8h4
		c0,4.4,0,8.9,0,13.4c0,4.5,0,8.9,0,13.4c0,1.5,0.5,2.7,1.6,3.8c1.1,1.1,2.3,1.6,3.8,1.6c1.5,0,2.8-0.5,3.8-1.6
		c1.1-1.1,1.6-2.3,1.6-3.8v-26.8h3.9c0,4.4,0,8.9,0,13.4c0,4.5,0,8.9,0,13.4C18.8,548.8,17.9,551,16.1,552.8z"/>
	<path class="st0" d="M33.4,552.2c-2.2,2.3-4.9,3.4-8.1,3.4v-4c2.1,0,3.9-0.7,5.3-2.2c1.5-1.5,2.2-3.3,2.2-5.3c0-0.2,0-0.3,0-0.5
		c0-0.1,0-0.3,0-0.4c-0.1-0.8-0.3-1.6-0.6-2.4c-0.3-0.8-0.8-1.4-1.5-2c-0.8-0.7-1.7-1.5-2.5-2.2s-1.7-1.5-2.6-2.2
		c-0.9-0.8-1.6-1.8-2-2.9c-0.4-1.1-0.7-2.2-0.7-3.4c0-2.4,0.9-4.4,2.6-6.1c1.7-1.7,3.8-2.6,6.2-2.6v4c-1.3,0-2.4,0.5-3.4,1.4
		s-1.4,2-1.4,3.3c0,0.1,0,0.2,0,0.3c0,0.1,0,0.2,0,0.3c0,0.5,0.1,1,0.3,1.5c0.2,0.5,0.5,0.9,0.9,1.2c0.9,0.7,1.7,1.5,2.6,2.2
		s1.7,1.5,2.6,2.2c1.1,1,2,2.2,2.5,3.6c0.6,1.4,0.9,2.8,0.9,4.3c0,0.1,0,0.1,0,0.2c0,0.1,0,0.1,0,0.2
		C36.7,547.2,35.6,549.9,33.4,552.2z"/>
	<path class="st0" d="M46.5,550.2c-3.5-3.5-5.3-7.8-5.3-12.7c0-0.9,0-1.9,0-2.8c0-0.9,0-1.9,0-2.8h-2.3v-4h2.3v-8.4h17.6v4H45.2v4.5
		H59v4H45.2c0,0.9,0,1.9,0,2.8c0,0.9,0,1.9,0,2.8c0,3.8,1.3,7.1,4,9.9c2.7,2.8,6,4.2,9.8,4.2v4C54.2,555.6,50,553.7,46.5,550.2z"/>
	<path class="st0" d="M90.5,552.2c-2.2,2.3-4.9,3.4-8.1,3.4v-4c2.1,0,3.9-0.7,5.3-2.2s2.2-3.3,2.2-5.3c0-0.2,0-0.3,0-0.5
		c0-0.1,0-0.3,0-0.4c-0.1-0.8-0.3-1.6-0.6-2.4c-0.3-0.8-0.8-1.4-1.5-2c-0.8-0.7-1.7-1.5-2.5-2.2c-0.9-0.8-1.7-1.5-2.6-2.2
		c-0.9-0.8-1.6-1.8-2-2.9c-0.4-1.1-0.7-2.2-0.7-3.4c0-2.4,0.9-4.4,2.6-6.1c1.7-1.7,3.8-2.6,6.2-2.6v4c-1.3,0-2.4,0.5-3.4,1.4
		c-0.9,0.9-1.4,2-1.4,3.3c0,0.1,0,0.2,0,0.3c0,0.1,0,0.2,0,0.3c0,0.5,0.1,1,0.3,1.5c0.2,0.5,0.5,0.9,0.9,1.2
		c0.9,0.7,1.7,1.5,2.6,2.2c0.9,0.7,1.7,1.5,2.6,2.2c1.1,1,2,2.2,2.5,3.6c0.6,1.4,0.9,2.8,0.9,4.3c0,0.1,0,0.1,0,0.2
		c0,0.1,0,0.1,0,0.2C93.8,547.2,92.7,549.9,90.5,552.2z"/>
	<path class="st0" d="M116.5,555.6v-29.1l-7.6,6l-7.6-6v29.1h-3.9v-37.2l11.5,9l11.5-9v37.2H116.5z"/>
	<path class="st0" d="M147.3,555.6l-2.7-8.8H132l-2.7,8.8h-4.2l2.8-8.8h-2.1v-4.1h3.4l7.2-23.1h3.7l11.2,36H147.3z M138.3,526.8
		l-4.9,15.8h9.9L138.3,526.8z"/>
	<path class="st0" d="M165.9,554c-2.3-1.1-4.3-2.5-6-4.4v6H156v-36.1c0.3,0,0.5,0,0.7,0s0.5,0,0.7,0c0.2,0,0.5,0,0.7,0
		c0.3,0,0.5,0,0.7,0c3.8,0,7.1,1.4,9.8,4.1c2.7,2.7,4.1,6,4.1,9.8c0,3.1-1,5.9-2.9,8.4c-1.9,2.5-4.4,4.1-7.3,4.9
		c1.3,1.6,2.8,2.8,4.7,3.7c1.8,0.9,3.8,1.3,5.9,1.3v4C170.6,555.6,168.2,555.1,165.9,554z M166.3,526.7c-1.7-1.9-3.8-2.9-6.3-3.2
		v19.6c2.5-0.3,4.6-1.3,6.3-3.2c1.7-1.9,2.6-4.1,2.6-6.6C168.8,530.8,168,528.5,166.3,526.7z"/>
	<path class="st0" d="M186,523.4v32.2h-3.9v-32.2H175v-4h18.1v4H186z"/>
	<path class="st0" d="M236.7,555.6l-2.7-8.8h-12.5l-2.7,8.8h-4.2l2.8-8.8h-2.1v-4.1h3.4l7.2-23.1h3.7l11.2,36H236.7z M227.7,526.8
		l-4.9,15.8h9.9L227.7,526.8z"/>
	<path class="st0" d="M260.1,550.2c-3.5,3.5-7.7,5.3-12.6,5.4c-0.2,0-0.3,0-0.5,0s-0.3,0-0.5,0c-0.2,0-0.4,0-0.5,0s-0.3,0-0.5,0
		v-36.1c0.2,0,0.3,0,0.5,0s0.3,0,0.5,0c0.2,0,0.3,0,0.5,0s0.3,0,0.5,0c4.9,0.1,9.1,1.9,12.6,5.4c3.5,3.5,5.2,7.7,5.2,12.6
		C265.3,542.4,263.6,546.7,260.1,550.2z M258,528.4c-2.2-2.7-5.1-4.3-8.5-4.8v27.9c3.4-0.5,6.3-2.1,8.5-4.8c2.2-2.7,3.4-5.7,3.4-9.2
		C261.4,534.1,260.2,531,258,528.4z"/>
	<path class="st0" d="M280.2,555.6h-3.7L265,519.5h4.2l9.1,29.4l9.1-29.4h4.2L280.2,555.6z"/>
	<path class="st0" d="M301.1,550.2c-3.5-3.5-5.3-7.8-5.3-12.7c0-0.9,0-1.9,0-2.8c0-0.9,0-1.9,0-2.8h-2.3v-4h2.3v-8.4h17.6v4h-13.6
		v4.5h13.8v4h-13.8c0,0.9,0,1.9,0,2.8c0,0.9,0,1.9,0,2.8c0,3.8,1.3,7.1,4,9.9c2.7,2.8,6,4.2,9.8,4.2v4
		C308.8,555.6,304.6,553.7,301.1,550.2z"/>
	<path class="st0" d="M327.8,554c-2.3-1.1-4.3-2.5-6-4.4v6h-3.9v-36.1c0.3,0,0.5,0,0.7,0c0.2,0,0.5,0,0.7,0c0.2,0,0.5,0,0.7,0
		s0.5,0,0.7,0c3.8,0,7.1,1.4,9.8,4.1c2.7,2.7,4.1,6,4.1,9.8c0,3.1-1,5.9-2.9,8.4c-1.9,2.5-4.4,4.1-7.3,4.9c1.3,1.6,2.8,2.8,4.7,3.7
		c1.8,0.9,3.8,1.3,5.9,1.3v4C332.6,555.6,330.1,555.1,327.8,554z M328.2,526.7c-1.7-1.9-3.8-2.9-6.3-3.2v19.6
		c2.5-0.3,4.6-1.3,6.3-3.2c1.7-1.9,2.6-4.1,2.6-6.6C330.8,530.8,329.9,528.5,328.2,526.7z"/>
	<path class="st0" d="M348,523.4v32.2h-3.9v-32.2H337v-4h18.1v4H348z"/>
	<path class="st0" d="M359.1,555.6v-36.1h3.9v36.1H359.1z"/>
	<path class="st0" d="M377.4,552.2c-2.2,2.3-4.9,3.4-8.1,3.4v-4c2.1,0,3.9-0.7,5.3-2.2c1.5-1.5,2.2-3.3,2.2-5.3c0-0.2,0-0.3,0-0.5
		c0-0.1,0-0.3,0-0.4c-0.1-0.8-0.3-1.6-0.6-2.4c-0.3-0.8-0.8-1.4-1.5-2c-0.8-0.7-1.7-1.5-2.5-2.2s-1.7-1.5-2.6-2.2
		c-0.9-0.8-1.6-1.8-2-2.9c-0.4-1.1-0.7-2.2-0.7-3.4c0-2.4,0.9-4.4,2.6-6.1c1.7-1.7,3.8-2.6,6.2-2.6v4c-1.3,0-2.4,0.5-3.4,1.4
		s-1.4,2-1.4,3.3c0,0.1,0,0.2,0,0.3c0,0.1,0,0.2,0,0.3c0,0.5,0.1,1,0.3,1.5c0.2,0.5,0.5,0.9,0.9,1.2c0.9,0.7,1.7,1.5,2.6,2.2
		s1.7,1.5,2.6,2.2c1.1,1,2,2.2,2.5,3.6c0.6,1.4,0.9,2.8,0.9,4.3c0,0.1,0,0.1,0,0.2c0,0.1,0,0.1,0,0.2
		C380.8,547.2,379.7,549.9,377.4,552.2z"/>
	<path class="st0" d="M384.6,555.6v-36.1h3.9v36.1H384.6z"/>
	<path class="st0" d="M405.1,555.6v-27.5c-1.2-1.2-2.5-2.2-4.1-3c-1.5-0.8-3.1-1.3-4.8-1.5v32h-4v-36.1c0.4,0,0.7,0,1,0s0.7,0,1,0
		c2,0,3.9,0.3,5.7,0.9c1.9,0.6,3.6,1.4,5.1,2.6v-3.5h3.9v36.1H405.1z"/>
	<path class="st0" d="M431.8,555.6c-0.3,0-0.7,0-1,0c-4.9-0.1-9.1-1.9-12.6-5.4c-3.5-3.5-5.2-7.7-5.2-12.7c0-4.9,1.7-9.1,5.1-12.6
		c3.4-3.5,7.6-5.3,12.5-5.5v4c-3.8,0.1-7,1.5-9.7,4.2c-2.7,2.7-4,6-4,9.8c0,3.5,1.1,6.5,3.4,9.2s5.1,4.3,8.5,4.8v-19.6h-5.5v-4h9.5
		v27.7C432.5,555.6,432.2,555.6,431.8,555.6z"/>
	<path class="st0" d="M19,728.4c-0.3,0-0.7,0-1,0c-4.9-0.1-9.1-1.9-12.6-5.4c-3.5-3.5-5.2-7.7-5.2-12.7c0-4.9,1.7-9.1,5.1-12.6
		c3.4-3.5,7.6-5.3,12.5-5.5v4c-3.8,0.1-7,1.5-9.7,4.2s-4,6-4,9.8c0,3.5,1.1,6.5,3.4,9.2c2.3,2.7,5.1,4.3,8.5,4.8v-19.6h-5.5v-4H20
		v27.7C19.6,728.4,19.3,728.4,19,728.4z"/>
	<path class="st0" d="M31.9,723c-3.5-3.5-5.3-7.8-5.3-12.7c0-0.9,0-1.9,0-2.8c0-0.9,0-1.9,0-2.8h-2.3v-4h2.3v-8.4h17.6v4H30.6v4.5
		h13.8v4H30.6c0,0.9,0,1.9,0,2.8c0,0.9,0,1.9,0,2.8c0,3.8,1.3,7.1,4,9.9c2.7,2.8,6,4.2,9.8,4.2v4C39.6,728.4,35.4,726.5,31.9,723z"
		/>
	<path class="st0" d="M59.9,696.2v32.2h-3.9v-32.2h-7.1v-4H67v4H59.9z"/>
	<path class="st0" d="M87.8,728.4v-36.1h3.9v36.1H87.8z"/>
	<path class="st0" d="M106.8,696.2v32.2h-3.9v-32.2h-7.1v-4h18.1v4H106.8z"/>
	<path class="st0" d="M165.6,723.1c-3.5,3.5-7.8,5.3-12.7,5.3s-9.2-1.8-12.7-5.3c-3.5-3.5-5.3-7.8-5.3-12.8c0-5,1.8-9.2,5.3-12.7
		s7.8-5.3,12.7-5.3s9.2,1.8,12.7,5.3s5.3,7.8,5.3,12.7C170.9,715.3,169.2,719.6,165.6,723.1z M162.9,700.4c-2.8-2.8-6.1-4.1-10-4.1
		c-3.9,0-7.2,1.4-10,4.1c-2.8,2.8-4.2,6.1-4.2,9.9c0,3.9,1.4,7.2,4.2,10c2.8,2.8,6.1,4.2,10,4.2c3.9,0,7.2-1.4,10-4.2
		c2.8-2.8,4.1-6.1,4.1-10C167,706.4,165.6,703.1,162.9,700.4z"/>
	<path class="st0" d="M187.2,728.4v-27.5c-1.2-1.2-2.5-2.2-4.1-3c-1.5-0.8-3.1-1.3-4.8-1.5v32h-4v-36.1c0.4,0,0.7,0,1,0
		c0.3,0,0.7,0,1,0c2,0,3.9,0.3,5.7,0.9c1.9,0.6,3.6,1.4,5.1,2.6v-3.5h3.9v36.1H187.2z"/>
	<path class="st0" d="M211.8,728.4v-36.1h4v32.2h11.6v4H211.8z"/>
	<path class="st0" d="M231.3,728.4v-36.1h3.9v36.1H231.3z"/>
	<path class="st0" d="M249.5,725c-2.2,2.3-4.9,3.4-8.1,3.4v-4c2.1,0,3.9-0.7,5.3-2.2c1.5-1.5,2.2-3.3,2.2-5.3c0-0.2,0-0.3,0-0.5
		c0-0.1,0-0.3,0-0.4c-0.1-0.8-0.3-1.6-0.6-2.4s-0.8-1.4-1.5-2c-0.8-0.7-1.7-1.5-2.5-2.2c-0.9-0.8-1.7-1.5-2.6-2.2
		c-0.9-0.8-1.6-1.8-2-2.9c-0.4-1.1-0.7-2.2-0.7-3.4c0-2.4,0.9-4.4,2.6-6.1s3.8-2.6,6.2-2.6v4c-1.3,0-2.4,0.5-3.4,1.4s-1.4,2-1.4,3.3
		c0,0.1,0,0.2,0,0.3c0,0.1,0,0.2,0,0.3c0,0.5,0.1,1,0.3,1.5c0.2,0.5,0.5,0.9,0.9,1.2c0.9,0.7,1.7,1.5,2.6,2.2
		c0.9,0.7,1.7,1.5,2.6,2.2c1.1,1,2,2.2,2.5,3.6c0.6,1.4,0.9,2.8,0.9,4.3c0,0.1,0,0.1,0,0.2s0,0.1,0,0.2
		C252.9,720,251.8,722.7,249.5,725z"/>
	<path class="st0" d="M263.2,696.2v32.2h-3.9v-32.2h-7.1v-4h18.1v4H263.2z"/>
	<path class="st0" d="M274.4,728.4v-36.1h3.9v36.1H274.4z"/>
	<path class="st0" d="M294.8,728.4v-27.5c-1.2-1.2-2.5-2.2-4.1-3c-1.5-0.8-3.1-1.3-4.8-1.5v32h-4v-36.1c0.4,0,0.7,0,1,0
		c0.3,0,0.7,0,1,0c2,0,3.9,0.3,5.7,0.9c1.9,0.6,3.6,1.4,5.1,2.6v-3.5h3.9v36.1H294.8z"/>
	<path class="st0" d="M321.6,728.4c-0.3,0-0.7,0-1,0c-4.9-0.1-9.1-1.9-12.6-5.4c-3.5-3.5-5.2-7.7-5.2-12.7c0-4.9,1.7-9.1,5.1-12.6
		s7.6-5.3,12.5-5.5v4c-3.8,0.1-7,1.5-9.7,4.2c-2.7,2.7-4,6-4,9.8c0,3.5,1.1,6.5,3.4,9.2c2.3,2.7,5.1,4.3,8.5,4.8v-19.6h-5.5v-4h9.5
		v27.7C322.2,728.4,321.9,728.4,321.6,728.4z"/>
	<path class="st0" d="M337.1,725c-2.2,2.3-4.9,3.4-8.1,3.4v-4c2.1,0,3.9-0.7,5.3-2.2c1.5-1.5,2.2-3.3,2.2-5.3c0-0.2,0-0.3,0-0.5
		c0-0.1,0-0.3,0-0.4c-0.1-0.8-0.3-1.6-0.6-2.4s-0.8-1.4-1.5-2c-0.8-0.7-1.7-1.5-2.5-2.2c-0.9-0.8-1.7-1.5-2.6-2.2
		c-0.9-0.8-1.6-1.8-2-2.9c-0.4-1.1-0.7-2.2-0.7-3.4c0-2.4,0.9-4.4,2.6-6.1s3.8-2.6,6.2-2.6v4c-1.3,0-2.4,0.5-3.4,1.4s-1.4,2-1.4,3.3
		c0,0.1,0,0.2,0,0.3c0,0.1,0,0.2,0,0.3c0,0.5,0.1,1,0.3,1.5c0.2,0.5,0.5,0.9,0.9,1.2c0.9,0.7,1.7,1.5,2.6,2.2
		c0.9,0.7,1.7,1.5,2.6,2.2c1.1,1,2,2.2,2.5,3.6c0.6,1.4,0.9,2.8,0.9,4.3c0,0.1,0,0.1,0,0.2s0,0.1,0,0.2
		C340.5,720,339.3,722.7,337.1,725z"/>
	<path class="st0" d="M374.3,715.5c-2.5,2.7-5.5,4.2-9.1,4.4v8.5h-4v-36.1c0.3,0,0.5,0,0.7,0s0.5,0,0.7,0c0.3,0,0.5,0,0.7,0
		s0.5,0,0.7,0c3.8,0,7.1,1.4,9.8,4.1s4.1,6,4.1,9.8C378,709.7,376.8,712.8,374.3,715.5z M371.5,699.5c-1.7-1.9-3.8-2.9-6.3-3.2v19.6
		c2.5-0.3,4.6-1.3,6.3-3.2c1.7-1.9,2.6-4.1,2.6-6.6C374.1,703.6,373.2,701.3,371.5,699.5z"/>
	<path class="st0" d="M401.3,728.4l-2.7-8.8h-12.5l-2.7,8.8h-4.2l2.8-8.8h-2.1v-4.1h3.4l7.2-23.1h3.7l11.2,36H401.3z M392.3,699.6
		l-4.9,15.8h9.9L392.3,699.6z"/>
	<path class="st0" d="M425,728.4c-0.3,0-0.7,0-1,0c-4.9-0.1-9.1-1.9-12.6-5.4c-3.5-3.5-5.2-7.7-5.2-12.7c0-4.9,1.7-9.1,5.1-12.6
		s7.6-5.3,12.5-5.5v4c-3.8,0.1-7,1.5-9.7,4.2c-2.7,2.7-4,6-4,9.8c0,3.5,1.1,6.5,3.4,9.2c2.3,2.7,5.1,4.3,8.5,4.8v-19.6h-5.5v-4h9.5
		v27.7C425.6,728.4,425.3,728.4,425,728.4z"/>
	<path class="st0" d="M437.9,723c-3.5-3.5-5.3-7.8-5.3-12.7c0-0.9,0-1.9,0-2.8c0-0.9,0-1.9,0-2.8h-2.3v-4h2.3v-8.4h17.6v4h-13.6v4.5
		h13.8v4h-13.8c0,0.9,0,1.9,0,2.8c0,0.9,0,1.9,0,2.8c0,3.8,1.3,7.1,4,9.9c2.7,2.8,6,4.2,9.8,4.2v4
		C445.6,728.4,441.4,726.5,437.9,723z"/>
	<path class="st0" d="M465.1,725c-2.2,2.3-4.9,3.4-8.1,3.4v-4c2.1,0,3.9-0.7,5.3-2.2c1.5-1.5,2.2-3.3,2.2-5.3c0-0.2,0-0.3,0-0.5
		c0-0.1,0-0.3,0-0.4c-0.1-0.8-0.3-1.6-0.6-2.4s-0.8-1.4-1.5-2c-0.8-0.7-1.7-1.5-2.5-2.2c-0.9-0.8-1.7-1.5-2.6-2.2
		c-0.9-0.8-1.6-1.8-2-2.9c-0.4-1.1-0.7-2.2-0.7-3.4c0-2.4,0.9-4.4,2.6-6.1s3.8-2.6,6.2-2.6v4c-1.3,0-2.4,0.5-3.4,1.4s-1.4,2-1.4,3.3
		c0,0.1,0,0.2,0,0.3c0,0.1,0,0.2,0,0.3c0,0.5,0.1,1,0.3,1.5c0.2,0.5,0.5,0.9,0.9,1.2c0.9,0.7,1.7,1.5,2.6,2.2
		c0.9,0.7,1.7,1.5,2.6,2.2c1.1,1,2,2.2,2.5,3.6c0.6,1.4,0.9,2.8,0.9,4.3c0,0.1,0,0.1,0,0.2s0,0.1,0,0.2
		C468.4,720,467.3,722.7,465.1,725z"/>
</g>
</svg>
