<!-- Generator: Adobe Illustrator 19.2.1, SVG Export Plug-In  -->
<svg version="1.1"
	 xmlns="http://www.w3.org/2000/svg" xmlns:xlink="http://www.w3.org/1999/xlink" xmlns:a="http://ns.adobe.com/AdobeSVGViewerExtensions/3.0/"
	 x="0px" y="0px" width="566.6px" height="842.5px" viewBox="0 0 566.6 842.5" style="enable-background:new 0 0 566.6 842.5;"
	 xml:space="preserve">
<style type="text/css">
	.st0{fill:#FFFFFF;}
</style>
<defs>
</defs>
<g>
	<path class="st0" d="M8.6,35c-1.7,0.7-3.5,1.1-5.4,1.1c-0.3,0-0.5,0-0.7,0c-0.2,0-0.5,0-0.7,0c-0.3,0-0.5,0-0.7,0
		c-0.2,0-0.5,0-0.7,0V0C0.5,0,0.8,0,1,0c0.2,0,0.5,0,0.7,0C2,0,2.3,0,2.5,0C2.8,0,3,0,3.3,0c1.8,0,3.3,0.6,4.4,1.9
		c1.2,1.3,1.8,2.7,1.8,4.3c0,0.5-0.1,1.1-0.2,1.6C9.1,8.4,8.8,9,8.5,9.5c2.8,1.1,4.9,2.9,6.4,5.3c1.5,2.4,2.2,4.9,2.2,7.6
		c0,0.2,0,0.4,0,0.6c0,0.2,0,0.4,0,0.6c-0.2,1.5-0.6,3-1.2,4.5c-0.6,1.5-1.6,2.8-2.8,4C11.8,33.3,10.3,34.3,8.6,35z M5.2,7.4
		C5.4,7,5.5,6.6,5.5,6.2c0-0.4-0.1-0.8-0.3-1.2C5,4.7,4.7,4.4,4.3,4.2v4.1C4.7,8,5,7.7,5.2,7.4z M10.6,15.7c-1.7-1.9-3.8-3-6.3-3.2
		v19.6c2.5-0.3,4.6-1.3,6.3-3.2s2.6-4.1,2.6-6.6C13.2,19.8,12.3,17.6,10.6,15.7z"/>
	<path class="st0" d="M31.1,34.5c-2.3-1.1-4.3-2.5-6-4.4v6h-3.9V0c0.3,0,0.5,0,0.7,0c0.2,0,0.5,0,0.7,0c0.2,0,0.5,0,0.7,0
		s0.5,0,0.7,0c3.8,0,7.1,1.4,9.8,4.1c2.7,2.7,4.1,6,4.1,9.8c0,3.1-1,5.9-2.9,8.4c-1.9,2.5-4.4,4.1-7.3,4.9c1.3,1.6,2.8,2.8,4.7,3.7
		c1.8,0.9,3.8,1.3,5.9,1.3v4C35.8,36.1,33.4,35.6,31.1,34.5z M31.4,7.2c-1.7-1.9-3.8-2.9-6.3-3.2v19.6c2.5-0.3,4.6-1.3,6.3-3.2
		s2.6-4.1,2.6-6.6S33.1,9.1,31.4,7.2z"/>
	<path class="st0" d="M64.8,36.1l-2.7-8.8H49.6l-2.7,8.8h-4.2l2.8-8.8h-2.1v-4.1h3.4L54,0.1h3.7l11.2,36H64.8z M55.8,7.4l-4.9,15.8
		h9.9L55.8,7.4z"/>
	<path class="st0" d="M86,36.1V8.6c-1.2-1.2-2.5-2.2-4.1-3c-1.5-0.8-3.1-1.3-4.8-1.5v32h-4V0c0.4,0,0.7,0,1,0c0.3,0,0.7,0,1,0
		c2,0,3.9,0.3,5.7,0.9c1.9,0.6,3.6,1.4,5.1,2.6V0H90v36.1H86z"/>
	<path class="st0" d="M108.6,30.7c-3.5,3.5-7.7,5.3-12.6,5.4c-0.2,0-0.3,0-0.5,0c-0.2,0-0.3,0-0.5,0c-0.2,0-0.4,0-0.5,0
		s-0.3,0-0.5,0V0c0.2,0,0.3,0,0.5,0s0.3,0,0.5,0c0.2,0,0.3,0,0.5,0c0.2,0,0.3,0,0.5,0c4.9,0.1,9.1,1.9,12.6,5.4
		c3.5,3.5,5.2,7.7,5.2,12.6C113.8,23,112,27.2,108.6,30.7z M106.4,8.9c-2.2-2.7-5.1-4.3-8.5-4.8V32c3.4-0.5,6.3-2.1,8.5-4.8
		c2.2-2.7,3.4-5.7,3.4-9.2C109.8,14.6,108.7,11.6,106.4,8.9z"/>
	<path class="st0" d="M145.3,11.1v25.1h-3.9V11.1l-8-11.1h4.8l5.1,7.1l5.1-7.1h4.8L145.3,11.1z"/>
	<path class="st0" d="M182.5,30.8c-3.5,3.5-7.8,5.3-12.7,5.3c-5,0-9.2-1.8-12.7-5.3c-3.5-3.5-5.3-7.8-5.3-12.8c0-5,1.8-9.2,5.3-12.7
		c3.5-3.5,7.8-5.3,12.7-5.3c5,0,9.2,1.8,12.7,5.3c3.5,3.5,5.3,7.8,5.3,12.7C187.8,23,186.1,27.3,182.5,30.8z M179.8,8.1
		c-2.8-2.8-6.1-4.1-10-4.1c-3.9,0-7.2,1.4-10,4.1c-2.8,2.8-4.2,6.1-4.2,9.9c0,3.9,1.4,7.2,4.2,10c2.8,2.8,6.1,4.2,10,4.2
		c3.9,0,7.2-1.4,10-4.2c2.8-2.8,4.1-6.1,4.1-10C183.9,14.2,182.5,10.9,179.8,8.1z"/>
	<path class="st0" d="M207.7,33.4c-1.8,1.8-4,2.8-6.6,2.8c-2.6,0-4.8-0.9-6.6-2.8c-1.8-1.8-2.8-4-2.8-6.6V0h4c0,4.4,0,8.9,0,13.4
		c0,4.5,0,8.9,0,13.4c0,1.5,0.5,2.7,1.6,3.8c1.1,1.1,2.3,1.6,3.8,1.6c1.5,0,2.8-0.5,3.8-1.6c1.1-1.1,1.6-2.3,1.6-3.8V0h3.9
		c0,4.4,0,8.9,0,13.4c0,4.5,0,8.9,0,13.4C210.4,29.3,209.5,31.5,207.7,33.4z"/>
	<path class="st0" d="M224.5,34.5c-2.3-1.1-4.3-2.5-6-4.4v6h-3.9V0c0.3,0,0.5,0,0.7,0c0.2,0,0.5,0,0.7,0c0.2,0,0.5,0,0.7,0
		s0.5,0,0.7,0c3.8,0,7.1,1.4,9.8,4.1c2.7,2.7,4.1,6,4.1,9.8c0,3.1-1,5.9-2.9,8.4c-1.9,2.5-4.4,4.1-7.3,4.9c1.3,1.6,2.8,2.8,4.7,3.7
		c1.8,0.9,3.8,1.3,5.9,1.3v4C229.3,36.1,226.8,35.6,224.5,34.5z M224.9,7.2c-1.7-1.9-3.8-2.9-6.3-3.2v19.6c2.5-0.3,4.6-1.3,6.3-3.2
		s2.6-4.1,2.6-6.6S226.6,9.1,224.9,7.2z"/>
	<path class="st0" d="M257.9,30.8c-3.5-3.5-5.3-7.8-5.3-12.8c0-5,1.8-9.2,5.3-12.7c3.5-3.5,7.8-5.3,12.7-5.3v4
		c-3.9,0-7.2,1.4-10,4.1c-2.8,2.8-4.2,6.1-4.2,9.9c0,3.9,1.4,7.2,4.2,10c2.8,2.8,6.1,4.2,10,4.2v4C265.7,36.1,261.4,34.4,257.9,30.8
		z"/>
	<path class="st0" d="M303.6,30.8c-3.5,3.5-7.8,5.3-12.7,5.3c-5,0-9.2-1.8-12.7-5.3c-3.5-3.5-5.3-7.8-5.3-12.8c0-5,1.8-9.2,5.3-12.7
		c3.5-3.5,7.8-5.3,12.7-5.3c5,0,9.2,1.8,12.7,5.3c3.5,3.5,5.3,7.8,5.3,12.7C308.9,23,307.1,27.3,303.6,30.8z M300.8,8.1
		c-2.8-2.8-6.1-4.1-10-4.1c-3.9,0-7.2,1.4-10,4.1c-2.8,2.8-4.2,6.1-4.2,9.9c0,3.9,1.4,7.2,4.2,10c2.8,2.8,6.1,4.2,10,4.2
		c3.9,0,7.2-1.4,10-4.2c2.8-2.8,4.1-6.1,4.1-10C304.9,14.2,303.6,10.9,300.8,8.1z"/>
	<path class="st0" d="M325.2,36.1V8.6c-1.2-1.2-2.5-2.2-4.1-3c-1.5-0.8-3.1-1.3-4.8-1.5v32h-4V0c0.4,0,0.7,0,1,0c0.3,0,0.7,0,1,0
		c2,0,3.9,0.3,5.7,0.9c1.9,0.6,3.6,1.4,5.1,2.6V0h3.9v36.1H325.2z"/>
	<path class="st0" d="M339.6,12.4v23.7h-3.9V12.4h-2.5v-4h2.5V0h15.8v4h-11.9v4.5h12.3v4H339.6z"/>
	<path class="st0" d="M362.9,30.7c-3.5-3.5-5.3-7.8-5.3-12.7c0-0.9,0-1.9,0-2.8s0-1.9,0-2.8h-2.3v-4h2.3V0h17.6v4h-13.6v4.5h13.8v4
		h-13.8c0,0.9,0,1.9,0,2.8s0,1.9,0,2.8c0,3.8,1.3,7.1,4,9.9c2.7,2.8,6,4.2,9.8,4.2v4C370.7,36.1,366.5,34.3,362.9,30.7z"/>
	<path class="st0" d="M389.7,34.5c-2.3-1.1-4.3-2.5-6-4.4v6h-3.9V0c0.3,0,0.5,0,0.7,0s0.5,0,0.7,0c0.2,0,0.5,0,0.7,0
		c0.3,0,0.5,0,0.7,0c3.8,0,7.1,1.4,9.8,4.1c2.7,2.7,4.1,6,4.1,9.8c0,3.1-1,5.9-2.9,8.4c-1.9,2.5-4.4,4.1-7.3,4.9
		c1.3,1.6,2.8,2.8,4.7,3.7c1.8,0.9,3.8,1.3,5.9,1.3v4C394.4,36.1,392,35.6,389.7,34.5z M390.1,7.2c-1.7-1.9-3.8-2.9-6.3-3.2v19.6
		c2.5-0.3,4.6-1.3,6.3-3.2s2.6-4.1,2.6-6.6S391.8,9.1,390.1,7.2z"/>
	<path class="st0" d="M408.3,30.7C404.8,27.2,403,23,403,18c0-0.9,0-1.9,0-2.8s0-1.9,0-2.8h-2.3v-4h2.3V0h17.6v4H407v4.5h13.8v4H407
		c0,0.9,0,1.9,0,2.8s0,1.9,0,2.8c0,3.8,1.3,7.1,4,9.9c2.7,2.8,6,4.2,9.8,4.2v4C416,36.1,411.8,34.3,408.3,30.7z"/>
	<path class="st0" d="M437.6,36.1V8.6c-1.2-1.2-2.5-2.2-4.1-3c-1.5-0.8-3.1-1.3-4.8-1.5v32h-4V0c0.4,0,0.7,0,1,0c0.3,0,0.7,0,1,0
		c2,0,3.9,0.3,5.7,0.9c1.9,0.6,3.6,1.4,5.1,2.6V0h3.9v36.1H437.6z"/>
	<path class="st0" d="M450.8,30.8c-3.5-3.5-5.3-7.8-5.3-12.8c0-5,1.8-9.2,5.3-12.7c3.5-3.5,7.8-5.3,12.7-5.3v4
		c-3.9,0-7.2,1.4-10,4.1c-2.8,2.8-4.2,6.1-4.2,9.9c0,3.9,1.4,7.2,4.2,10c2.8,2.8,6.1,4.2,10,4.2v4C458.6,36.1,454.3,34.4,450.8,30.8
		z"/>
	<path class="st0" d="M473.8,30.7c-3.5-3.5-5.3-7.8-5.3-12.7c0-0.9,0-1.9,0-2.8s0-1.9,0-2.8h-2.3v-4h2.3V0h17.6v4h-13.6v4.5h13.8v4
		h-13.8c0,0.9,0,1.9,0,2.8s0,1.9,0,2.8c0,3.8,1.3,7.1,4,9.9c2.7,2.8,6,4.2,9.8,4.2v4C481.5,36.1,477.3,34.3,473.8,30.7z"/>
	<path class="st0" d="M16.4,206.2c-1.8,1.8-4,2.8-6.6,2.8c-2.6,0-4.8-0.9-6.6-2.8c-1.8-1.8-2.8-4-2.8-6.6v-26.8h4
		c0,4.4,0,8.9,0,13.4c0,4.5,0,8.9,0,13.4c0,1.5,0.5,2.7,1.6,3.8c1.1,1.1,2.3,1.6,3.8,1.6c1.5,0,2.8-0.5,3.8-1.6
		c1.1-1.1,1.6-2.3,1.6-3.8v-26.8h3.9c0,4.4,0,8.9,0,13.4c0,4.5,0,8.9,0,13.4C19.1,202.1,18.2,204.3,16.4,206.2z"/>
	<path class="st0" d="M33.6,205.5c-2.2,2.3-4.9,3.4-8.1,3.4v-4c2.1,0,3.9-0.7,5.3-2.2c1.5-1.5,2.2-3.3,2.2-5.3c0-0.2,0-0.3,0-0.5
		s0-0.3,0-0.4c-0.1-0.8-0.3-1.6-0.6-2.4c-0.3-0.8-0.8-1.4-1.5-2c-0.8-0.7-1.7-1.5-2.5-2.2c-0.9-0.8-1.7-1.5-2.6-2.2
		c-0.9-0.8-1.6-1.8-2-2.9c-0.4-1.1-0.7-2.2-0.7-3.4c0-2.4,0.9-4.4,2.6-6.1c1.7-1.7,3.8-2.6,6.2-2.6v4c-1.3,0-2.4,0.5-3.4,1.4
		s-1.4,2-1.4,3.3c0,0.1,0,0.2,0,0.3s0,0.2,0,0.3c0,0.5,0.1,1,0.3,1.5c0.2,0.5,0.5,0.9,0.9,1.2c0.9,0.7,1.7,1.5,2.6,2.2
		c0.9,0.7,1.7,1.5,2.6,2.2c1.1,1,2,2.2,2.5,3.6c0.6,1.4,0.9,2.8,0.9,4.3c0,0.1,0,0.1,0,0.2c0,0.1,0,0.1,0,0.2
		C37,200.6,35.9,203.3,33.6,205.5z"/>
	<path class="st0" d="M46.8,203.5c-3.5-3.5-5.3-7.8-5.3-12.7c0-0.9,0-1.9,0-2.8s0-1.9,0-2.8h-2.3v-4h2.3v-8.4h17.6v4H45.5v4.5h13.8
		v4H45.5c0,0.9,0,1.9,0,2.8s0,1.9,0,2.8c0,3.8,1.3,7.1,4,9.9c2.7,2.8,6,4.2,9.8,4.2v4C54.5,208.9,50.3,207.1,46.8,203.5z"/>
	<path class="st0" d="M90.8,205.5c-2.2,2.3-4.9,3.4-8.1,3.4v-4c2.1,0,3.9-0.7,5.3-2.2c1.5-1.5,2.2-3.3,2.2-5.3c0-0.2,0-0.3,0-0.5
		s0-0.3,0-0.4c-0.1-0.8-0.3-1.6-0.6-2.4c-0.3-0.8-0.8-1.4-1.5-2c-0.8-0.7-1.7-1.5-2.5-2.2c-0.9-0.8-1.7-1.5-2.6-2.2
		c-0.9-0.8-1.6-1.8-2-2.9s-0.7-2.2-0.7-3.4c0-2.4,0.9-4.4,2.6-6.1c1.7-1.7,3.8-2.6,6.2-2.6v4c-1.3,0-2.4,0.5-3.4,1.4
		c-0.9,0.9-1.4,2-1.4,3.3c0,0.1,0,0.2,0,0.3s0,0.2,0,0.3c0,0.5,0.1,1,0.3,1.5c0.2,0.5,0.5,0.9,0.9,1.2c0.9,0.7,1.7,1.5,2.6,2.2
		c0.9,0.7,1.7,1.5,2.6,2.2c1.1,1,2,2.2,2.5,3.6c0.6,1.4,0.9,2.8,0.9,4.3c0,0.1,0,0.1,0,0.2c0,0.1,0,0.1,0,0.2
		C94.1,200.6,93,203.3,90.8,205.5z"/>
	<path class="st0" d="M128.8,203.6c-3.5,3.5-7.8,5.3-12.7,5.3c-5,0-9.2-1.8-12.7-5.3c-3.5-3.5-5.3-7.8-5.3-12.8
		c0-5,1.8-9.2,5.3-12.7c3.5-3.5,7.8-5.3,12.7-5.3c5,0,9.2,1.8,12.7,5.3c3.5,3.5,5.3,7.8,5.3,12.7
		C134.1,195.8,132.3,200.1,128.8,203.6z M126,180.9c-2.8-2.8-6.1-4.1-10-4.1c-3.9,0-7.2,1.4-10,4.1c-2.8,2.8-4.2,6.1-4.2,9.9
		c0,3.9,1.4,7.2,4.2,10c2.8,2.8,6.1,4.2,10,4.2c3.9,0,7.2-1.4,10-4.2c2.8-2.8,4.1-6.1,4.1-10C130.2,187,128.8,183.7,126,180.9z"/>
	<path class="st0" d="M143.3,203.6c-3.5-3.5-5.3-7.8-5.3-12.8c0-5,1.8-9.2,5.3-12.7c3.5-3.5,7.8-5.3,12.7-5.3v4
		c-3.9,0-7.2,1.4-10,4.1c-2.8,2.8-4.2,6.1-4.2,9.9c0,3.9,1.4,7.2,4.2,10c2.8,2.8,6.1,4.2,10,4.2v4
		C151.1,208.9,146.8,207.2,143.3,203.6z"/>
	<path class="st0" d="M160.6,208.9v-36.1h3.9v36.1H160.6z"/>
	<path class="st0" d="M191.1,208.9l-2.7-8.8h-12.5l-2.7,8.8H169l2.8-8.8h-2.1V196h3.4l7.2-23.1h3.7l11.2,36H191.1z M182.2,180.2
		l-4.9,15.8h9.9L182.2,180.2z"/>
	<path class="st0" d="M199.8,208.9v-36.1h4V205h11.6v4H199.8z"/>
	<path class="st0" d="M248.7,208.9v-27.5c-1.2-1.2-2.5-2.2-4.1-3c-1.5-0.8-3.1-1.3-4.8-1.5v32h-4v-36.1c0.4,0,0.7,0,1,0s0.7,0,1,0
		c2,0,3.9,0.3,5.7,0.9c1.9,0.6,3.6,1.4,5.1,2.6v-3.5h3.9v36.1H248.7z"/>
	<path class="st0" d="M264.2,203.5c-3.5-3.5-5.3-7.8-5.3-12.7c0-0.9,0-1.9,0-2.8s0-1.9,0-2.8h-2.3v-4h2.3v-8.4h17.6v4h-13.6v4.5
		h13.8v4h-13.8c0,0.9,0,1.9,0,2.8s0,1.9,0,2.8c0,3.8,1.3,7.1,4,9.9c2.7,2.8,6,4.2,9.8,4.2v4C271.9,208.9,267.7,207.1,264.2,203.5z"
		/>
	<path class="st0" d="M292.2,176.8v32.2h-3.9v-32.2h-7.1v-4h18.1v4H292.2z"/>
	<path class="st0" d="M328.7,208.9l-3.8,0l-4.5-15.8L316,209l-3.8,0l-9-36.1h4.1l6.9,28.3l4.5-15.6h3.8l4.5,15.6l6.9-28.3h4.1
		L328.7,208.9z"/>
	<path class="st0" d="M370.9,203.6c-3.5,3.5-7.8,5.3-12.7,5.3c-5,0-9.2-1.8-12.7-5.3c-3.5-3.5-5.3-7.8-5.3-12.8
		c0-5,1.8-9.2,5.3-12.7c3.5-3.5,7.8-5.3,12.7-5.3c5,0,9.2,1.8,12.7,5.3c3.5,3.5,5.3,7.8,5.3,12.7
		C376.2,195.8,374.4,200.1,370.9,203.6z M368.1,180.9c-2.8-2.8-6.1-4.1-10-4.1c-3.9,0-7.2,1.4-10,4.1c-2.8,2.8-4.2,6.1-4.2,9.9
		c0,3.9,1.4,7.2,4.2,10c2.8,2.8,6.1,4.2,10,4.2c3.9,0,7.2-1.4,10-4.2c2.8-2.8,4.1-6.1,4.1-10C372.2,187,370.9,183.7,368.1,180.9z"/>
	<path class="st0" d="M389.9,207.3c-2.3-1.1-4.3-2.5-6-4.4v6H380v-36.1c0.3,0,0.5,0,0.7,0c0.2,0,0.5,0,0.7,0c0.2,0,0.5,0,0.7,0
		s0.5,0,0.7,0c3.8,0,7.1,1.4,9.8,4.1c2.7,2.7,4.1,6,4.1,9.8c0,3.1-1,5.9-2.9,8.4c-1.9,2.5-4.4,4.1-7.3,4.9c1.3,1.6,2.8,2.8,4.7,3.7
		c1.8,0.9,3.8,1.3,5.9,1.3v4C394.6,208.9,392.2,208.4,389.9,207.3z M390.3,180c-1.7-1.9-3.8-2.9-6.3-3.2v19.6
		c2.5-0.3,4.6-1.3,6.3-3.2s2.6-4.1,2.6-6.6S392,181.9,390.3,180z"/>
	<path class="st0" d="M419,208.9l-10.2-26l-3.5,3.9v22.1h-3.9v-36.1h3.9v8.2l7.4-8.2h5.3l-6.2,6.9l11.5,29.2H419z"/>
	<path class="st0" d="M426.4,208.9v-36.1h3.9v36.1H426.4z"/>
	<path class="st0" d="M446.8,208.9v-27.5c-1.2-1.2-2.5-2.2-4.1-3c-1.5-0.8-3.1-1.3-4.8-1.5v32h-4v-36.1c0.4,0,0.7,0,1,0s0.7,0,1,0
		c2,0,3.9,0.3,5.7,0.9c1.9,0.6,3.6,1.4,5.1,2.6v-3.5h3.9v36.1H446.8z"/>
	<path class="st0" d="M473.6,208.9c-0.3,0-0.7,0-1,0c-4.9-0.1-9.1-1.9-12.6-5.4c-3.5-3.5-5.2-7.7-5.2-12.7c0-4.9,1.7-9.1,5.1-12.6
		c3.4-3.5,7.6-5.3,12.5-5.5v4c-3.8,0.1-7,1.5-9.7,4.2c-2.7,2.7-4,6-4,9.8c0,3.5,1.1,6.5,3.4,9.2c2.3,2.7,5.1,4.3,8.5,4.8v-19.6h-5.5
		v-4h9.5v27.7C474.2,208.9,473.9,208.9,473.6,208.9z"/>
	<path class="st0" d="M10.7,378.3c-2.2,2.3-4.9,3.4-8.1,3.4v-4c2.1,0,3.9-0.7,5.3-2.2c1.5-1.5,2.2-3.3,2.2-5.3c0-0.2,0-0.3,0-0.5
		s0-0.3,0-0.4c-0.1-0.8-0.3-1.6-0.6-2.4c-0.3-0.8-0.8-1.4-1.5-2c-0.8-0.7-1.7-1.5-2.5-2.2c-0.9-0.8-1.7-1.5-2.6-2.2
		c-0.9-0.8-1.6-1.8-2-2.9c-0.4-1.1-0.7-2.2-0.7-3.4c0-2.4,0.9-4.4,2.6-6.1c1.7-1.7,3.8-2.6,6.2-2.6v4c-1.3,0-2.4,0.5-3.4,1.4
		s-1.4,2-1.4,3.3c0,0.1,0,0.2,0,0.3s0,0.2,0,0.3c0,0.5,0.1,1,0.3,1.5c0.2,0.5,0.5,0.9,0.9,1.2c0.9,0.7,1.7,1.5,2.6,2.2
		c0.9,0.7,1.7,1.5,2.6,2.2c1.1,1,2,2.2,2.5,3.6c0.6,1.4,0.9,2.8,0.9,4.3c0,0.1,0,0.1,0,0.2c0,0.1,0,0.1,0,0.2
		C14,373.4,12.9,376.1,10.7,378.3z"/>
	<path class="st0" d="M23.8,376.3c-3.5-3.5-5.3-7.8-5.3-12.7c0-0.9,0-1.9,0-2.8s0-1.9,0-2.8h-2.3v-4h2.3v-8.4h17.6v4H22.5v4.5h13.8
		v4H22.5c0,0.9,0,1.9,0,2.8s0,1.9,0,2.8c0,3.8,1.3,7.1,4,9.9c2.7,2.8,6,4.2,9.8,4.2v4C31.5,381.7,27.3,379.9,23.8,376.3z"/>
	<path class="st0" d="M53.1,381.7v-27.5c-1.2-1.2-2.5-2.2-4.1-3c-1.5-0.8-3.1-1.3-4.8-1.5v32h-4v-36.1c0.4,0,0.7,0,1,0
		c0.3,0,0.7,0,1,0c2,0,3.9,0.3,5.7,0.9c1.9,0.6,3.6,1.4,5.1,2.6v-3.5h3.9v36.1H53.1z"/>
	<path class="st0" d="M75.7,376.3c-3.5,3.5-7.7,5.3-12.6,5.4c-0.2,0-0.3,0-0.5,0s-0.3,0-0.5,0c-0.2,0-0.4,0-0.5,0s-0.3,0-0.5,0
		v-36.1c0.2,0,0.3,0,0.5,0s0.3,0,0.5,0c0.2,0,0.3,0,0.5,0s0.3,0,0.5,0c4.9,0.1,9.1,1.9,12.6,5.4c3.5,3.5,5.2,7.7,5.2,12.6
		C80.9,368.6,79.1,372.8,75.7,376.3z M73.5,354.5c-2.2-2.7-5.1-4.3-8.5-4.8v27.9c3.4-0.5,6.3-2.1,8.5-4.8c2.2-2.7,3.4-5.7,3.4-9.2
		C76.9,360.2,75.8,357.2,73.5,354.5z"/>
	<path class="st0" d="M131.9,376.4c-3.5,3.5-7.8,5.3-12.7,5.3c-5,0-9.2-1.8-12.7-5.3c-3.5-3.5-5.3-7.8-5.3-12.8
		c0-5,1.8-9.2,5.3-12.7c3.5-3.5,7.8-5.3,12.7-5.3c5,0,9.2,1.8,12.7,5.3c3.5,3.5,5.3,7.8,5.3,12.7
		C137.2,368.6,135.5,372.9,131.9,376.4z M129.2,353.7c-2.8-2.8-6.1-4.1-10-4.1c-3.9,0-7.2,1.4-10,4.1c-2.8,2.8-4.2,6.1-4.2,9.9
		c0,3.9,1.4,7.2,4.2,10c2.8,2.8,6.1,4.2,10,4.2c3.9,0,7.2-1.4,10-4.2c2.8-2.8,4.1-6.1,4.1-10C133.3,359.8,131.9,356.5,129.2,353.7z"
		/>
	<path class="st0" d="M157.1,379c-1.8,1.8-4,2.8-6.6,2.8c-2.6,0-4.8-0.9-6.6-2.8c-1.8-1.8-2.8-4-2.8-6.6v-26.8h4c0,4.4,0,8.9,0,13.4
		c0,4.5,0,8.9,0,13.4c0,1.5,0.5,2.7,1.6,3.8c1.1,1.1,2.3,1.6,3.8,1.6c1.5,0,2.8-0.5,3.8-1.6c1.1-1.1,1.6-2.3,1.6-3.8v-26.8h3.9
		c0,4.4,0,8.9,0,13.4c0,4.5,0,8.9,0,13.4C159.8,374.9,158.9,377.1,157.1,379z"/>
	<path class="st0" d="M175.1,349.6v32.2h-3.9v-32.2h-7.1v-4h18.1v4H175.1z"/>
	<path class="st0" d="M210.9,376.3c-3.5-3.5-5.3-7.8-5.3-12.7c0-0.9,0-1.9,0-2.8s0-1.9,0-2.8h-2.3v-4h2.3v-8.4h17.6v4h-13.6v4.5
		h13.8v4h-13.8c0,0.9,0,1.9,0,2.8s0,1.9,0,2.8c0,3.8,1.3,7.1,4,9.9c2.7,2.8,6,4.2,9.8,4.2v4C218.6,381.7,214.4,379.9,210.9,376.3z"
		/>
	<path class="st0" d="M246.5,381.7v-29.1l-7.6,6l-7.6-6v29.1h-3.9v-37.2l11.5,9l11.5-9v37.2H246.5z"/>
	<path class="st0" d="M277.2,381.7l-2.7-8.8H262l-2.7,8.8h-4.2l2.8-8.8h-2.1v-4.1h3.4l7.2-23.1h3.7l11.2,36H277.2z M268.3,353
		l-4.9,15.8h9.9L268.3,353z"/>
	<path class="st0" d="M285.8,381.7v-36.1h3.9v36.1H285.8z"/>
	<path class="st0" d="M293.7,381.7v-36.1h4v32.2h11.6v4H293.7z"/>
	<path class="st0" d="M330,381.7v-36.1h3.9v36.1H330z"/>
	<path class="st0" d="M350.4,381.7v-27.5c-1.2-1.2-2.5-2.2-4.1-3c-1.5-0.8-3.1-1.3-4.8-1.5v32h-4v-36.1c0.4,0,0.7,0,1,0s0.7,0,1,0
		c2,0,3.9,0.3,5.7,0.9c1.9,0.6,3.6,1.4,5.1,2.6v-3.5h3.9v36.1H350.4z"/>
	<path class="st0" d="M372.5,381.7h-3.7l-11.4-36.1h4.2l9.1,29.4l9.1-29.4h4.2L372.5,381.7z"/>
	<path class="st0" d="M387.2,381.7v-36.1h3.9v36.1H387.2z"/>
	<path class="st0" d="M406.2,349.6v32.2h-3.9v-32.2h-7.1v-4h18.1v4H406.2z"/>
	<path class="st0" d="M434.2,381.7l-2.7-8.8H419l-2.7,8.8h-4.2l2.8-8.8h-2.1v-4.1h3.4l7.2-23.1h3.7l11.2,36H434.2z M425.3,353
		l-4.9,15.8h9.9L425.3,353z"/>
	<path class="st0" d="M448.3,349.6v32.2h-3.9v-32.2h-7.1v-4h18.1v4H448.3z"/>
	<path class="st0" d="M459.4,381.7v-36.1h3.9v36.1H459.4z"/>
	<path class="st0" d="M498.1,376.4c-3.5,3.5-7.8,5.3-12.7,5.3c-5,0-9.2-1.8-12.7-5.3c-3.5-3.5-5.3-7.8-5.3-12.8
		c0-5,1.8-9.2,5.3-12.7c3.5-3.5,7.8-5.3,12.7-5.3c5,0,9.2,1.8,12.7,5.3c3.5,3.5,5.3,7.8,5.3,12.7
		C503.4,368.6,501.6,372.9,498.1,376.4z M495.3,353.7c-2.8-2.8-6.1-4.1-10-4.1c-3.9,0-7.2,1.4-10,4.1c-2.8,2.8-4.2,6.1-4.2,9.9
		c0,3.9,1.4,7.2,4.2,10c2.8,2.8,6.1,4.2,10,4.2c3.9,0,7.2-1.4,10-4.2c2.8-2.8,4.1-6.1,4.1-10C499.4,359.8,498.1,356.5,495.3,353.7z"
		/>
	<path class="st0" d="M519.7,381.7v-27.5c-1.2-1.2-2.5-2.2-4.1-3c-1.5-0.8-3.1-1.3-4.8-1.5v32h-4v-36.1c0.4,0,0.7,0,1,0s0.7,0,1,0
		c2,0,3.9,0.3,5.7,0.9c1.9,0.6,3.6,1.4,5.1,2.6v-3.5h3.9v36.1H519.7z"/>
	<path class="st0" d="M537.8,378.3c-2.2,2.3-4.9,3.4-8.1,3.4v-4c2.1,0,3.9-0.7,5.3-2.2c1.5-1.5,2.2-3.3,2.2-5.3c0-0.2,0-0.3,0-0.5
		s0-0.3,0-0.4c-0.1-0.8-0.3-1.6-0.6-2.4c-0.3-0.8-0.8-1.4-1.5-2c-0.8-0.7-1.7-1.5-2.5-2.2c-0.9-0.8-1.7-1.5-2.6-2.2
		c-0.9-0.8-1.6-1.8-2-2.9c-0.4-1.1-0.7-2.2-0.7-3.4c0-2.4,0.9-4.4,2.6-6.1c1.7-1.7,3.8-2.6,6.2-2.6v4c-1.3,0-2.4,0.5-3.4,1.4
		s-1.4,2-1.4,3.3c0,0.1,0,0.2,0,0.3s0,0.2,0,0.3c0,0.5,0.1,1,0.3,1.5c0.2,0.5,0.5,0.9,0.9,1.2c0.9,0.7,1.7,1.5,2.6,2.2
		c0.9,0.7,1.7,1.5,2.6,2.2c1.1,1,2,2.2,2.5,3.6c0.6,1.4,0.9,2.8,0.9,4.3c0,0.1,0,0.1,0,0.2c0,0.1,0,0.1,0,0.2
		C541.2,373.4,540.1,376.1,537.8,378.3z"/>
	<path class="st0" d="M31,549.2c-3.5,3.5-7.8,5.3-12.7,5.3c-5,0-9.2-1.8-12.7-5.3c-3.5-3.5-5.3-7.8-5.3-12.8c0-5,1.8-9.2,5.3-12.7
		c3.5-3.5,7.8-5.3,12.7-5.3c5,0,9.2,1.8,12.7,5.3c3.5,3.5,5.3,7.8,5.3,12.7C36.3,541.4,34.6,545.7,31,549.2z M28.3,526.5
		c-2.8-2.8-6.1-4.1-10-4.1c-3.9,0-7.2,1.4-10,4.1c-2.8,2.8-4.2,6.1-4.2,9.9c0,3.9,1.4,7.2,4.2,10c2.8,2.8,6.1,4.2,10,4.2
		c3.9,0,7.2-1.4,10-4.2c2.8-2.8,4.1-6.1,4.1-10C32.4,532.6,31,529.3,28.3,526.5z"/>
	<path class="st0" d="M46.2,530.8v23.7h-3.9v-23.7h-2.5v-4h2.5v-8.4h15.8v4H46.2v4.5h12.3v4H46.2z"/>
	<path class="st0" d="M68.6,530.8v23.7h-3.9v-23.7h-2.5v-4h2.5v-8.4h15.8v4H68.6v4.5h12.3v4H68.6z"/>
	<path class="st0" d="M92,549.1c-3.5-3.5-5.3-7.8-5.3-12.7c0-0.9,0-1.9,0-2.8c0-0.9,0-1.9,0-2.8h-2.3v-4h2.3v-8.4h17.6v4H90.7v4.5
		h13.8v4H90.7c0,0.9,0,1.9,0,2.8c0,0.9,0,1.9,0,2.8c0,3.8,1.3,7.1,4,9.9c2.7,2.8,6,4.2,9.8,4.2v4C99.7,554.5,95.5,552.7,92,549.1z"
		/>
	<path class="st0" d="M118.8,552.9c-2.3-1.1-4.3-2.5-6-4.4v6h-3.9v-36.1c0.3,0,0.5,0,0.7,0c0.2,0,0.5,0,0.7,0c0.2,0,0.5,0,0.7,0
		s0.5,0,0.7,0c3.8,0,7.1,1.4,9.8,4.1c2.7,2.7,4.1,6,4.1,9.8c0,3.1-1,5.9-2.9,8.4c-1.9,2.5-4.4,4.1-7.3,4.9c1.3,1.6,2.8,2.8,4.7,3.7
		c1.8,0.9,3.8,1.3,5.9,1.3v4C123.5,554.5,121.1,554,118.8,552.9z M119.1,525.6c-1.7-1.9-3.8-2.9-6.3-3.2v19.6
		c2.5-0.3,4.6-1.3,6.3-3.2c1.7-1.9,2.6-4.1,2.6-6.6C121.7,529.7,120.8,527.5,119.1,525.6z"/>
	<path class="st0" d="M161.4,549.1c-3.5,3.5-7.7,5.3-12.6,5.4c-0.2,0-0.3,0-0.5,0c-0.2,0-0.3,0-0.5,0c-0.2,0-0.4,0-0.5,0
		s-0.3,0-0.5,0v-36.1c0.2,0,0.3,0,0.5,0s0.3,0,0.5,0c0.2,0,0.3,0,0.5,0c0.2,0,0.3,0,0.5,0c4.9,0.1,9.1,1.9,12.6,5.4
		c3.5,3.5,5.2,7.7,5.2,12.6C166.7,541.4,164.9,545.6,161.4,549.1z M159.3,527.3c-2.2-2.7-5.1-4.3-8.5-4.8v27.9
		c3.4-0.5,6.3-2.1,8.5-4.8s3.4-5.7,3.4-9.2C162.7,533,161.6,530,159.3,527.3z"/>
	<path class="st0" d="M170.1,554.5v-36.1h3.9v36.1H170.1z"/>
	<path class="st0" d="M188.4,551.1c-2.2,2.3-4.9,3.4-8.1,3.4v-4c2.1,0,3.9-0.7,5.3-2.2c1.5-1.5,2.2-3.3,2.2-5.3c0-0.2,0-0.3,0-0.5
		c0-0.1,0-0.3,0-0.4c-0.1-0.8-0.3-1.6-0.6-2.4c-0.3-0.8-0.8-1.4-1.5-2c-0.8-0.7-1.7-1.5-2.5-2.2s-1.7-1.5-2.6-2.2
		c-0.9-0.8-1.6-1.8-2-2.9c-0.4-1.1-0.7-2.2-0.7-3.4c0-2.4,0.9-4.4,2.6-6.1c1.7-1.7,3.8-2.6,6.2-2.6v4c-1.3,0-2.4,0.5-3.4,1.4
		s-1.4,2-1.4,3.3c0,0.1,0,0.2,0,0.3c0,0.1,0,0.2,0,0.3c0,0.5,0.1,1,0.3,1.5c0.2,0.5,0.5,0.9,0.9,1.2c0.9,0.7,1.7,1.5,2.6,2.2
		s1.7,1.5,2.6,2.2c1.1,1,2,2.2,2.5,3.6c0.6,1.4,0.9,2.8,0.9,4.3c0,0.1,0,0.1,0,0.2c0,0.1,0,0.1,0,0.2
		C191.7,546.2,190.6,548.9,188.4,551.1z"/>
	<path class="st0" d="M201,549.2c-3.5-3.5-5.3-7.8-5.3-12.8c0-5,1.8-9.2,5.3-12.7c3.5-3.5,7.8-5.3,12.7-5.3v4c-3.9,0-7.2,1.4-10,4.1
		c-2.8,2.8-4.2,6.1-4.2,9.9c0,3.9,1.4,7.2,4.2,10c2.8,2.8,6.1,4.2,10,4.2v4C208.8,554.5,204.6,552.8,201,549.2z"/>
	<path class="st0" d="M246.7,549.2c-3.5,3.5-7.8,5.3-12.7,5.3c-5,0-9.2-1.8-12.7-5.3c-3.5-3.5-5.3-7.8-5.3-12.8
		c0-5,1.8-9.2,5.3-12.7c3.5-3.5,7.8-5.3,12.7-5.3c5,0,9.2,1.8,12.7,5.3c3.5,3.5,5.3,7.8,5.3,12.7C252,541.4,250.3,545.7,246.7,549.2
		z M244,526.5c-2.8-2.8-6.1-4.1-10-4.1c-3.9,0-7.2,1.4-10,4.1c-2.8,2.8-4.2,6.1-4.2,9.9c0,3.9,1.4,7.2,4.2,10
		c2.8,2.8,6.1,4.2,10,4.2c3.9,0,7.2-1.4,10-4.2c2.8-2.8,4.1-6.1,4.1-10C248.1,532.6,246.7,529.3,244,526.5z"/>
	<path class="st0" d="M271.9,551.8c-1.8,1.8-4,2.8-6.6,2.8c-2.6,0-4.8-0.9-6.6-2.8c-1.8-1.8-2.8-4-2.8-6.6v-26.8h4
		c0,4.4,0,8.9,0,13.4c0,4.5,0,8.9,0,13.4c0,1.5,0.5,2.7,1.6,3.8c1.1,1.1,2.3,1.6,3.8,1.6c1.5,0,2.8-0.5,3.8-1.6
		c1.1-1.1,1.6-2.3,1.6-3.8v-26.8h3.9c0,4.4,0,8.9,0,13.4c0,4.5,0,8.9,0,13.4C274.7,547.7,273.7,549.9,271.9,551.8z"/>
	<path class="st0" d="M291.4,554.5V527c-1.2-1.2-2.5-2.2-4.1-3c-1.5-0.8-3.1-1.3-4.8-1.5v32h-4v-36.1c0.4,0,0.7,0,1,0
		c0.3,0,0.7,0,1,0c2,0,3.9,0.3,5.7,0.9c1.9,0.6,3.6,1.4,5.1,2.6v-3.5h3.9v36.1H291.4z"/>
	<path class="st0" d="M310.3,522.4v32.2h-3.9v-32.2h-7.1v-4h18.1v4H310.3z"/>
	<path class="st0" d="M331.9,551.1c-2.2,2.3-4.9,3.4-8.1,3.4v-4c2.1,0,3.9-0.7,5.3-2.2s2.2-3.3,2.2-5.3c0-0.2,0-0.3,0-0.5
		c0-0.1,0-0.3,0-0.4c-0.1-0.8-0.3-1.6-0.6-2.4c-0.3-0.8-0.8-1.4-1.5-2c-0.8-0.7-1.7-1.5-2.5-2.2c-0.9-0.8-1.7-1.5-2.6-2.2
		c-0.9-0.8-1.6-1.8-2-2.9c-0.4-1.1-0.7-2.2-0.7-3.4c0-2.4,0.9-4.4,2.6-6.1c1.7-1.7,3.8-2.6,6.2-2.6v4c-1.3,0-2.4,0.5-3.4,1.4
		c-0.9,0.9-1.4,2-1.4,3.3c0,0.1,0,0.2,0,0.3c0,0.1,0,0.2,0,0.3c0,0.5,0.1,1,0.3,1.5c0.2,0.5,0.5,0.9,0.9,1.2
		c0.9,0.7,1.7,1.5,2.6,2.2c0.9,0.7,1.7,1.5,2.6,2.2c1.1,1,2,2.2,2.5,3.6c0.6,1.4,0.9,2.8,0.9,4.3c0,0.1,0,0.1,0,0.2
		c0,0.1,0,0.1,0,0.2C335.2,546.2,334.1,548.9,331.9,551.1z"/>
	<path class="st0" d="M343.4,554.5c-0.2,0.3-0.3,0.6-0.4,1c-0.2,0.3-0.3,0.6-0.5,1s-0.3,0.7-0.5,1l-1.5-0.7l0.8-1.8
		c-0.1-0.1-0.3-0.1-0.4-0.1s-0.3-0.1-0.4-0.1c-0.4-0.2-0.8-0.5-1.1-0.9c-0.3-0.4-0.4-0.8-0.3-1.3c0-0.2,0-0.4,0-0.6
		c0-0.2,0.1-0.4,0.2-0.5c0.2-0.4,0.5-0.8,1-1.1c0.4-0.3,0.8-0.4,1.3-0.4c0.2,0,0.4,0,0.6,0c0.2,0,0.4,0.1,0.5,0.2
		c0.4,0.2,0.8,0.5,1.1,1s0.4,0.9,0.4,1.3c0,0.1,0,0.2,0,0.3c0,0.1,0,0.2,0,0.3c0,0.1-0.1,0.2-0.1,0.3c0,0.1-0.1,0.2-0.1,0.3
		C343.7,553.9,343.5,554.2,343.4,554.5z"/>
	<path class="st0" d="M377.8,541.6c-2.5,2.7-5.5,4.2-9.1,4.4v8.5h-4v-36.1c0.3,0,0.5,0,0.7,0c0.2,0,0.5,0,0.7,0c0.3,0,0.5,0,0.7,0
		c0.2,0,0.5,0,0.7,0c3.8,0,7.1,1.4,9.8,4.1c2.7,2.7,4.1,6,4.1,9.8C381.5,535.8,380.2,538.9,377.8,541.6z M375,525.6
		c-1.7-1.9-3.8-2.9-6.3-3.2v19.6c2.5-0.3,4.6-1.3,6.3-3.2c1.7-1.9,2.6-4.1,2.6-6.6C377.5,529.7,376.7,527.5,375,525.6z"/>
	<path class="st0" d="M394.9,552.9c-2.3-1.1-4.3-2.5-6-4.4v6h-3.9v-36.1c0.3,0,0.5,0,0.7,0s0.5,0,0.7,0c0.2,0,0.5,0,0.7,0
		c0.3,0,0.5,0,0.7,0c3.8,0,7.1,1.4,9.8,4.1c2.7,2.7,4.1,6,4.1,9.8c0,3.1-1,5.9-2.9,8.4c-1.9,2.5-4.4,4.1-7.3,4.9
		c1.3,1.6,2.8,2.8,4.7,3.7c1.8,0.9,3.8,1.3,5.9,1.3v4C399.7,554.5,397.2,554,394.9,552.9z M395.3,525.6c-1.7-1.9-3.8-2.9-6.3-3.2
		v19.6c2.5-0.3,4.6-1.3,6.3-3.2c1.7-1.9,2.6-4.1,2.6-6.6C397.9,529.7,397,527.5,395.3,525.6z"/>
	<path class="st0" d="M406,554.5v-36.1h3.9v36.1H406z"/>
	<path class="st0" d="M419.4,550.6h12.7v4h-19l15.6-32.2h-12.4v-4H435L419.4,550.6z"/>
	<path class="st0" d="M443.8,549.1c-3.5-3.5-5.3-7.8-5.3-12.7c0-0.9,0-1.9,0-2.8c0-0.9,0-1.9,0-2.8h-2.3v-4h2.3v-8.4h17.6v4h-13.6
		v4.5h13.8v4h-13.8c0,0.9,0,1.9,0,2.8c0,0.9,0,1.9,0,2.8c0,3.8,1.3,7.1,4,9.9c2.7,2.8,6,4.2,9.8,4.2v4
		C451.5,554.5,447.3,552.7,443.8,549.1z"/>
	<path class="st0" d="M471,551.1c-2.2,2.3-4.9,3.4-8.1,3.4v-4c2.1,0,3.9-0.7,5.3-2.2c1.5-1.5,2.2-3.3,2.2-5.3c0-0.2,0-0.3,0-0.5
		c0-0.1,0-0.3,0-0.4c-0.1-0.8-0.3-1.6-0.6-2.4c-0.3-0.8-0.8-1.4-1.5-2c-0.8-0.7-1.7-1.5-2.5-2.2s-1.7-1.5-2.6-2.2
		c-0.9-0.8-1.6-1.8-2-2.9c-0.4-1.1-0.7-2.2-0.7-3.4c0-2.4,0.9-4.4,2.6-6.1c1.7-1.7,3.8-2.6,6.2-2.6v4c-1.3,0-2.4,0.5-3.4,1.4
		s-1.4,2-1.4,3.3c0,0.1,0,0.2,0,0.3c0,0.1,0,0.2,0,0.3c0,0.5,0.1,1,0.3,1.5c0.2,0.5,0.5,0.9,0.9,1.2c0.9,0.7,1.7,1.5,2.6,2.2
		s1.7,1.5,2.6,2.2c1.1,1,2,2.2,2.5,3.6c0.6,1.4,0.9,2.8,0.9,4.3c0,0.1,0,0.1,0,0.2c0,0.1,0,0.1,0,0.2
		C474.3,546.2,473.2,548.9,471,551.1z"/>
	<path class="st0" d="M517.7,554.5l-2.7-8.8h-12.5l-2.7,8.8h-4.2l2.8-8.8h-2.1v-4.1h3.4l7.2-23.1h3.7l11.2,36H517.7z M508.7,525.8
		l-4.9,15.8h9.9L508.7,525.8z"/>
	<path class="st0" d="M538.9,554.5V527c-1.2-1.2-2.5-2.2-4.1-3c-1.5-0.8-3.1-1.3-4.8-1.5v32h-4v-36.1c0.4,0,0.7,0,1,0
		c0.3,0,0.7,0,1,0c2,0,3.9,0.3,5.7,0.9c1.9,0.6,3.6,1.4,5.1,2.6v-3.5h3.9v36.1H538.9z"/>
	<path class="st0" d="M561.4,549.1c-3.5,3.5-7.7,5.3-12.6,5.4c-0.2,0-0.3,0-0.5,0c-0.2,0-0.3,0-0.5,0c-0.2,0-0.4,0-0.5,0
		s-0.3,0-0.5,0v-36.1c0.2,0,0.3,0,0.5,0s0.3,0,0.5,0c0.2,0,0.3,0,0.5,0c0.2,0,0.3,0,0.5,0c4.9,0.1,9.1,1.9,12.6,5.4
		c3.5,3.5,5.2,7.7,5.2,12.6C566.6,541.4,564.9,545.6,561.4,549.1z M559.3,527.3c-2.2-2.7-5.1-4.3-8.5-4.8v27.9
		c3.4-0.5,6.3-2.1,8.5-4.8s3.4-5.7,3.4-9.2C562.6,533,561.5,530,559.3,527.3z"/>
	<path class="st0" d="M6.9,588.4v23.7H3v-23.7H0.4v-4H3V576h15.8v4H6.9v4.5h12.3v4H6.9z"/>
	<path class="st0" d="M33.3,610.5c-2.3-1.1-4.3-2.5-6-4.4v6h-3.9V576c0.3,0,0.5,0,0.7,0s0.5,0,0.7,0c0.2,0,0.5,0,0.7,0
		c0.3,0,0.5,0,0.7,0c3.8,0,7.1,1.4,9.8,4.1s4.1,6,4.1,9.8c0,3.1-1,5.9-2.9,8.4s-4.4,4.1-7.3,4.9c1.3,1.6,2.8,2.8,4.7,3.7
		c1.8,0.9,3.8,1.3,5.9,1.3v4C38,612.1,35.6,611.6,33.3,610.5z M33.7,583.2c-1.7-1.9-3.8-2.9-6.3-3.2v19.6c2.5-0.3,4.6-1.3,6.3-3.2
		c1.7-1.9,2.6-4.1,2.6-6.6C36.2,587.3,35.4,585.1,33.7,583.2z"/>
	<path class="st0" d="M51.9,606.7c-3.5-3.5-5.3-7.8-5.3-12.7c0-0.9,0-1.9,0-2.8c0-0.9,0-1.9,0-2.8h-2.3v-4h2.3V576h17.6v4H50.6v4.5
		h13.8v4H50.6c0,0.9,0,1.9,0,2.8c0,0.9,0,1.9,0,2.8c0,3.8,1.3,7.1,4,9.9c2.7,2.8,6,4.2,9.8,4.2v4C59.6,612.1,55.4,610.3,51.9,606.7z
		"/>
	<path class="st0" d="M76.4,606.7c-3.5-3.5-5.3-7.8-5.3-12.7c0-0.9,0-1.9,0-2.8c0-0.9,0-1.9,0-2.8h-2.3v-4h2.3V576h17.6v4H75.2v4.5
		H89v4H75.2c0,0.9,0,1.9,0,2.8c0,0.9,0,1.9,0,2.8c0,3.8,1.3,7.1,4,9.9c2.7,2.8,6,4.2,9.8,4.2v4C84.1,612.1,79.9,610.3,76.4,606.7z"
		/>
	<path class="st0" d="M120.4,608.7c-2.2,2.3-4.9,3.4-8.1,3.4v-4c2.1,0,3.9-0.7,5.3-2.2c1.5-1.5,2.2-3.3,2.2-5.3c0-0.2,0-0.3,0-0.5
		c0-0.1,0-0.3,0-0.4c-0.1-0.8-0.3-1.6-0.6-2.4s-0.8-1.4-1.5-2c-0.8-0.7-1.7-1.5-2.5-2.2c-0.9-0.8-1.7-1.5-2.6-2.2
		c-0.9-0.8-1.6-1.8-2-2.9c-0.4-1.1-0.7-2.2-0.7-3.4c0-2.4,0.9-4.4,2.6-6.1c1.7-1.7,3.8-2.6,6.2-2.6v4c-1.3,0-2.4,0.5-3.4,1.4
		c-0.9,0.9-1.4,2-1.4,3.3c0,0.1,0,0.2,0,0.3c0,0.1,0,0.2,0,0.3c0,0.5,0.1,1,0.3,1.5c0.2,0.5,0.5,0.9,0.9,1.2
		c0.9,0.7,1.7,1.5,2.6,2.2c0.9,0.7,1.7,1.5,2.6,2.2c1.1,1,2,2.2,2.5,3.6s0.9,2.8,0.9,4.3c0,0.1,0,0.1,0,0.2s0,0.1,0,0.2
		C123.8,603.8,122.7,606.5,120.4,608.7z"/>
	<path class="st0" d="M134.1,580v32.2h-3.9V580h-7.1v-4h18.1v4H134.1z"/>
	<path class="st0" d="M161.4,609.4c-1.8,1.8-4,2.8-6.6,2.8c-2.6,0-4.8-0.9-6.6-2.8s-2.8-4-2.8-6.6V576h4c0,4.4,0,8.9,0,13.4
		s0,8.9,0,13.4c0,1.5,0.5,2.7,1.6,3.8c1.1,1.1,2.3,1.6,3.8,1.6c1.5,0,2.8-0.5,3.8-1.6s1.6-2.3,1.6-3.8V576h3.9c0,4.4,0,8.9,0,13.4
		s0,8.9,0,13.4C164.2,605.3,163.2,607.5,161.4,609.4z"/>
	<path class="st0" d="M175,588.4v23.7H171v-23.7h-2.5v-4h2.5V576h15.8v4H175v4.5h12.3v4H175z"/>
	<path class="st0" d="M197.4,588.4v23.7h-3.9v-23.7h-2.5v-4h2.5V576h15.8v4h-11.9v4.5h12.3v4H197.4z"/>
	<path class="st0" d="M25.6,784.9l-3.8,0l-4.5-15.8L12.9,785l-3.8,0l-9-36.1h4.1l6.9,28.3l4.5-15.6h3.8l4.5,15.6l6.9-28.3h4.1
		L25.6,784.9z"/>
	<path class="st0" d="M44.2,779.5c-3.5-3.5-5.3-7.8-5.3-12.7c0-0.9,0-1.9,0-2.8c0-0.9,0-1.9,0-2.8h-2.3v-4H39v-8.4h17.6v4H43v4.5
		h13.8v4H43c0,0.9,0,1.9,0,2.8c0,0.9,0,1.9,0,2.8c0,3.8,1.3,7.1,4,9.9c2.7,2.8,6,4.2,9.8,4.2v4C51.9,784.9,47.7,783.1,44.2,779.5z"
		/>
	<path class="st0" d="M69.4,783.8c-1.7,0.7-3.5,1.1-5.4,1.1c-0.3,0-0.5,0-0.7,0c-0.2,0-0.5,0-0.7,0c-0.3,0-0.5,0-0.7,0
		c-0.2,0-0.5,0-0.7,0v-36.1c0.3,0,0.5,0,0.7,0c0.2,0,0.5,0,0.7,0c0.3,0,0.5,0,0.7,0c0.2,0,0.5,0,0.7,0c1.8,0,3.3,0.6,4.4,1.9
		c1.2,1.3,1.8,2.7,1.8,4.3c0,0.5-0.1,1.1-0.2,1.6c-0.1,0.5-0.4,1.1-0.7,1.6c2.8,1.1,4.9,2.9,6.4,5.3c1.5,2.4,2.2,4.9,2.2,7.6
		c0,0.2,0,0.4,0,0.6c0,0.2,0,0.4,0,0.6c-0.2,1.5-0.6,3-1.2,4.5c-0.6,1.5-1.6,2.8-2.8,4C72.5,782.1,71.1,783.1,69.4,783.8z M66,756.2
		c0.2-0.4,0.3-0.8,0.3-1.2s-0.1-0.8-0.3-1.2c-0.2-0.4-0.5-0.6-0.9-0.9v4.1C65.5,756.8,65.8,756.5,66,756.2z M71.4,764.5
		c-1.7-1.9-3.8-3-6.3-3.2v19.6c2.5-0.3,4.6-1.3,6.3-3.2s2.6-4.1,2.6-6.6C73.9,768.6,73.1,766.4,71.4,764.5z"/>
	<path class="st0" d="M91.2,781.5c-2.2,2.3-4.9,3.4-8.1,3.4v-4c2.1,0,3.9-0.7,5.3-2.2c1.5-1.5,2.2-3.3,2.2-5.3c0-0.2,0-0.3,0-0.5
		c0-0.1,0-0.3,0-0.4c-0.1-0.8-0.3-1.6-0.6-2.4s-0.8-1.4-1.5-2c-0.8-0.7-1.7-1.5-2.5-2.2c-0.9-0.8-1.7-1.5-2.6-2.2
		c-0.9-0.8-1.6-1.8-2-2.9c-0.4-1.1-0.7-2.2-0.7-3.4c0-2.4,0.9-4.4,2.6-6.1c1.7-1.7,3.8-2.6,6.2-2.6v4c-1.3,0-2.4,0.5-3.4,1.4
		c-0.9,0.9-1.4,2-1.4,3.3c0,0.1,0,0.2,0,0.3c0,0.1,0,0.2,0,0.3c0,0.5,0.1,1,0.3,1.5c0.2,0.5,0.5,0.9,0.9,1.2
		c0.9,0.7,1.7,1.5,2.6,2.2c0.9,0.7,1.7,1.5,2.6,2.2c1.1,1,2,2.2,2.5,3.6s0.9,2.8,0.9,4.3c0,0.1,0,0.1,0,0.2s0,0.1,0,0.2
		C94.6,776.6,93.4,779.3,91.2,781.5z"/>
	<path class="st0" d="M98.4,784.9v-36.1h3.9v36.1H98.4z"/>
	<path class="st0" d="M117.5,752.8v32.2h-3.9v-32.2h-7.1v-4h18.1v4H117.5z"/>
	<path class="st0" d="M135,779.5c-3.5-3.5-5.3-7.8-5.3-12.7c0-0.9,0-1.9,0-2.8c0-0.9,0-1.9,0-2.8h-2.3v-4h2.3v-8.4h17.6v4h-13.6v4.5
		h13.8v4h-13.8c0,0.9,0,1.9,0,2.8c0,0.9,0,1.9,0,2.8c0,3.8,1.3,7.1,4,9.9c2.7,2.8,6,4.2,9.8,4.2v4
		C142.8,784.9,138.5,783.1,135,779.5z"/>
	<path class="st0" d="M156.1,784.9c-0.2,0.3-0.3,0.6-0.4,1c-0.2,0.3-0.3,0.6-0.5,1c-0.2,0.3-0.3,0.7-0.5,1l-1.5-0.7l0.8-1.8
		c-0.1-0.1-0.3-0.1-0.4-0.1c-0.1,0-0.3-0.1-0.4-0.1c-0.4-0.2-0.8-0.5-1.1-0.9c-0.3-0.4-0.4-0.8-0.3-1.3c0-0.2,0-0.4,0-0.6
		c0-0.2,0.1-0.4,0.2-0.5c0.2-0.4,0.5-0.8,1-1.1c0.4-0.3,0.8-0.4,1.3-0.4c0.2,0,0.4,0,0.6,0c0.2,0,0.4,0.1,0.5,0.2
		c0.4,0.2,0.8,0.5,1.1,1c0.3,0.4,0.4,0.9,0.4,1.3c0,0.1,0,0.2,0,0.3c0,0.1,0,0.2,0,0.3c0,0.1-0.1,0.2-0.1,0.3c0,0.1-0.1,0.2-0.1,0.3
		C156.4,784.3,156.3,784.6,156.1,784.9z"/>
	<path class="st0" d="M188.6,759.9v25.1h-3.9v-25.1l-8-11.1h4.8l5.1,7.1l5.1-7.1h4.8L188.6,759.9z"/>
	<path class="st0" d="M225.8,779.6c-3.5,3.5-7.8,5.3-12.7,5.3c-5,0-9.2-1.8-12.7-5.3c-3.5-3.5-5.3-7.8-5.3-12.8
		c0-5,1.8-9.2,5.3-12.7c3.5-3.5,7.8-5.3,12.7-5.3c5,0,9.2,1.8,12.7,5.3c3.5,3.5,5.3,7.8,5.3,12.7
		C231.1,771.8,229.3,776.1,225.8,779.6z M223.1,756.9c-2.8-2.8-6.1-4.1-10-4.1c-3.9,0-7.2,1.4-10,4.1c-2.8,2.8-4.2,6.1-4.2,9.9
		c0,3.9,1.4,7.2,4.2,10c2.8,2.8,6.1,4.2,10,4.2c3.9,0,7.2-1.4,10-4.2c2.8-2.8,4.1-6.1,4.1-10C227.2,763,225.8,759.7,223.1,756.9z"/>
	<path class="st0" d="M251,782.2c-1.8,1.8-4,2.8-6.6,2.8c-2.6,0-4.8-0.9-6.6-2.8s-2.8-4-2.8-6.6v-26.8h4c0,4.4,0,8.9,0,13.4
		s0,8.9,0,13.4c0,1.5,0.5,2.7,1.6,3.8c1.1,1.1,2.3,1.6,3.8,1.6c1.5,0,2.8-0.5,3.8-1.6s1.6-2.3,1.6-3.8v-26.8h3.9c0,4.4,0,8.9,0,13.4
		s0,8.9,0,13.4C253.7,778.1,252.8,780.3,251,782.2z"/>
	<path class="st0" d="M269,752.8v32.2h-3.9v-32.2H258v-4h18.1v4H269z"/>
	<path class="st0" d="M296.3,782.2c-1.8,1.8-4,2.8-6.6,2.8c-2.6,0-4.8-0.9-6.6-2.8c-1.8-1.8-2.8-4-2.8-6.6v-26.8h4
		c0,4.4,0,8.9,0,13.4s0,8.9,0,13.4c0,1.5,0.5,2.7,1.6,3.8c1.1,1.1,2.3,1.6,3.8,1.6c1.5,0,2.8-0.5,3.8-1.6c1.1-1.1,1.6-2.3,1.6-3.8
		v-26.8h3.9c0,4.4,0,8.9,0,13.4s0,8.9,0,13.4C299.1,778.1,298.2,780.3,296.3,782.2z"/>
	<path class="st0" d="M311.6,783.8c-1.7,0.7-3.5,1.1-5.4,1.1c-0.3,0-0.5,0-0.7,0s-0.5,0-0.7,0c-0.3,0-0.5,0-0.7,0s-0.5,0-0.7,0
		v-36.1c0.3,0,0.5,0,0.7,0s0.5,0,0.7,0c0.3,0,0.5,0,0.7,0s0.5,0,0.7,0c1.8,0,3.3,0.6,4.4,1.9c1.2,1.3,1.8,2.7,1.8,4.3
		c0,0.5-0.1,1.1-0.2,1.6c-0.1,0.5-0.4,1.1-0.7,1.6c2.8,1.1,4.9,2.9,6.4,5.3c1.5,2.4,2.2,4.9,2.2,7.6c0,0.2,0,0.4,0,0.6
		c0,0.2,0,0.4,0,0.6c-0.2,1.5-0.6,3-1.2,4.5c-0.6,1.5-1.6,2.8-2.8,4C314.7,782.1,313.3,783.1,311.6,783.8z M308.2,756.2
		c0.2-0.4,0.3-0.8,0.3-1.2s-0.1-0.8-0.3-1.2c-0.2-0.4-0.5-0.6-0.9-0.9v4.1C307.7,756.8,308,756.5,308.2,756.2z M313.6,764.5
		c-1.7-1.9-3.8-3-6.3-3.2v19.6c2.5-0.3,4.6-1.3,6.3-3.2s2.6-4.1,2.6-6.6C316.1,768.6,315.3,766.4,313.6,764.5z"/>
	<path class="st0" d="M329.7,779.5c-3.5-3.5-5.3-7.8-5.3-12.7c0-0.9,0-1.9,0-2.8c0-0.9,0-1.9,0-2.8h-2.3v-4h2.3v-8.4H342v4h-13.6
		v4.5h13.8v4h-13.8c0,0.9,0,1.9,0,2.8c0,0.9,0,1.9,0,2.8c0,3.8,1.3,7.1,4,9.9c2.7,2.8,6,4.2,9.8,4.2v4
		C337.4,784.9,333.2,783.1,329.7,779.5z"/>
	<path class="st0" d="M350.8,784.9c-0.2,0.3-0.3,0.6-0.4,1c-0.2,0.3-0.3,0.6-0.5,1c-0.2,0.3-0.3,0.7-0.5,1l-1.5-0.7l0.8-1.8
		c-0.1-0.1-0.3-0.1-0.4-0.1c-0.1,0-0.3-0.1-0.4-0.1c-0.4-0.2-0.8-0.5-1.1-0.9c-0.3-0.4-0.4-0.8-0.3-1.3c0-0.2,0-0.4,0-0.6
		c0-0.2,0.1-0.4,0.2-0.5c0.2-0.4,0.5-0.8,1-1.1c0.4-0.3,0.8-0.4,1.3-0.4c0.2,0,0.4,0,0.6,0c0.2,0,0.4,0.1,0.5,0.2
		c0.4,0.2,0.8,0.5,1.1,1c0.3,0.4,0.4,0.9,0.4,1.3c0,0.1,0,0.2,0,0.3c0,0.1,0,0.2,0,0.3c0,0.1-0.1,0.2-0.1,0.3c0,0.1-0.1,0.2-0.1,0.3
		C351.1,784.3,350.9,784.6,350.8,784.9z"/>
	<path class="st0" d="M397.4,784.9l-3.8,0l-4.5-15.8l-4.5,15.8l-3.8,0l-9-36.1h4.1l6.9,28.3l4.5-15.6h3.8l4.5,15.6l6.9-28.3h4.1
		L397.4,784.9z"/>
	<path class="st0" d="M416,779.5c-3.5-3.5-5.3-7.8-5.3-12.7c0-0.9,0-1.9,0-2.8c0-0.9,0-1.9,0-2.8h-2.3v-4h2.3v-8.4h17.6v4h-13.6v4.5
		h13.8v4h-13.8c0,0.9,0,1.9,0,2.8c0,0.9,0,1.9,0,2.8c0,3.8,1.3,7.1,4,9.9c2.7,2.8,6,4.2,9.8,4.2v4
		C423.7,784.9,419.5,783.1,416,779.5z"/>
	<path class="st0" d="M441.1,783.8c-1.7,0.7-3.5,1.1-5.4,1.1c-0.3,0-0.5,0-0.7,0c-0.2,0-0.5,0-0.7,0c-0.3,0-0.5,0-0.7,0
		c-0.2,0-0.5,0-0.7,0v-36.1c0.3,0,0.5,0,0.7,0c0.2,0,0.5,0,0.7,0c0.3,0,0.5,0,0.7,0c0.2,0,0.5,0,0.7,0c1.8,0,3.3,0.6,4.4,1.9
		c1.2,1.3,1.8,2.7,1.8,4.3c0,0.5-0.1,1.1-0.2,1.6c-0.1,0.5-0.4,1.1-0.7,1.6c2.8,1.1,4.9,2.9,6.4,5.3c1.5,2.4,2.2,4.9,2.2,7.6
		c0,0.2,0,0.4,0,0.6c0,0.2,0,0.4,0,0.6c-0.2,1.5-0.6,3-1.2,4.5c-0.6,1.5-1.6,2.8-2.8,4C444.3,782.1,442.8,783.1,441.1,783.8z
		 M437.8,756.2c0.2-0.4,0.3-0.8,0.3-1.2s-0.1-0.8-0.3-1.2c-0.2-0.4-0.5-0.6-0.9-0.9v4.1C437.2,756.8,437.6,756.5,437.8,756.2z
		 M443.1,764.5c-1.7-1.9-3.8-3-6.3-3.2v19.6c2.5-0.3,4.6-1.3,6.3-3.2s2.6-4.1,2.6-6.6C445.7,768.6,444.8,766.4,443.1,764.5z"/>
	<path class="st0" d="M453.5,784.9v-36.1h3.9v36.1H453.5z"/>
	<path class="st0" d="M474,784.9v-27.5c-1.2-1.2-2.5-2.2-4.1-3c-1.5-0.8-3.1-1.3-4.8-1.5v32h-4v-36.1c0.4,0,0.7,0,1,0
		c0.3,0,0.7,0,1,0c2,0,3.9,0.3,5.7,0.9c1.9,0.6,3.6,1.4,5.1,2.6v-3.5h3.9v36.1H474z"/>
	<path class="st0" d="M504.4,784.9l-2.7-8.8h-12.5l-2.7,8.8h-4.2l2.8-8.8h-2.1V772h3.4l7.2-23.1h3.7l11.2,36H504.4z M495.4,756.2
		l-4.9,15.8h9.9L495.4,756.2z"/>
	<path class="st0" d="M523,783.3c-2.3-1.1-4.3-2.5-6-4.4v6h-3.9v-36.1c0.3,0,0.5,0,0.7,0c0.2,0,0.5,0,0.7,0c0.2,0,0.5,0,0.7,0
		s0.5,0,0.7,0c3.8,0,7.1,1.4,9.8,4.1c2.7,2.7,4.1,6,4.1,9.8c0,3.1-1,5.9-2.9,8.4c-1.9,2.5-4.4,4.1-7.3,4.9c1.3,1.6,2.8,2.8,4.7,3.7
		c1.8,0.9,3.8,1.3,5.9,1.3v4C527.7,784.9,525.3,784.4,523,783.3z M523.4,756c-1.7-1.9-3.8-2.9-6.3-3.2v19.6c2.5-0.3,4.6-1.3,6.3-3.2
		c1.7-1.9,2.6-4.1,2.6-6.6C525.9,760.1,525.1,757.9,523.4,756z"/>
	<path class="st0" d="M544.5,781.5c-2.2,2.3-4.9,3.4-8.1,3.4v-4c2.1,0,3.9-0.7,5.3-2.2c1.5-1.5,2.2-3.3,2.2-5.3c0-0.2,0-0.3,0-0.5
		c0-0.1,0-0.3,0-0.4c-0.1-0.8-0.3-1.6-0.6-2.4s-0.8-1.4-1.5-2c-0.8-0.7-1.7-1.5-2.5-2.2c-0.9-0.8-1.7-1.5-2.6-2.2
		c-0.9-0.8-1.6-1.8-2-2.9c-0.4-1.1-0.7-2.2-0.7-3.4c0-2.4,0.9-4.4,2.6-6.1s3.8-2.6,6.2-2.6v4c-1.3,0-2.4,0.5-3.4,1.4s-1.4,2-1.4,3.3
		c0,0.1,0,0.2,0,0.3c0,0.1,0,0.2,0,0.3c0,0.5,0.1,1,0.3,1.5c0.2,0.5,0.5,0.9,0.9,1.2c0.9,0.7,1.7,1.5,2.6,2.2
		c0.9,0.7,1.7,1.5,2.6,2.2c1.1,1,2,2.2,2.5,3.6c0.6,1.4,0.9,2.8,0.9,4.3c0,0.1,0,0.1,0,0.2s0,0.1,0,0.2
		C547.9,776.6,546.7,779.3,544.5,781.5z"/>
	<path class="st0" d="M31,837.2c-3.5,3.5-7.8,5.3-12.7,5.3c-5,0-9.2-1.8-12.7-5.3c-3.5-3.5-5.3-7.8-5.3-12.8c0-5,1.8-9.2,5.3-12.7
		c3.5-3.5,7.8-5.3,12.7-5.3c5,0,9.2,1.8,12.7,5.3c3.5,3.5,5.3,7.8,5.3,12.7C36.3,829.4,34.6,833.7,31,837.2z M28.3,814.5
		c-2.8-2.8-6.1-4.1-10-4.1c-3.9,0-7.2,1.4-10,4.1c-2.8,2.8-4.2,6.1-4.2,9.9c0,3.9,1.4,7.2,4.2,10c2.8,2.8,6.1,4.2,10,4.2
		c3.9,0,7.2-1.4,10-4.2c2.8-2.8,4.1-6.1,4.1-10C32.4,820.6,31,817.3,28.3,814.5z"/>
	<path class="st0" d="M50.1,840.9c-2.3-1.1-4.3-2.5-6-4.4v6h-3.9v-36.1c0.3,0,0.5,0,0.7,0s0.5,0,0.7,0c0.2,0,0.5,0,0.7,0
		c0.3,0,0.5,0,0.7,0c3.8,0,7.1,1.4,9.8,4.1c2.7,2.7,4.1,6,4.1,9.8c0,3.1-1,5.9-2.9,8.4c-1.9,2.5-4.4,4.1-7.3,4.9
		c1.3,1.6,2.8,2.8,4.7,3.7c1.8,0.9,3.8,1.3,5.9,1.3v4C54.8,842.5,52.4,842,50.1,840.9z M50.4,813.6c-1.7-1.9-3.8-2.9-6.3-3.2v19.6
		c2.5-0.3,4.6-1.3,6.3-3.2c1.7-1.9,2.6-4.1,2.6-6.6C53,817.7,52.1,815.5,50.4,813.6z"/>
	<path class="st0" d="M91.1,829.6c-2.5,2.7-5.5,4.2-9.1,4.4v8.5h-4v-36.1c0.3,0,0.5,0,0.7,0c0.2,0,0.5,0,0.7,0c0.3,0,0.5,0,0.7,0
		c0.2,0,0.5,0,0.7,0c3.8,0,7.1,1.4,9.8,4.1c2.7,2.7,4.1,6,4.1,9.8C94.8,823.8,93.6,826.9,91.1,829.6z M88.3,813.6
		c-1.7-1.9-3.8-2.9-6.3-3.2v19.6c2.5-0.3,4.6-1.3,6.3-3.2c1.7-1.9,2.6-4.1,2.6-6.6C90.9,817.7,90,815.5,88.3,813.6z"/>
	<path class="st0" d="M129.1,837.2c-3.5,3.5-7.8,5.3-12.7,5.3c-5,0-9.2-1.8-12.7-5.3c-3.5-3.5-5.3-7.8-5.3-12.8
		c0-5,1.8-9.2,5.3-12.7c3.5-3.5,7.8-5.3,12.7-5.3c5,0,9.2,1.8,12.7,5.3c3.5,3.5,5.3,7.8,5.3,12.7
		C134.4,829.4,132.6,833.7,129.1,837.2z M126.3,814.5c-2.8-2.8-6.1-4.1-10-4.1c-3.9,0-7.2,1.4-10,4.1c-2.8,2.8-4.2,6.1-4.2,9.9
		c0,3.9,1.4,7.2,4.2,10c2.8,2.8,6.1,4.2,10,4.2c3.9,0,7.2-1.4,10-4.2c2.8-2.8,4.1-6.1,4.1-10C130.5,820.6,129.1,817.3,126.3,814.5z"
		/>
	<path class="st0" d="M153,837.1c-3.5,3.5-7.7,5.3-12.6,5.4c-0.2,0-0.3,0-0.5,0s-0.3,0-0.5,0c-0.2,0-0.4,0-0.5,0s-0.3,0-0.5,0v-36.1
		c0.2,0,0.3,0,0.5,0s0.3,0,0.5,0c0.2,0,0.3,0,0.5,0s0.3,0,0.5,0c4.9,0.1,9.1,1.9,12.6,5.4c3.5,3.5,5.2,7.7,5.2,12.6
		C158.2,829.4,156.4,833.6,153,837.1z M150.8,815.3c-2.2-2.7-5.1-4.3-8.5-4.8v27.9c3.4-0.5,6.3-2.1,8.5-4.8c2.2-2.7,3.4-5.7,3.4-9.2
		C154.2,821,153.1,818,150.8,815.3z"/>
	<path class="st0" d="M167.1,837.2c-3.5-3.5-5.3-7.8-5.3-12.8c0-5,1.8-9.2,5.3-12.7c3.5-3.5,7.8-5.3,12.7-5.3v4
		c-3.9,0-7.2,1.4-10,4.1c-2.8,2.8-4.2,6.1-4.2,9.9c0,3.9,1.4,7.2,4.2,10c2.8,2.8,6.1,4.2,10,4.2v4
		C174.8,842.5,170.6,840.8,167.1,837.2z"/>
	<path class="st0" d="M206.5,842.5l-2.7-8.8h-12.5l-2.7,8.8h-4.2l2.8-8.8h-2.1v-4.1h3.4l7.2-23.1h3.7l11.2,36H206.5z M197.6,813.8
		l-4.9,15.8h9.9L197.6,813.8z"/>
	<path class="st0" d="M224,839.1c-2.2,2.3-4.9,3.4-8.1,3.4v-4c2.1,0,3.9-0.7,5.3-2.2s2.2-3.3,2.2-5.3c0-0.2,0-0.3,0-0.5
		c0-0.1,0-0.3,0-0.4c-0.1-0.8-0.3-1.6-0.6-2.4c-0.3-0.8-0.8-1.4-1.5-2c-0.8-0.7-1.7-1.5-2.5-2.2c-0.9-0.8-1.7-1.5-2.6-2.2
		c-0.9-0.8-1.6-1.8-2-2.9c-0.4-1.1-0.7-2.2-0.7-3.4c0-2.4,0.9-4.4,2.6-6.1c1.7-1.7,3.8-2.6,6.2-2.6v4c-1.3,0-2.4,0.5-3.4,1.4
		c-0.9,0.9-1.4,2-1.4,3.3c0,0.1,0,0.2,0,0.3c0,0.1,0,0.2,0,0.3c0,0.5,0.1,1,0.3,1.5c0.2,0.5,0.5,0.9,0.9,1.2
		c0.9,0.7,1.7,1.5,2.6,2.2c0.9,0.7,1.7,1.5,2.6,2.2c1.1,1,2,2.2,2.5,3.6c0.6,1.4,0.9,2.8,0.9,4.3c0,0.1,0,0.1,0,0.2
		c0,0.1,0,0.1,0,0.2C227.4,834.2,226.3,836.9,224,839.1z"/>
	<path class="st0" d="M237.7,810.4v32.2h-3.9v-32.2h-7.1v-4h18.1v4H237.7z"/>
	<path class="st0" d="M259.3,839.1c-2.2,2.3-4.9,3.4-8.1,3.4v-4c2.1,0,3.9-0.7,5.3-2.2c1.5-1.5,2.2-3.3,2.2-5.3c0-0.2,0-0.3,0-0.5
		c0-0.1,0-0.3,0-0.4c-0.1-0.8-0.3-1.6-0.6-2.4c-0.3-0.8-0.8-1.4-1.5-2c-0.8-0.7-1.7-1.5-2.5-2.2s-1.7-1.5-2.6-2.2
		c-0.9-0.8-1.6-1.8-2-2.9c-0.4-1.1-0.7-2.2-0.7-3.4c0-2.4,0.9-4.4,2.6-6.1c1.7-1.7,3.8-2.6,6.2-2.6v4c-1.3,0-2.4,0.5-3.4,1.4
		s-1.4,2-1.4,3.3c0,0.1,0,0.2,0,0.3c0,0.1,0,0.2,0,0.3c0,0.5,0.1,1,0.3,1.5c0.2,0.5,0.5,0.9,0.9,1.2c0.9,0.7,1.7,1.5,2.6,2.2
		s1.7,1.5,2.6,2.2c1.1,1,2,2.2,2.5,3.6c0.6,1.4,0.9,2.8,0.9,4.3c0,0.1,0,0.1,0,0.2c0,0.1,0,0.1,0,0.2
		C262.7,834.2,261.5,836.9,259.3,839.1z"/>
</g>
</svg>
