<!-- Generator: Adobe Illustrator 19.2.1, SVG Export Plug-In  -->
<svg version="1.1"
	 xmlns="http://www.w3.org/2000/svg" xmlns:xlink="http://www.w3.org/1999/xlink" xmlns:a="http://ns.adobe.com/AdobeSVGViewerExtensions/3.0/"
	 x="0px" y="0px" width="562.2px" height="78.5px" viewBox="0 0 562.2 78.5" style="enable-background:new 0 0 562.2 78.5;"
	 xml:space="preserve">
<style type="text/css">
	.st0{fill:url(#SVGID_1_);}
	.st1{fill:url(#SVGID_2_);}
	.st2{fill:url(#SVGID_3_);}
	.st3{fill:url(#SVGID_4_);}
	.st4{fill:url(#SVGID_5_);}
	.st5{fill:url(#SVGID_6_);}
	.st6{fill:url(#SVGID_7_);}
	.st7{fill:url(#SVGID_8_);}
	.st8{fill:url(#SVGID_9_);}
	.st9{fill:url(#SVGID_10_);}
	.st10{fill:url(#SVGID_11_);}
	.st11{fill:url(#SVGID_12_);}
	.st12{fill:url(#SVGID_13_);}
	.st13{fill:url(#SVGID_14_);}
	.st14{fill:url(#SVGID_15_);}
	.st15{fill:url(#SVGID_16_);}
	.st16{fill:url(#SVGID_17_);}
	.st17{fill:url(#SVGID_18_);}
	.st18{fill:url(#SVGID_19_);}
	.st19{fill:url(#SVGID_20_);}
</style>
<defs>
</defs>
<g>
	<linearGradient id="SVGID_1_" gradientUnits="userSpaceOnUse" x1="0" y1="39.1992" x2="64.5" y2="39.1992">
		<stop  offset="0" style="stop-color:#8F641A"/>
		<stop  offset="0.1258" style="stop-color:#FFE4A4"/>
		<stop  offset="0.2546" style="stop-color:#F7F3E0"/>
		<stop  offset="0.3957" style="stop-color:#C4A25E"/>
		<stop  offset="0.5153" style="stop-color:#AB7F26"/>
		<stop  offset="0.6687" style="stop-color:#FFE7AD"/>
		<stop  offset="0.7914" style="stop-color:#EEE4C8"/>
		<stop  offset="0.9018" style="stop-color:#BD974C"/>
		<stop  offset="1" style="stop-color:#AB7F26"/>
	</linearGradient>
	<path class="st0" d="M12.4,67.7c-4.1-3.9-7.2-8.4-9.3-13.3C1,49.5,0,44.2,0,38.5c0-5.3,1.1-10.3,3.3-15.1c2.2-4.8,5.2-9,9.1-12.6
		V67.7z M64.5,68.7c-3.6,3.1-7.6,5.5-11.9,7.1c-4.4,1.6-8.9,2.4-13.7,2.4c-4.5,0-8.9-0.8-13.2-2.2c-4.2-1.5-8.1-3.7-11.5-6.5V9.1
		c3.5-2.9,7.3-5.1,11.5-6.6C30,1,34.4,0.2,38.9,0.2c4.7,0,9.3,0.8,13.7,2.5c4.4,1.6,8.4,4,11.9,7.2l-1.8,2.2c-3.3-3-7-5.2-11-6.7
		c-4.1-1.5-8.3-2.2-12.8-2.2c-4,0-7.9,0.6-11.6,1.9c-3.7,1.3-7.2,3.1-10.3,5.5V68c3.1,2.4,6.6,4.2,10.3,5.5
		c3.8,1.3,7.6,1.9,11.6,1.9c4.4,0,8.7-0.8,12.8-2.3c4.1-1.5,7.8-3.7,11-6.6L64.5,68.7z"/>
	<linearGradient id="SVGID_2_" gradientUnits="userSpaceOnUse" x1="71.8984" y1="39.2993" x2="116.998" y2="39.2993">
		<stop  offset="0" style="stop-color:#8F641A"/>
		<stop  offset="0.1258" style="stop-color:#FFE4A4"/>
		<stop  offset="0.2546" style="stop-color:#F7F3E0"/>
		<stop  offset="0.3957" style="stop-color:#C4A25E"/>
		<stop  offset="0.5153" style="stop-color:#AB7F26"/>
		<stop  offset="0.6687" style="stop-color:#FFE7AD"/>
		<stop  offset="0.7914" style="stop-color:#EEE4C8"/>
		<stop  offset="0.9018" style="stop-color:#BD974C"/>
		<stop  offset="1" style="stop-color:#AB7F26"/>
	</linearGradient>
	<path class="st1" d="M76.5,76.9V4.5h-4.6V1.7h16v75.2H76.5z M114.2,76.9V21.5H92.9v55.4h-2.8V1.7h2.8v17h21.3v-17h2.8v75.2H114.2z"
		/>
	<linearGradient id="SVGID_3_" gradientUnits="userSpaceOnUse" x1="124.1973" y1="39.2993" x2="168.6973" y2="39.2993">
		<stop  offset="0" style="stop-color:#8F641A"/>
		<stop  offset="0.1258" style="stop-color:#FFE4A4"/>
		<stop  offset="0.2546" style="stop-color:#F7F3E0"/>
		<stop  offset="0.3957" style="stop-color:#C4A25E"/>
		<stop  offset="0.5153" style="stop-color:#AB7F26"/>
		<stop  offset="0.6687" style="stop-color:#FFE7AD"/>
		<stop  offset="0.7914" style="stop-color:#EEE4C8"/>
		<stop  offset="0.9018" style="stop-color:#BD974C"/>
		<stop  offset="1" style="stop-color:#AB7F26"/>
	</linearGradient>
	<path class="st2" d="M128.8,76.9V4.5h-4.6V1.7h16.1v75.2H128.8z M142.2,76.9V1.7h26.5v2.8H145v14.2h18.5v2.8H145v52.4h23.7v3H142.2
		z"/>
	<linearGradient id="SVGID_4_" gradientUnits="userSpaceOnUse" x1="176.0957" y1="39.1992" x2="240.5957" y2="39.1992">
		<stop  offset="0" style="stop-color:#8F641A"/>
		<stop  offset="0.1258" style="stop-color:#FFE4A4"/>
		<stop  offset="0.2546" style="stop-color:#F7F3E0"/>
		<stop  offset="0.3957" style="stop-color:#C4A25E"/>
		<stop  offset="0.5153" style="stop-color:#AB7F26"/>
		<stop  offset="0.6687" style="stop-color:#FFE7AD"/>
		<stop  offset="0.7914" style="stop-color:#EEE4C8"/>
		<stop  offset="0.9018" style="stop-color:#BD974C"/>
		<stop  offset="1" style="stop-color:#AB7F26"/>
	</linearGradient>
	<path class="st3" d="M188.5,67.7c-4.1-3.9-7.2-8.4-9.3-13.3c-2.1-4.9-3.1-10.2-3.1-15.9c0-5.3,1.1-10.3,3.4-15.1
		c2.2-4.8,5.2-9,9-12.6V67.7z M240.6,68.7c-3.6,3.1-7.6,5.5-11.9,7.1c-4.4,1.6-8.9,2.4-13.7,2.4c-4.5,0-8.9-0.8-13.2-2.2
		c-4.2-1.5-8.1-3.7-11.5-6.5V9.1c3.5-2.9,7.3-5.1,11.5-6.6c4.2-1.5,8.6-2.3,13.2-2.3c4.7,0,9.3,0.8,13.7,2.5c4.4,1.6,8.4,4,11.9,7.2
		l-1.8,2.2c-3.3-3-7-5.2-11.1-6.7c-4.1-1.5-8.3-2.2-12.8-2.2c-4,0-7.9,0.6-11.6,1.9c-3.7,1.3-7.2,3.1-10.3,5.5V68
		c3.1,2.4,6.6,4.2,10.4,5.5c3.8,1.3,7.6,1.9,11.5,1.9c4.4,0,8.7-0.8,12.8-2.3c4.1-1.5,7.8-3.7,11.1-6.6L240.6,68.7z"/>
	<linearGradient id="SVGID_5_" gradientUnits="userSpaceOnUse" x1="247.9941" y1="39.2993" x2="289.4941" y2="39.2993">
		<stop  offset="0" style="stop-color:#8F641A"/>
		<stop  offset="0.1258" style="stop-color:#FFE4A4"/>
		<stop  offset="0.2546" style="stop-color:#F7F3E0"/>
		<stop  offset="0.3957" style="stop-color:#C4A25E"/>
		<stop  offset="0.5153" style="stop-color:#AB7F26"/>
		<stop  offset="0.6687" style="stop-color:#FFE7AD"/>
		<stop  offset="0.7914" style="stop-color:#EEE4C8"/>
		<stop  offset="0.9018" style="stop-color:#BD974C"/>
		<stop  offset="1" style="stop-color:#AB7F26"/>
	</linearGradient>
	<path class="st4" d="M252.6,76.9V4.5H248V1.7h16v75.2H252.6z M286.7,76.9c0-2.4-0.5-4.8-1.4-7c-0.9-2.3-2.1-4.3-3.8-6.2
		c-1.6-1.8-3.5-3.3-5.6-4.4c-2.2-1.1-4.5-1.8-7-1.9v19.5h-2.8V1.7h2.8v52.8c1.2,0.1,2.4,0.3,3.6,0.6l12.8-53.4h2.9l-13,54.3
		c2.1,0.8,4.1,1.9,5.8,3.3c1.7,1.4,3.2,3.1,4.5,4.9c1.3,1.9,2.2,3.9,2.9,6.1c0.7,2.2,1,4.3,1,6.5H286.7z"/>
	<linearGradient id="SVGID_6_" gradientUnits="userSpaceOnUse" x1="296.7949" y1="39.2993" x2="350.5947" y2="39.2993">
		<stop  offset="0" style="stop-color:#8F641A"/>
		<stop  offset="0.1258" style="stop-color:#FFE4A4"/>
		<stop  offset="0.2546" style="stop-color:#F7F3E0"/>
		<stop  offset="0.3957" style="stop-color:#C4A25E"/>
		<stop  offset="0.5153" style="stop-color:#AB7F26"/>
		<stop  offset="0.6687" style="stop-color:#FFE7AD"/>
		<stop  offset="0.7914" style="stop-color:#EEE4C8"/>
		<stop  offset="0.9018" style="stop-color:#BD974C"/>
		<stop  offset="1" style="stop-color:#AB7F26"/>
	</linearGradient>
	<path class="st5" d="M301.3,76.9V4.5h-4.5V1.7H313v75.2H301.3z M350.6,35.7c0,4.6-0.8,8.9-2.5,13c-1.7,4-4,7.6-6.9,10.6
		c-2.9,3.1-6.4,5.5-10.3,7.4c-4,1.9-8.2,2.9-12.9,3.1v7.1h-2.8V1.7c5.2,0,10,0.9,14.3,2.7c4.3,1.8,8.1,4.2,11.2,7.2
		c3.1,3.1,5.6,6.7,7.3,10.8C349.7,26.5,350.6,31,350.6,35.7z M347.8,35.8c0-4.2-0.8-8.1-2.3-11.8c-1.5-3.7-3.6-6.9-6.3-9.8
		c-2.7-2.8-5.8-5-9.5-6.8c-3.6-1.7-7.5-2.7-11.7-2.8V67c4.2-0.2,8.1-1.2,11.7-2.9c3.6-1.7,6.8-4,9.5-6.8s4.8-6,6.3-9.8
		C347,43.9,347.8,40,347.8,35.8z"/>
	<linearGradient id="SVGID_7_" gradientUnits="userSpaceOnUse" x1="357.8945" y1="39.25" x2="436.5947" y2="39.25">
		<stop  offset="0" style="stop-color:#8F641A"/>
		<stop  offset="0.1258" style="stop-color:#FFE4A4"/>
		<stop  offset="0.2546" style="stop-color:#F7F3E0"/>
		<stop  offset="0.3957" style="stop-color:#C4A25E"/>
		<stop  offset="0.5153" style="stop-color:#AB7F26"/>
		<stop  offset="0.6687" style="stop-color:#FFE7AD"/>
		<stop  offset="0.7914" style="stop-color:#EEE4C8"/>
		<stop  offset="0.9018" style="stop-color:#BD974C"/>
		<stop  offset="1" style="stop-color:#AB7F26"/>
	</linearGradient>
	<path class="st6" d="M370.6,68.1c-4-3.8-7.1-8.2-9.4-13.1c-2.2-4.9-3.3-10.2-3.3-15.7c0-5.5,1.1-10.8,3.3-15.7
		c2.2-4.9,5.3-9.3,9.4-13.1V68.1z M436.6,39.3c0,5.5-1,10.6-3.1,15.4c-2.1,4.8-4.9,8.9-8.4,12.5c-3.6,3.5-7.7,6.3-12.5,8.3
		c-4.8,2-9.9,3.1-15.3,3.1c-4.5,0-8.9-0.8-13.2-2.2c-4.2-1.5-8.1-3.7-11.7-6.6V8.9c3.5-2.9,7.4-5.1,11.6-6.6
		c4.2-1.5,8.6-2.2,13.2-2.2c5.5,0,10.6,1,15.4,3c4.8,2,9,4.8,12.5,8.4c3.5,3.6,6.3,7.7,8.4,12.5C435.6,28.7,436.6,33.8,436.6,39.3z
		 M433.2,39.2c0-5-0.9-9.7-2.8-14c-1.9-4.4-4.4-8.2-7.7-11.4c-3.3-3.2-7.1-5.8-11.5-7.6s-9.1-2.8-14.1-2.8c-4,0-7.9,0.6-11.6,1.9
		s-7.2,3.1-10.3,5.5v56.6c3.1,2.4,6.6,4.3,10.3,5.6s7.6,2,11.6,2c5,0,9.7-0.9,14.1-2.8c4.4-1.9,8.2-4.4,11.4-7.6s5.8-7,7.7-11.4
		C432.2,48.9,433.2,44.2,433.2,39.2z"/>
	<linearGradient id="SVGID_8_" gradientUnits="userSpaceOnUse" x1="443.8936" y1="39.2993" x2="464.8936" y2="39.2993">
		<stop  offset="0" style="stop-color:#8F641A"/>
		<stop  offset="0.1258" style="stop-color:#FFE4A4"/>
		<stop  offset="0.2546" style="stop-color:#F7F3E0"/>
		<stop  offset="0.3957" style="stop-color:#C4A25E"/>
		<stop  offset="0.5153" style="stop-color:#AB7F26"/>
		<stop  offset="0.6687" style="stop-color:#FFE7AD"/>
		<stop  offset="0.7914" style="stop-color:#EEE4C8"/>
		<stop  offset="0.9018" style="stop-color:#BD974C"/>
		<stop  offset="1" style="stop-color:#AB7F26"/>
	</linearGradient>
	<path class="st7" d="M448.5,76.9V4.5h-4.6V1.7h16v75.2H448.5z M462.1,76.9V1.7h2.8v75.2H462.1z"/>
	<linearGradient id="SVGID_9_" gradientUnits="userSpaceOnUse" x1="472.1934" y1="39.2993" x2="507.9941" y2="39.2993">
		<stop  offset="0" style="stop-color:#8F641A"/>
		<stop  offset="0.1258" style="stop-color:#FFE4A4"/>
		<stop  offset="0.2546" style="stop-color:#F7F3E0"/>
		<stop  offset="0.3957" style="stop-color:#C4A25E"/>
		<stop  offset="0.5153" style="stop-color:#AB7F26"/>
		<stop  offset="0.6687" style="stop-color:#FFE7AD"/>
		<stop  offset="0.7914" style="stop-color:#EEE4C8"/>
		<stop  offset="0.9018" style="stop-color:#BD974C"/>
		<stop  offset="1" style="stop-color:#AB7F26"/>
	</linearGradient>
	<path class="st8" d="M472.2,4.5V1.7h16v75.2h-11.4V4.5H472.2z M490.4,76.9V1.7c3.2,0,6,0.6,8.5,1.7c2.5,1.1,4.6,2.9,6.2,5.3v-7h2.8
		v75.2h-2.8v-59c0-1.7-0.3-3.3-0.9-4.8c-0.6-1.5-1.4-2.9-2.5-4.1c-1.1-1.2-2.4-2.2-3.9-2.9c-1.5-0.8-3-1.2-4.7-1.4v72.3H490.4z"/>
	<linearGradient id="SVGID_10_" gradientUnits="userSpaceOnUse" x1="515.293" y1="39.2993" x2="562.1924" y2="39.2993">
		<stop  offset="0" style="stop-color:#8F641A"/>
		<stop  offset="0.1258" style="stop-color:#FFE4A4"/>
		<stop  offset="0.2546" style="stop-color:#F7F3E0"/>
		<stop  offset="0.3957" style="stop-color:#C4A25E"/>
		<stop  offset="0.5153" style="stop-color:#AB7F26"/>
		<stop  offset="0.6687" style="stop-color:#FFE7AD"/>
		<stop  offset="0.7914" style="stop-color:#EEE4C8"/>
		<stop  offset="0.9018" style="stop-color:#BD974C"/>
		<stop  offset="1" style="stop-color:#AB7F26"/>
	</linearGradient>
	<path class="st9" d="M530.1,76.9V4.5h-14.8V1.7h26.5v75.2H530.1z M546.6,4.5v72.4h-2.8V1.7h18.4v2.8H546.6z"/>
</g>
</svg>
