<!-- Generator: Adobe Illustrator 19.2.1, SVG Export Plug-In  -->
<svg version="1.1"
	 xmlns="http://www.w3.org/2000/svg" xmlns:xlink="http://www.w3.org/1999/xlink" xmlns:a="http://ns.adobe.com/AdobeSVGViewerExtensions/3.0/"
	 x="0px" y="0px" width="548.9px" height="83.8px" viewBox="0 0 548.9 83.8" style="enable-background:new 0 0 548.9 83.8;"
	 xml:space="preserve">
<defs>
</defs>
<g>
	<path d="M133.2,57.1c-2.1,2.1-4.5,3.1-7.5,3.1c-2.9,0-5.4-1-7.4-3.1c-2.1-2.1-3.1-4.5-3.1-7.4V19.5h4.5c0,5,0,10,0,15
		c0,5,0,10.1,0,15.1c0,1.7,0.6,3.1,1.8,4.3c1.2,1.2,2.6,1.8,4.3,1.8c1.7,0,3.1-0.6,4.3-1.8c1.2-1.2,1.8-2.6,1.8-4.3V19.5h4.4
		c0,5,0,10,0,15c0,5,0,10.1,0,15.1C136.3,52.5,135.3,55,133.2,57.1z"/>
	<path d="M152.7,56.4c-2.5,2.6-5.6,3.8-9.1,3.8v-4.5c2.3,0,4.3-0.8,6-2.5c1.7-1.7,2.5-3.7,2.5-6c0-0.2,0-0.4,0-0.5
		c0-0.2,0-0.3-0.1-0.5c-0.1-0.9-0.3-1.8-0.7-2.7c-0.4-0.9-0.9-1.6-1.6-2.2c-0.9-0.8-1.9-1.7-2.9-2.5c-1-0.8-1.9-1.7-2.9-2.5
		c-1-0.9-1.8-2-2.3-3.2c-0.5-1.2-0.8-2.5-0.8-3.9c0-2.7,1-5,2.9-6.9c1.9-1.9,4.2-2.9,6.9-2.9V24c-1.5,0-2.7,0.5-3.8,1.5
		c-1,1-1.6,2.3-1.6,3.8c0,0.1,0,0.2,0,0.3c0,0.1,0,0.2,0.1,0.3c0,0.6,0.2,1.1,0.4,1.7c0.2,0.5,0.5,1,1,1.4c1,0.8,1.9,1.7,2.9,2.5
		c1,0.8,1.9,1.7,2.9,2.5c1.3,1.1,2.2,2.5,2.8,4c0.6,1.6,1,3.2,1.1,4.8c0,0.1,0,0.1,0,0.2s0,0.1,0,0.2
		C156.4,50.8,155.2,53.8,152.7,56.4z"/>
	<path d="M167.4,54.1c-3.9-4-5.9-8.7-5.9-14.3c0-1,0-2.1,0-3.2c0-1.1,0-2.1,0-3.2h-2.6V29h2.6v-9.5h19.8V24H166v5h15.6v4.5H166
		c0,1,0,2.1,0,3.2c0,1.1,0,2.1,0,3.2c0,4.3,1.5,8,4.5,11.1c3,3.1,6.7,4.7,11.1,4.8v4.5C176.1,60.1,171.4,58.1,167.4,54.1z"/>
	<path d="M217.9,32v28.2h-4.4V32l-9-12.5h5.5l5.8,7.9l5.8-7.9h5.5L217.9,32z"/>
	<path d="M259.8,54.2c-4,4-8.8,6-14.3,6s-10.4-2-14.3-6c-4-4-6-8.8-6-14.4c0-5.6,2-10.4,6-14.3c4-4,8.8-6,14.3-6s10.4,2,14.3,6
		c4,4,6,8.8,6,14.3C265.7,45.5,263.8,50.2,259.8,54.2z M256.7,28.7c-3.1-3.1-6.8-4.6-11.2-4.6c-4.4,0-8.1,1.5-11.2,4.6
		c-3.1,3.1-4.7,6.8-4.7,11.2c0,4.4,1.6,8.1,4.7,11.2c3.1,3.1,6.8,4.7,11.2,4.7c4.4,0,8.1-1.6,11.2-4.7c3.1-3.1,4.6-6.8,4.6-11.2
		C261.3,35.5,259.8,31.8,256.7,28.7z"/>
	<path d="M288.1,57.1c-2.1,2.1-4.5,3.1-7.5,3.1c-2.9,0-5.4-1-7.4-3.1c-2.1-2.1-3.1-4.5-3.1-7.4V19.5h4.5c0,5,0,10,0,15
		c0,5,0,10.1,0,15.1c0,1.7,0.6,3.1,1.8,4.3c1.2,1.2,2.6,1.8,4.3,1.8c1.7,0,3.1-0.6,4.3-1.8c1.2-1.2,1.8-2.6,1.8-4.3V19.5h4.4
		c0,5,0,10,0,15c0,5,0,10.1,0,15.1C291.2,52.5,290.1,55,288.1,57.1z"/>
	<path d="M307,58.4c-2.6-1.2-4.8-2.9-6.7-4.9v6.8h-4.4V19.5c0.3,0,0.6,0,0.8,0c0.3,0,0.5,0,0.8,0c0.3,0,0.5,0,0.8,0
		c0.3,0,0.6,0,0.8,0c4.3,0,8,1.5,11,4.6c3.1,3,4.6,6.7,4.6,11c0,3.5-1.1,6.7-3.2,9.5c-2.2,2.8-4.9,4.6-8.2,5.6
		c1.4,1.8,3.2,3.1,5.3,4.1s4.3,1.5,6.6,1.5v4.5C312.4,60.2,309.6,59.6,307,58.4z M307.5,27.6c-1.9-2.1-4.3-3.3-7.1-3.6v22.1
		c2.8-0.3,5.2-1.5,7.1-3.6c1.9-2.1,2.9-4.6,2.9-7.5C310.3,32.2,309.4,29.8,307.5,27.6z"/>
	<path d="M352.6,60.2V29.2c-1.3-1.4-2.9-2.5-4.6-3.4c-1.7-0.9-3.5-1.4-5.4-1.7v36h-4.5V19.5c0.4,0,0.8,0,1.2,0s0.7,0,1.1,0
		c2.2,0,4.3,0.4,6.4,1.1c2.1,0.7,4,1.6,5.8,2.9v-3.9h4.4v40.7H352.6z"/>
	<path d="M370,54.1c-3.9-4-5.9-8.7-5.9-14.3c0-1,0-2.1,0-3.2c0-1.1,0-2.1,0-3.2h-2.6V29h2.6v-9.5h19.8V24h-15.3v5h15.6v4.5h-15.6
		c0,1,0,2.1,0,3.2c0,1.1,0,2.1,0,3.2c0,4.3,1.5,8,4.5,11.1c3,3.1,6.7,4.7,11.1,4.8v4.5C378.7,60.1,374,58.1,370,54.1z"/>
	<path d="M401.5,24v36.2h-4.4V24h-8v-4.5h20.4V24H401.5z"/>
	<path d="M442.6,60.2l-4.3,0.1l-5.1-17.8l-5,17.8l-4.3-0.1l-10.2-40.7h4.6l7.8,31.8l5-17.6h4.3l5,17.6l7.7-31.8h4.6L442.6,60.2z"/>
	<path d="M490,54.2c-4,4-8.8,6-14.3,6s-10.4-2-14.3-6c-4-4-6-8.8-6-14.4c0-5.6,2-10.4,6-14.3c4-4,8.8-6,14.3-6s10.4,2,14.3,6
		c4,4,6,8.8,6,14.3C496,45.5,494,50.2,490,54.2z M486.9,28.7c-3.1-3.1-6.8-4.6-11.2-4.6c-4.4,0-8.1,1.5-11.2,4.6
		c-3.1,3.1-4.7,6.8-4.7,11.2c0,4.4,1.6,8.1,4.7,11.2c3.1,3.1,6.8,4.7,11.2,4.7c4.4,0,8.1-1.6,11.2-4.7c3.1-3.1,4.6-6.8,4.6-11.2
		C491.6,35.5,490,31.8,486.9,28.7z"/>
	<path d="M511.4,58.4c-2.6-1.2-4.8-2.9-6.7-4.9v6.8h-4.4V19.5c0.3,0,0.6,0,0.8,0c0.3,0,0.5,0,0.8,0c0.3,0,0.5,0,0.8,0
		c0.3,0,0.6,0,0.8,0c4.3,0,8,1.5,11,4.6c3.1,3,4.6,6.7,4.6,11c0,3.5-1.1,6.7-3.2,9.5c-2.2,2.8-4.9,4.6-8.2,5.6
		c1.4,1.8,3.2,3.1,5.3,4.1s4.3,1.5,6.6,1.5v4.5C516.8,60.2,514,59.6,511.4,58.4z M511.9,27.6c-1.9-2.1-4.3-3.3-7.1-3.6v22.1
		c2.8-0.3,5.2-1.5,7.1-3.6c1.9-2.1,2.9-4.6,2.9-7.5C514.7,32.2,513.8,29.8,511.9,27.6z"/>
	<path d="M544.2,60.2L532.7,31l-3.9,4.4v24.8h-4.4V19.5h4.4v9.2l8.3-9.2h5.9l-7,7.8l12.9,32.9H544.2z"/>
</g>
<g>
	<path d="M32.3,18.4c3,0,5.8,0.4,8.6,1.1c2.8,0.8,5.5,1.9,8,3.5v55.5c-2.5,1.4-5.2,2.6-7.9,3.3c-2.8,0.8-5.6,1.2-8.6,1.2
		c-4.5,0-8.7-0.8-12.6-2.5c-4-1.7-7.4-4-10.3-6.9s-5.2-6.4-6.9-10.3C0.8,59.3,0,55.1,0,50.7c0-4,0.8-7.9,2.3-11.6
		c1.5-3.7,3.6-7.1,6.3-10.1l2.4,1.9c-2.5,2.7-4.5,5.8-5.8,9.2C3.7,43.5,3,47,3,50.7c0,4.1,0.8,7.9,2.3,11.5c1.5,3.6,3.6,6.7,6.3,9.3
		c2.7,2.6,5.8,4.7,9.4,6.3c3.6,1.5,7.4,2.3,11.4,2.3c2.3,0,4.6-0.3,6.9-0.9s4.5-1.4,6.6-2.4V24.7c-4.2-2.2-8.7-3.3-13.4-3.3
		c-0.6,0-1.3,0-1.9,0.1c-0.6,0-1.3,0.1-1.8,0.3L27.4,19L42.7,3H16.3V0h33.5L32.3,18.4z M51,24.3c4.2,3,7.5,6.8,10,11.4
		c2.5,4.6,3.7,9.5,3.7,14.6c0,5.5-1.2,10.5-3.5,15.1c-2.3,4.6-5.7,8.5-10.3,11.7V24.3z"/>
	<path d="M88.9,82.4c-0.9,0.4-1.7,0.7-2.6,1c-0.9,0.3-1.9,0.4-2.9,0.4c-1.5,0-2.9-0.3-4.2-0.8c-1.3-0.5-2.4-1.3-3.4-2.2
		c-1-0.9-1.7-2.1-2.3-3.3s-0.9-2.7-0.9-4.2c0-3,1-5.6,3.1-7.6c2.1-2.1,4.6-3.1,7.7-3.1c1,0,2,0.1,2.9,0.3c0.9,0.2,1.8,0.6,2.6,1.2
		V82.4z M94.1,73.2c0,2.8-1,5.3-3,7.5V65.8c1,1,1.8,2.2,2.3,3.5S94.1,71.9,94.1,73.2z"/>
</g>
</svg>
