<!-- Generator: Adobe Illustrator 19.2.1, SVG Export Plug-In  -->
<svg version="1.1"
	 xmlns="http://www.w3.org/2000/svg" xmlns:xlink="http://www.w3.org/1999/xlink" xmlns:a="http://ns.adobe.com/AdobeSVGViewerExtensions/3.0/"
	 x="0px" y="0px" width="1597.9px" height="178.7px" viewBox="0 0 1597.9 178.7" style="enable-background:new 0 0 1597.9 178.7;"
	 xml:space="preserve">
<defs>
</defs>
<g>
	<path d="M34.1,69.8V25.3H12.2v44.5H4.8V25.3H0v-7.5h4.8V2h7.5v15.8h21.9V2h7.5v67.8H34.1z"/>
	<path d="M64.2,59.6c-6.6-6.6-9.9-14.6-9.9-23.8c0-1.7,0-3.5,0-5.3c0-1.8,0-3.5,0-5.3H50v-7.5h4.3V2h32.9v7.5H61.8v8.4h25.9v7.5
		H61.8c0,1.7,0,3.5,0,5.3c0,1.8,0,3.5,0,5.3c0,7.2,2.5,13.4,7.6,18.5c5,5.2,11.2,7.8,18.4,7.9v7.6C78.7,69.7,70.8,66.3,64.2,59.6z"
		/>
	<path d="M114.4,66.7c-4.3-2-8-4.8-11.2-8.2v11.2h-7.4V2c0.5,0,0.9,0,1.4,0s0.9,0,1.4,0c0.4,0,0.9,0,1.3,0c0.5,0,0.9,0,1.3,0
		c7.1,0,13.3,2.5,18.4,7.6c5.1,5.1,7.7,11.2,7.7,18.3c0,5.9-1.8,11.1-5.4,15.8c-3.6,4.6-8.2,7.7-13.7,9.3c2.4,2.9,5.3,5.2,8.8,6.9
		c3.5,1.7,7.1,2.5,11,2.5v7.5C123.3,69.8,118.7,68.7,114.4,66.7z M115.1,15.5c-3.2-3.5-7.1-5.5-11.9-5.9v36.8
		c4.7-0.5,8.6-2.5,11.8-6c3.2-3.5,4.8-7.7,4.8-12.4C119.9,23.2,118.3,19,115.1,15.5z"/>
	<path d="M149.2,59.6c-6.6-6.6-9.9-14.6-9.9-23.8c0-1.7,0-3.5,0-5.3c0-1.8,0-3.5,0-5.3H135v-7.5h4.3V2h32.9v7.5h-25.5v8.4h25.9v7.5
		h-25.9c0,1.7,0,3.5,0,5.3c0,1.8,0,3.5,0,5.3c0,7.2,2.5,13.4,7.6,18.5c5,5.2,11.2,7.8,18.5,7.9v7.6
		C163.6,69.7,155.7,66.3,149.2,59.6z"/>
	<path d="M188.6,9.5c-0.3,0.6-0.6,1.2-0.8,1.8c-0.3,0.6-0.6,1.2-0.9,1.8c-0.3,0.6-0.6,1.2-0.9,1.8l-2.9-1.3l1.5-3.3
		c-0.2-0.1-0.5-0.1-0.7-0.2c-0.2-0.1-0.5-0.1-0.8-0.3c-0.8-0.4-1.5-1-2-1.8c-0.5-0.8-0.7-1.6-0.6-2.4c0-0.4,0-0.7,0.1-1.1
		c0.1-0.4,0.2-0.7,0.4-1c0.4-0.8,1-1.5,1.8-2c0.8-0.5,1.6-0.7,2.4-0.7c0.4,0,0.7,0,1.1,0.1c0.4,0.1,0.7,0.2,1,0.4
		c0.8,0.4,1.5,1,2,1.8c0.5,0.8,0.7,1.6,0.7,2.5c0,0.2,0,0.3,0,0.5c0,0.2,0,0.3,0,0.5c-0.1,0.2-0.1,0.3-0.2,0.5
		c-0.1,0.2-0.1,0.3-0.2,0.5C189.2,8.3,188.9,8.9,188.6,9.5z"/>
	<path d="M216.4,63.4c-4.2,4.3-9.3,6.4-15.2,6.4v-7.5c3.9,0,7.2-1.4,10-4.2c2.8-2.8,4.1-6.1,4.1-9.9c0-0.3,0-0.6,0-0.9
		s0-0.5-0.1-0.8c-0.1-1.6-0.5-3.1-1.1-4.5c-0.6-1.4-1.5-2.7-2.7-3.7c-1.6-1.4-3.2-2.8-4.8-4.2c-1.6-1.4-3.2-2.8-4.9-4.1
		c-1.7-1.5-2.9-3.3-3.8-5.4c-0.8-2.1-1.3-4.2-1.3-6.4c0-4.4,1.6-8.3,4.8-11.5c3.2-3.2,7.1-4.8,11.6-4.8v7.5c-2.5,0-4.6,0.9-6.3,2.6
		c-1.7,1.7-2.6,3.8-2.6,6.3c0,0.2,0,0.4,0,0.5s0,0.4,0.1,0.5c0.1,1,0.3,1.9,0.6,2.8c0.4,0.9,0.9,1.7,1.6,2.2
		c1.6,1.4,3.2,2.8,4.9,4.1c1.6,1.4,3.2,2.8,4.9,4.1c2.1,1.9,3.7,4.1,4.7,6.7c1,2.6,1.6,5.3,1.8,8.1c0,0.1,0,0.2,0,0.4
		c0,0.1,0,0.2,0,0.4C222.7,54,220.6,59.1,216.4,63.4z"/>
	<path d="M274,25.3v44.5h-7.4V25.3h-4.8v-7.5h4.8V2h29.6v7.5H274v8.4h23v7.5H274z"/>
	<path d="M304.7,69.8V2h7.4v67.8H304.7z"/>
	<path d="M346.4,69.8h-7L318,2h7.8l17.1,55.1L360,2h7.8L346.4,69.8z"/>
	<path d="M385.6,59.6c-6.6-6.6-9.9-14.6-9.9-23.8c0-1.7,0-3.5,0-5.3c0-1.8,0-3.5,0-5.3h-4.3v-7.5h4.3V2h32.9v7.5h-25.5v8.4h25.9v7.5
		h-25.9c0,1.7,0,3.5,0,5.3c0,1.8,0,3.5,0,5.3c0,7.2,2.5,13.4,7.6,18.5c5,5.2,11.2,7.8,18.5,7.9v7.6C400,69.7,392.2,66.3,385.6,59.6z
		"/>
	<path d="M458.8,59.8c-6.6-6.6-9.9-14.6-9.9-24c0-9.3,3.3-17.3,9.9-23.9c6.6-6.6,14.6-9.9,23.9-9.9v7.5c-7.3,0-13.5,2.6-18.7,7.7
		c-5.2,5.2-7.8,11.4-7.8,18.6c0,7.3,2.6,13.5,7.8,18.7c5.2,5.2,11.4,7.8,18.7,7.8v7.5C473.4,69.8,465.4,66.4,458.8,59.8z"/>
	<path d="M490.3,69.8V2h7.5v60.3h21.8v7.5H490.3z"/>
	<path d="M530,59.6c-6.6-6.6-9.9-14.6-9.9-23.8c0-1.7,0-3.5,0-5.3c0-1.8,0-3.5,0-5.3h-4.3v-7.5h4.3V2h32.9v7.5h-25.5v8.4h25.9v7.5
		h-25.9c0,1.7,0,3.5,0,5.3c0,1.8,0,3.5,0,5.3c0,7.2,2.5,13.4,7.6,18.5c5,5.2,11.2,7.8,18.5,7.9v7.6C544.5,69.7,536.6,66.3,530,59.6z
		"/>
	<path d="M588.4,69.8h-7L560,2h7.8l17.1,55.1L602,2h7.8L588.4,69.8z"/>
	<path d="M627.6,59.6c-6.6-6.6-9.9-14.6-9.9-23.8c0-1.7,0-3.5,0-5.3c0-1.8,0-3.5,0-5.3h-4.3v-7.5h4.3V2h32.9v7.5h-25.5v8.4h25.9v7.5
		h-25.9c0,1.7,0,3.5,0,5.3c0,1.8,0,3.5,0,5.3c0,7.2,2.5,13.4,7.6,18.5c5,5.2,11.2,7.8,18.4,7.9v7.6
		C642.1,69.7,634.2,66.3,627.6,59.6z"/>
	<path d="M677.8,66.7c-4.3-2-8-4.8-11.2-8.2v11.2h-7.4V2c0.5,0,0.9,0,1.4,0s0.9,0,1.4,0c0.4,0,0.9,0,1.3,0c0.5,0,0.9,0,1.3,0
		c7.1,0,13.3,2.5,18.4,7.6c5.1,5.1,7.7,11.2,7.7,18.3c0,5.9-1.8,11.1-5.4,15.8c-3.6,4.6-8.2,7.7-13.7,9.3c2.4,2.9,5.3,5.2,8.8,6.9
		c3.5,1.7,7.1,2.5,11,2.5v7.5C686.7,69.8,682.1,68.7,677.8,66.7z M678.5,15.5c-3.2-3.5-7.1-5.5-11.9-5.9v36.8
		c4.7-0.5,8.6-2.5,11.8-6c3.2-3.5,4.8-7.7,4.8-12.4C683.3,23.2,681.7,19,678.5,15.5z"/>
	<path d="M754.7,45.5c-4.6,5-10.3,7.8-17.1,8.3v15.9h-7.5V2c0.5,0,0.9,0,1.4,0c0.5,0,0.9,0,1.4,0c0.5,0,0.9,0,1.4,0
		c0.5,0,0.9,0,1.4,0c7.1,0,13.2,2.5,18.3,7.6c5.1,5.1,7.6,11.2,7.6,18.3C761.7,34.6,759.3,40.5,754.7,45.5z M749.5,15.5
		c-3.2-3.5-7.1-5.5-11.9-5.9v36.8c4.7-0.5,8.6-2.5,11.8-6c3.2-3.5,4.8-7.7,4.8-12.4C754.3,23.2,752.7,19,749.5,15.5z"/>
	<path d="M786.9,66.7c-4.3-2-8-4.8-11.2-8.2v11.2h-7.4V2c0.5,0,0.9,0,1.4,0c0.4,0,0.9,0,1.4,0c0.4,0,0.9,0,1.3,0s0.9,0,1.4,0
		c7.1,0,13.3,2.5,18.4,7.6c5.1,5.1,7.6,11.2,7.6,18.3c0,5.9-1.8,11.1-5.4,15.8c-3.6,4.6-8.2,7.7-13.7,9.3c2.4,2.9,5.3,5.2,8.8,6.9
		c3.4,1.7,7.1,2.5,11,2.5v7.5C795.8,69.8,791.3,68.7,786.9,66.7z M787.7,15.5c-3.2-3.5-7.1-5.5-11.9-5.9v36.8
		c4.7-0.5,8.6-2.5,11.8-6c3.2-3.5,4.8-7.7,4.8-12.4C792.4,23.2,790.8,19,787.7,15.5z"/>
	<path d="M865.5,59.8c-6.6,6.6-14.6,9.9-23.9,9.9c-9.3,0-17.3-3.3-23.9-9.9c-6.6-6.6-9.9-14.6-9.9-24c0-9.3,3.3-17.3,9.9-23.9
		c6.6-6.6,14.6-9.9,23.9-9.9c9.3,0,17.3,3.3,23.9,9.9c6.6,6.6,9.9,14.6,9.9,23.9C875.4,45.2,872.1,53.2,865.5,59.8z M860.3,17.2
		c-5.2-5.2-11.4-7.7-18.7-7.7c-7.3,0-13.5,2.6-18.7,7.7c-5.2,5.2-7.8,11.4-7.8,18.6c0,7.3,2.6,13.5,7.8,18.7
		c5.2,5.2,11.4,7.8,18.7,7.8c7.3,0,13.6-2.6,18.7-7.8c5.2-5.2,7.7-11.4,7.7-18.7C868,28.6,865.5,22.4,860.3,17.2z"/>
	<path d="M917.7,69.8V15.1l-14.2,11.2l-14.2-11.2v54.6h-7.4V0l21.6,16.9L925.1,0v69.8H917.7z"/>
	<path d="M990.6,59.8c-6.6,6.6-14.6,9.9-23.9,9.9c-9.3,0-17.3-3.3-23.9-9.9c-6.6-6.6-9.9-14.6-9.9-24c0-9.3,3.3-17.3,9.9-23.9
		c6.6-6.6,14.6-9.9,23.9-9.9c9.3,0,17.3,3.3,23.9,9.9c6.6,6.6,9.9,14.6,9.9,23.9C1000.5,45.2,997.2,53.2,990.6,59.8z M985.4,17.2
		c-5.2-5.2-11.4-7.7-18.7-7.7c-7.3,0-13.5,2.6-18.7,7.7c-5.2,5.2-7.8,11.4-7.8,18.6c0,7.3,2.6,13.5,7.8,18.7
		c5.2,5.2,11.4,7.8,18.7,7.8c7.3,0,13.6-2.6,18.7-7.8c5.2-5.2,7.7-11.4,7.7-18.7C993.1,28.6,990.6,22.4,985.4,17.2z"/>
	<path d="M1073.8,69.8V25.3h-21.9v44.5h-7.5V25.3h-4.8v-7.5h4.8V2h7.5v15.8h21.9V2h7.5v67.8H1073.8z"/>
	<path d="M1131.7,69.8l-5.1-16.5h-23.4l-5.1,16.5h-7.8l5.2-16.5h-4v-7.7h6.3l13.6-43.3h7l21.1,67.5H1131.7z M1114.9,15.8l-9.3,29.7
		h18.5L1114.9,15.8z"/>
	<path d="M1151.6,59.8c-6.6-6.6-9.9-14.6-9.9-24c0-9.3,3.3-17.3,9.9-23.9c6.6-6.6,14.6-9.9,23.9-9.9v7.5c-7.3,0-13.5,2.6-18.7,7.7
		c-5.2,5.2-7.8,11.4-7.8,18.6c0,7.3,2.6,13.5,7.8,18.7c5.2,5.2,11.4,7.8,18.7,7.8v7.5C1166.2,69.8,1158.2,66.4,1151.6,59.8z"/>
	<path d="M1216.9,69.8l-19.2-48.7l-6.6,7.3v41.4h-7.4V2h7.4v15.3L1205,2h9.9l-11.6,13l21.5,54.8H1216.9z"/>
	<path d="M1245.1,63.4c-4.2,4.3-9.3,6.4-15.2,6.4v-7.5c3.9,0,7.2-1.4,10-4.2c2.8-2.8,4.1-6.1,4.1-9.9c0-0.3,0-0.6,0-0.9
		s0-0.5-0.1-0.8c-0.1-1.6-0.5-3.1-1.1-4.5c-0.6-1.4-1.5-2.7-2.7-3.7c-1.6-1.4-3.2-2.8-4.8-4.2c-1.6-1.4-3.2-2.8-4.9-4.1
		c-1.7-1.5-2.9-3.3-3.8-5.4c-0.8-2.1-1.3-4.2-1.3-6.4c0-4.4,1.6-8.3,4.8-11.5c3.2-3.2,7.1-4.8,11.6-4.8v7.5c-2.5,0-4.6,0.9-6.3,2.6
		s-2.6,3.8-2.6,6.3c0,0.2,0,0.4,0,0.5s0,0.4,0.1,0.5c0.1,1,0.3,1.9,0.6,2.8s0.9,1.7,1.6,2.2c1.6,1.4,3.2,2.8,4.9,4.1
		c1.6,1.4,3.2,2.8,4.9,4.1c2.1,1.9,3.7,4.1,4.7,6.7c1,2.6,1.6,5.3,1.8,8.1c0,0.1,0,0.2,0,0.4c0,0.1,0,0.2,0,0.4
		C1251.4,54,1249.3,59.1,1245.1,63.4z"/>
	<path d="M1311.2,9.5v60.3h-7.4V9.5h-13.3V2h34v7.5H1311.2z"/>
	<path d="M1384.9,59.8c-6.6,6.6-14.6,9.9-23.9,9.9c-9.3,0-17.3-3.3-23.9-9.9c-6.6-6.6-9.9-14.6-9.9-24c0-9.3,3.3-17.3,9.9-23.9
		c6.6-6.6,14.6-9.9,23.9-9.9c9.3,0,17.3,3.3,23.9,9.9c6.6,6.6,9.9,14.6,9.9,23.9C1394.9,45.2,1391.6,53.2,1384.9,59.8z M1379.8,17.2
		c-5.2-5.2-11.4-7.7-18.7-7.7c-7.3,0-13.5,2.6-18.7,7.7c-5.2,5.2-7.8,11.4-7.8,18.6c0,7.3,2.6,13.5,7.8,18.7
		c5.2,5.2,11.4,7.8,18.7,7.8c7.3,0,13.6-2.6,18.7-7.8c5.2-5.2,7.7-11.4,7.7-18.7C1387.5,28.6,1384.9,22.4,1379.8,17.2z"/>
	<path d="M1468.2,69.8V25.3h-21.9v44.5h-7.5V25.3h-4.8v-7.5h4.8V2h7.5v15.8h21.9V2h7.5v67.8H1468.2z"/>
	<path d="M1498.3,59.6c-6.6-6.6-9.9-14.6-9.9-23.8c0-1.7,0-3.5,0-5.3c0-1.8,0-3.5,0-5.3h-4.3v-7.5h4.3V2h32.9v7.5h-25.5v8.4h25.9
		v7.5h-25.9c0,1.7,0,3.5,0,5.3c0,1.8,0,3.5,0,5.3c0,7.2,2.5,13.4,7.6,18.5c5,5.2,11.2,7.8,18.4,7.9v7.6
		C1512.7,69.7,1504.8,66.3,1498.3,59.6z"/>
	<path d="M1529.7,69.8V2h7.5v60.3h21.8v7.5H1529.7z"/>
	<path d="M1591,45.5c-4.6,5-10.3,7.8-17.1,8.3v15.9h-7.5V2c0.5,0,0.9,0,1.4,0c0.5,0,0.9,0,1.4,0c0.5,0,0.9,0,1.4,0
		c0.5,0,0.9,0,1.4,0c7.1,0,13.2,2.5,18.3,7.6c5.1,5.1,7.6,11.2,7.6,18.3C1597.9,34.6,1595.6,40.5,1591,45.5z M1585.8,15.5
		c-3.2-3.5-7.1-5.5-11.9-5.9v36.8c4.7-0.5,8.6-2.5,11.8-6c3.2-3.5,4.8-7.7,4.8-12.4C1590.5,23.2,1589,19,1585.8,15.5z"/>
	<path d="M131.1,175.7c-3.2,1.4-6.5,2.1-10,2.1c-0.5,0-0.9,0-1.4,0c-0.4,0-0.9,0-1.4,0c-0.5,0-0.9,0-1.4,0c-0.4,0-0.9,0-1.4,0V110
		c0.5,0,0.9,0,1.4,0c0.5,0,0.9,0,1.4,0c0.5,0,0.9,0,1.4,0c0.5,0,0.9,0,1.4,0c3.4,0,6.1,1.2,8.3,3.6c2.2,2.4,3.3,5.1,3.3,8.1
		c0,1-0.1,2-0.4,3.1c-0.3,1-0.7,2-1.4,3.1c5.2,2.1,9.1,5.4,11.9,9.9c2.8,4.5,4.2,9.3,4.2,14.3c0,0.4,0,0.7,0,1.1c0,0.4,0,0.7,0,1.1
		c-0.3,2.8-1.1,5.6-2.2,8.4c-1.2,2.8-3,5.3-5.3,7.6C137,172.4,134.2,174.3,131.1,175.7z M124.7,123.8c0.4-0.7,0.5-1.4,0.5-2.2
		c0-0.8-0.2-1.5-0.6-2.2c-0.4-0.7-1-1.2-1.8-1.6v7.6C123.8,125,124.4,124.5,124.7,123.8z M134.8,139.4c-3.2-3.5-7.2-5.5-11.8-6v36.8
		c4.7-0.5,8.6-2.5,11.8-6c3.2-3.5,4.8-7.6,4.8-12.4C139.6,147.1,138,143,134.8,139.4z"/>
	<path d="M212.2,167.8c-6.6,6.6-14.6,9.9-23.9,9.9c-9.3,0-17.3-3.3-23.9-9.9c-6.6-6.6-9.9-14.6-9.9-24c0-9.3,3.3-17.3,9.9-23.9
		c6.6-6.6,14.6-9.9,23.9-9.9c9.3,0,17.3,3.3,23.9,9.9c6.6,6.6,9.9,14.6,9.9,23.9C222.1,153.2,218.8,161.2,212.2,167.8z M207,125.2
		c-5.2-5.2-11.4-7.7-18.7-7.7c-7.3,0-13.5,2.6-18.7,7.7c-5.2,5.2-7.8,11.4-7.8,18.6c0,7.3,2.6,13.5,7.8,18.7
		c5.2,5.2,11.4,7.8,18.7,7.8c7.3,0,13.6-2.6,18.7-7.8c5.2-5.2,7.7-11.4,7.7-18.7C214.7,136.6,212.2,130.4,207,125.2z"/>
	<path d="M286.9,167.8c-6.6,6.6-14.6,9.9-23.9,9.9c-9.3,0-17.3-3.3-23.9-9.9c-6.6-6.6-9.9-14.6-9.9-24c0-9.3,3.3-17.3,9.9-23.9
		c6.6-6.6,14.6-9.9,23.9-9.9c9.3,0,17.3,3.3,23.9,9.9c6.6,6.6,9.9,14.6,9.9,23.9C296.8,153.2,293.5,161.2,286.9,167.8z M281.7,125.2
		c-5.2-5.2-11.4-7.7-18.7-7.7c-7.3,0-13.5,2.6-18.7,7.7c-5.2,5.2-7.8,11.4-7.8,18.6c0,7.3,2.6,13.5,7.8,18.7
		c5.2,5.2,11.4,7.8,18.7,7.8c7.3,0,13.6-2.6,18.7-7.8c5.2-5.2,7.7-11.4,7.7-18.7C289.4,136.6,286.9,130.4,281.7,125.2z"/>
	<path d="M321.4,171.4c-4.2,4.3-9.3,6.4-15.2,6.4v-7.5c3.9,0,7.2-1.4,10-4.2c2.8-2.8,4.1-6.1,4.1-9.9c0-0.3,0-0.6,0-0.9
		s0-0.5-0.1-0.8c-0.1-1.6-0.5-3.1-1.1-4.5c-0.6-1.4-1.5-2.7-2.7-3.7c-1.6-1.4-3.2-2.8-4.8-4.2c-1.6-1.4-3.2-2.8-4.9-4.1
		c-1.7-1.5-2.9-3.3-3.8-5.4c-0.8-2.1-1.3-4.2-1.3-6.4c0-4.4,1.6-8.3,4.8-11.5c3.2-3.2,7.1-4.8,11.6-4.8v7.5c-2.5,0-4.6,0.9-6.3,2.6
		s-2.6,3.8-2.6,6.3c0,0.2,0,0.4,0,0.5s0,0.4,0.1,0.5c0.1,1,0.3,1.9,0.6,2.8s0.9,1.7,1.6,2.2c1.6,1.4,3.2,2.8,4.9,4.1
		c1.6,1.4,3.2,2.8,4.9,4.1c2.1,1.9,3.7,4.1,4.7,6.7c1,2.6,1.6,5.3,1.8,8.1c0,0.1,0,0.2,0,0.4c0,0.1,0,0.2,0,0.4
		C327.7,162,325.6,167.1,321.4,171.4z"/>
	<path d="M347,117.5v60.3h-7.4v-60.3h-13.3V110h34v7.5H347z"/>
	<path d="M399.4,177.8V110h7.4v67.8H399.4z"/>
	<path d="M437.8,177.8v-51.6c-2.2-2.3-4.8-4.2-7.6-5.6c-2.9-1.5-5.9-2.4-9-2.8v60h-7.5V110c0.7,0,1.3,0,1.9,0s1.2,0,1.8,0
		c3.7,0.1,7.2,0.6,10.7,1.8c3.5,1.1,6.7,2.7,9.6,4.8V110h7.4v67.8H437.8z"/>
	<path d="M473.2,117.5v60.3h-7.4v-60.3h-13.3V110h34v7.5H473.2z"/>
	<path d="M506.2,167.6c-6.6-6.6-9.9-14.6-9.9-23.8c0-1.7,0-3.5,0-5.3c0-1.8,0-3.5,0-5.3H492v-7.5h4.3V110h32.9v7.5h-25.5v8.4h25.9
		v7.5h-25.9c0,1.7,0,3.5,0,5.3c0,1.8,0,3.5,0,5.3c0,7.2,2.5,13.4,7.6,18.5c5,5.2,11.2,7.8,18.5,7.9v7.6
		C520.6,177.7,512.8,174.3,506.2,167.6z"/>
	<path d="M556.4,174.7c-4.3-2-8-4.8-11.2-8.2v11.2h-7.4V110c0.5,0,0.9,0,1.4,0c0.4,0,0.9,0,1.4,0c0.4,0,0.9,0,1.3,0s0.9,0,1.4,0
		c7.1,0,13.3,2.5,18.4,7.6c5.1,5.1,7.6,11.2,7.6,18.3c0,5.9-1.8,11.1-5.4,15.8c-3.6,4.6-8.2,7.7-13.7,9.3c2.4,2.9,5.3,5.2,8.8,6.9
		c3.4,1.7,7.1,2.5,11,2.5v7.5C565.3,177.8,560.7,176.7,556.4,174.7z M557.1,123.5c-3.2-3.5-7.1-5.5-11.9-5.9v36.8
		c4.7-0.5,8.6-2.5,11.8-6c3.2-3.5,4.8-7.7,4.8-12.4C561.9,131.2,560.3,127,557.1,123.5z"/>
	<path d="M591.2,167.6c-6.6-6.6-9.9-14.6-9.9-23.8c0-1.7,0-3.5,0-5.3c0-1.8,0-3.5,0-5.3H577v-7.5h4.3V110h32.9v7.5h-25.5v8.4h25.9
		v7.5h-25.9c0,1.7,0,3.5,0,5.3c0,1.8,0,3.5,0,5.3c0,7.2,2.5,13.4,7.6,18.5c5,5.2,11.2,7.8,18.4,7.9v7.6
		C605.6,177.7,597.7,174.3,591.2,167.6z"/>
	<path d="M642.1,171.4c-4.2,4.3-9.3,6.4-15.2,6.4v-7.5c3.9,0,7.2-1.4,10-4.2c2.8-2.8,4.1-6.1,4.1-9.9c0-0.3,0-0.6,0-0.9
		s0-0.5-0.1-0.8c-0.1-1.6-0.5-3.1-1.1-4.5c-0.6-1.4-1.5-2.7-2.7-3.7c-1.6-1.4-3.2-2.8-4.8-4.2c-1.6-1.4-3.2-2.8-4.9-4.1
		c-1.7-1.5-2.9-3.3-3.8-5.4c-0.8-2.1-1.3-4.2-1.3-6.4c0-4.4,1.6-8.3,4.8-11.5c3.2-3.2,7.1-4.8,11.6-4.8v7.5c-2.5,0-4.6,0.9-6.3,2.6
		c-1.7,1.7-2.6,3.8-2.6,6.3c0,0.2,0,0.4,0,0.5s0,0.4,0.1,0.5c0.1,1,0.3,1.9,0.6,2.8c0.4,0.9,0.9,1.7,1.6,2.2
		c1.6,1.4,3.2,2.8,4.9,4.1c1.6,1.4,3.2,2.8,4.9,4.1c2.1,1.9,3.7,4.1,4.7,6.7c1,2.6,1.6,5.3,1.8,8.1c0,0.1,0,0.2,0,0.4
		c0,0.1,0,0.2,0,0.4C648.4,162,646.3,167.1,642.1,171.4z"/>
	<path d="M667.8,117.5v60.3h-7.4v-60.3h-13.3V110h34v7.5H667.8z"/>
	<path d="M720.2,177.8V110h7.4v67.8H720.2z"/>
	<path d="M758.5,177.8v-51.6c-2.2-2.3-4.8-4.2-7.6-5.6c-2.9-1.5-5.9-2.4-9-2.8v60h-7.5V110c0.7,0,1.3,0,1.9,0s1.2,0,1.8,0
		c3.7,0.1,7.2,0.6,10.7,1.8c3.5,1.1,6.7,2.7,9.6,4.8V110h7.4v67.8H758.5z"/>
	<path d="M825.7,130.8v47h-7.4v-47l-15-20.8h9.1l9.6,13.2l9.6-13.2h9.1L825.7,130.8z"/>
	<path d="M895.4,167.8c-6.6,6.6-14.6,9.9-23.9,9.9c-9.3,0-17.3-3.3-23.9-9.9c-6.6-6.6-9.9-14.6-9.9-24c0-9.3,3.3-17.3,9.9-23.9
		c6.6-6.6,14.6-9.9,23.9-9.9c9.3,0,17.3,3.3,23.9,9.9c6.6,6.6,9.9,14.6,9.9,23.9C905.4,153.2,902.1,161.2,895.4,167.8z M890.3,125.2
		c-5.2-5.2-11.4-7.7-18.7-7.7c-7.3,0-13.5,2.6-18.7,7.7c-5.2,5.2-7.8,11.4-7.8,18.6c0,7.3,2.6,13.5,7.8,18.7
		c5.2,5.2,11.4,7.8,18.7,7.8c7.3,0,13.6-2.6,18.7-7.8c5.2-5.2,7.7-11.4,7.7-18.7C898,136.6,895.4,130.4,890.3,125.2z"/>
	<path d="M942.6,172.6c-3.4,3.5-7.6,5.2-12.4,5.2c-4.8,0-8.9-1.7-12.4-5.2c-3.5-3.4-5.2-7.6-5.2-12.4V110h7.5c0,8.3,0,16.7,0,25.1
		s0,16.8,0,25.2c0,2.8,1,5.1,3,7.1c2,2,4.3,3,7.1,3c2.8,0,5.2-1,7.2-3c2-2,3-4.3,3-7.1V110h7.4c0,8.3,0,16.7,0,25.1s0,16.8,0,25.2
		C947.8,165,946.1,169.1,942.6,172.6z"/>
	<path d="M974.2,174.7c-4.3-2-8-4.8-11.2-8.2v11.2h-7.4V110c0.5,0,0.9,0,1.4,0s0.9,0,1.4,0c0.4,0,0.9,0,1.3,0c0.5,0,0.9,0,1.3,0
		c7.1,0,13.3,2.5,18.4,7.6c5.1,5.1,7.7,11.2,7.7,18.3c0,5.9-1.8,11.1-5.4,15.8c-3.6,4.6-8.2,7.7-13.7,9.3c2.4,2.9,5.3,5.2,8.8,6.9
		c3.5,1.7,7.1,2.5,11,2.5v7.5C983.1,177.8,978.6,176.7,974.2,174.7z M975,123.5c-3.2-3.5-7.1-5.5-11.9-5.9v36.8
		c4.7-0.5,8.6-2.5,11.8-6c3.2-3.5,4.8-7.7,4.8-12.4C979.7,131.2,978.1,127,975,123.5z"/>
	<path d="M1036.7,167.8c-6.6-6.6-9.9-14.6-9.9-24c0-9.3,3.3-17.3,9.9-23.9c6.6-6.6,14.6-9.9,23.9-9.9v7.5c-7.3,0-13.5,2.6-18.7,7.7
		c-5.2,5.2-7.8,11.4-7.8,18.6c0,7.3,2.6,13.5,7.8,18.7c5.2,5.2,11.4,7.8,18.7,7.8v7.5C1051.3,177.8,1043.4,174.4,1036.7,167.8z"/>
	<path d="M1122.4,167.8c-6.6,6.6-14.6,9.9-23.9,9.9c-9.3,0-17.3-3.3-23.9-9.9c-6.6-6.6-9.9-14.6-9.9-24c0-9.3,3.3-17.3,9.9-23.9
		c6.6-6.6,14.6-9.9,23.9-9.9c9.3,0,17.3,3.3,23.9,9.9c6.6,6.6,9.9,14.6,9.9,23.9C1132.4,153.2,1129,161.2,1122.4,167.8z
		 M1117.2,125.2c-5.2-5.2-11.4-7.7-18.7-7.7c-7.3,0-13.5,2.6-18.7,7.7c-5.2,5.2-7.8,11.4-7.8,18.6c0,7.3,2.6,13.5,7.8,18.7
		c5.2,5.2,11.4,7.8,18.7,7.8c7.3,0,13.6-2.6,18.7-7.8c5.2-5.2,7.7-11.4,7.7-18.7C1125,136.6,1122.4,130.4,1117.2,125.2z"/>
	<path d="M1163,177.8v-51.6c-2.2-2.3-4.8-4.2-7.6-5.6c-2.9-1.5-5.9-2.4-9-2.8v60h-7.5V110c0.7,0,1.3,0,1.9,0s1.2,0,1.8,0
		c3.7,0.1,7.2,0.6,10.7,1.8c3.5,1.1,6.7,2.7,9.6,4.8V110h7.4v67.8H1163z"/>
	<path d="M1190,133.3v44.5h-7.4v-44.5h-4.8v-7.5h4.8V110h29.6v7.5H1190v8.4h23v7.5H1190z"/>
	<path d="M1233.7,167.6c-6.6-6.6-9.9-14.6-9.9-23.8c0-1.7,0-3.5,0-5.3c0-1.8,0-3.5,0-5.3h-4.3v-7.5h4.3V110h32.9v7.5h-25.5v8.4h25.9
		v7.5h-25.9c0,1.7,0,3.5,0,5.3c0,1.8,0,3.5,0,5.3c0,7.2,2.5,13.4,7.6,18.5c5,5.2,11.2,7.8,18.5,7.9v7.6
		C1248.2,177.7,1240.3,174.3,1233.7,167.6z"/>
	<path d="M1283.9,174.7c-4.3-2-8-4.8-11.2-8.2v11.2h-7.4V110c0.5,0,0.9,0,1.4,0c0.4,0,0.9,0,1.4,0c0.4,0,0.9,0,1.3,0s0.9,0,1.4,0
		c7.1,0,13.3,2.5,18.4,7.6c5.1,5.1,7.6,11.2,7.6,18.3c0,5.9-1.8,11.1-5.4,15.8c-3.6,4.6-8.2,7.7-13.7,9.3c2.4,2.9,5.3,5.2,8.8,6.9
		c3.4,1.7,7.1,2.5,11,2.5v7.5C1292.8,177.8,1288.2,176.7,1283.9,174.7z M1284.6,123.5c-3.2-3.5-7.1-5.5-11.9-5.9v36.8
		c4.7-0.5,8.6-2.5,11.8-6c3.2-3.5,4.8-7.7,4.8-12.4C1289.4,131.2,1287.8,127,1284.6,123.5z"/>
	<path d="M1318.7,167.6c-6.6-6.6-9.9-14.6-9.9-23.8c0-1.7,0-3.5,0-5.3c0-1.8,0-3.5,0-5.3h-4.3v-7.5h4.3V110h32.9v7.5h-25.5v8.4h25.9
		v7.5h-25.9c0,1.7,0,3.5,0,5.3c0,1.8,0,3.5,0,5.3c0,7.2,2.5,13.4,7.6,18.5c5,5.2,11.2,7.8,18.4,7.9v7.6
		C1333.2,177.7,1325.3,174.3,1318.7,167.6z"/>
	<path d="M1373.7,177.8v-51.6c-2.2-2.3-4.8-4.2-7.6-5.6c-2.9-1.5-5.9-2.4-9-2.8v60h-7.5V110c0.7,0,1.3,0,1.9,0s1.2,0,1.8,0
		c3.7,0.1,7.2,0.6,10.7,1.8c3.5,1.1,6.7,2.7,9.6,4.8V110h7.4v67.8H1373.7z"/>
	<path d="M1398.4,167.8c-6.6-6.6-9.9-14.6-9.9-24c0-9.3,3.3-17.3,9.9-23.9c6.6-6.6,14.6-9.9,23.9-9.9v7.5c-7.3,0-13.5,2.6-18.7,7.7
		c-5.2,5.2-7.8,11.4-7.8,18.6c0,7.3,2.6,13.5,7.8,18.7c5.2,5.2,11.4,7.8,18.7,7.8v7.5C1413,177.8,1405.1,174.4,1398.4,167.8z"/>
	<path d="M1441.6,167.6c-6.6-6.6-9.9-14.6-9.9-23.8c0-1.7,0-3.5,0-5.3c0-1.8,0-3.5,0-5.3h-4.3v-7.5h4.3V110h32.9v7.5h-25.5v8.4h25.9
		v7.5h-25.9c0,1.7,0,3.5,0,5.3c0,1.8,0,3.5,0,5.3c0,7.2,2.5,13.4,7.6,18.5c5,5.2,11.2,7.8,18.4,7.9v7.6
		C1456.1,177.7,1448.2,174.3,1441.6,167.6z"/>
	<path d="M1480.3,163c-0.9,0.9-2.1,1.4-3.4,1.4c-1.3,0-2.4-0.5-3.3-1.4c-0.9-0.9-1.3-2.1-1.3-3.4c0-1.3,0.5-2.4,1.3-3.4
		c0.9-0.9,2-1.4,3.3-1.4c1.3,0,2.4,0.5,3.4,1.4c0.9,0.9,1.4,2.1,1.4,3.4C1481.7,161,1481.2,162.1,1480.3,163z M1480.3,177.4
		c-0.9,0.9-2.1,1.4-3.4,1.4c-1.3,0-2.4-0.5-3.3-1.4c-0.9-0.9-1.3-2-1.3-3.3c0-1.3,0.5-2.4,1.3-3.4c0.9-0.9,2-1.4,3.3-1.4
		c1.3,0,2.4,0.5,3.4,1.4c0.9,0.9,1.4,2.1,1.4,3.4C1481.7,175.4,1481.2,176.5,1480.3,177.4z"/>
</g>
</svg>
