<!-- Generator: Adobe Illustrator 19.2.1, SVG Export Plug-In  -->
<svg version="1.1"
	 xmlns="http://www.w3.org/2000/svg" xmlns:xlink="http://www.w3.org/1999/xlink" xmlns:a="http://ns.adobe.com/AdobeSVGViewerExtensions/3.0/"
	 x="0px" y="0px" width="646.7px" height="343.5px" viewBox="0 0 646.7 343.5" style="enable-background:new 0 0 646.7 343.5;"
	 xml:space="preserve">
<defs>
</defs>
<g>
	<path d="M5,82.8V4.6H0v-3h17.3v81.2H5z M19.7,82.8V1.6h3v78h25.4v3.2H19.7z"/>
	<path d="M60.8,82.8V4.6h-5v-3h17.4v81.2H60.8z M75.3,82.8V1.6h28.6v3H78.3V20h20v3h-20v56.6h25.6v3.2H75.3z"/>
	<path d="M127.9,82.8V4.6h-16v-3h28.6v81.2H127.9z M145.7,4.6v78.2h-3V1.6h19.9v3H145.7z"/>
	<path d="M186.6,21.4c-1.8,1-3.6,1.5-5.5,1.5c-3,0-5.6-1-7.7-3.1c-2.1-2.1-3.1-4.6-3.1-7.6s1-5.6,3.1-7.6c2.1-2.1,4.6-3.1,7.7-3.1
		c1,0,2,0.1,2.9,0.3c0.9,0.2,1.8,0.6,2.6,1.2V21.4z M188.7,32.5V4.8c1,1,1.8,2.1,2.3,3.4c0.5,1.3,0.8,2.6,0.8,4.1v20.3H188.7z"/>
	<path d="M248.3,79.8c-2.5,1.4-5.2,2.6-7.9,3.3c-2.8,0.8-5.6,1.2-8.6,1.2c-4.5,0-8.6-0.8-12.5-2.5s-7.3-4-10.2-6.9
		s-5.2-6.3-6.9-10.2c-1.7-3.9-2.5-8.1-2.5-12.5h3c0,4,0.8,7.8,2.3,11.4c1.5,3.6,3.6,6.7,6.2,9.3c2.6,2.6,5.7,4.7,9.3,6.2
		c3.6,1.5,7.4,2.3,11.4,2.3c2.3,0,4.6-0.3,6.9-0.8c2.3-0.5,4.5-1.4,6.6-2.5V27.6l-13.5-5c-3.9-1.4-6.7-3.3-8.4-5.6
		c-1.7-2.3-2.5-4.6-2.5-6.9c0-2.7,1-5.1,2.9-7.1c1.9-2,4.6-3,7.9-3c2.3,0,4.4,0.7,6.4,2c1.9,1.3,3.3,3.1,4.2,5.2l-2.8,1.1
		c-0.6-1.6-1.7-2.8-3.1-3.7c-1.4-0.9-3-1.4-4.6-1.4c-2.4,0-4.3,0.7-5.6,2c-1.3,1.3-1.9,2.9-1.9,4.8c0,1.7,0.6,3.5,1.9,5.2
		c1.3,1.7,3.2,3.1,5.8,4.1l16.5,6.4V79.8z M264.1,52.2c0,5.3-1.2,10.3-3.7,14.9c-2.4,4.6-5.8,8.4-10.2,11.4V26.7
		c4.3,3,7.7,6.7,10.2,11.1C262.8,42.1,264.1,46.9,264.1,52.2z"/>
	<path d="M341.6,72.6c-4-3.9-7.2-8.4-9.5-13.6c-2.3-5.2-3.5-10.6-3.5-16.2c0-6,1.1-11.7,3.2-16.8s5.4-9.9,9.7-14V72.6z M370.8,84.2
		c-5,0-9.8-0.8-14.4-2.5c-4.6-1.7-8.9-4.1-12.7-7.3V10c3.5-3,7.5-5.3,12.1-7.2c4.6-1.8,9.2-2.8,13.8-2.8c5.5,0,10.7,0.8,15.5,2.4
		c4.8,1.6,9.3,4.3,13.4,7.9l-1.9,2.4c-3.6-3.2-7.6-5.7-12.1-7.3c-4.5-1.6-9.1-2.4-13.8-2.4c-4.3,0-8.5,0.7-12.6,2.2
		c-4.1,1.5-7.9,3.5-11.3,6.1v61.5c3.5,2.7,7.3,4.7,11.4,6.1c4.1,1.4,8.4,2.2,12.8,2.2c5,0,9.9-0.9,14.5-2.8
		c4.6-1.9,8.7-4.5,12.2-7.8c3.5-3.3,6.4-7.2,8.6-11.6c2.2-4.4,3.4-9.2,3.7-14.3h-27.1v-3H413c0,6-1.1,11.6-3.3,16.7
		c-2.2,5.2-5.3,9.6-9.1,13.4c-3.9,3.8-8.3,6.8-13.4,9C382,83.1,376.5,84.2,370.8,84.2z"/>
	<path d="M422.5,82.8V4.6h-5v-3h17.4v81.2H422.5z M437,82.8V1.6h28.6v3H440V20h20v3h-20v56.6h25.6v3.2H437z"/>
	<path d="M489.6,82.8V4.6h-16v-3h28.6v81.2H489.6z M507.4,4.6v78.2h-3V1.6h19.9v3H507.4z"/>
	<path d="M627.7,82.8l-2.6-8h-28l-2.6,8h-3.2l2.7-8h-5.3v-3h6.3l16.2-48l19.8,59H627.7z M611.1,33.5l-12.9,38.3H624L611.1,33.5z
		 M634.2,82.8l-21.7-62.6l6.3-18.3l28,80.9H634.2z"/>
	<path d="M27.6,212.4v-78.2h-4.9v-3h17.5v81.2H27.6z M80.8,167.9c0,5-0.9,9.6-2.7,14c-1.8,4.4-4.3,8.2-7.5,11.5
		c-3.2,3.3-6.9,6-11.2,8c-4.3,2-8.9,3.1-13.9,3.3v7.7h-3v-81.2c5.6,0,10.8,1,15.4,2.9c4.7,1.9,8.7,4.5,12.1,7.8
		c3.4,3.3,6,7.2,7.9,11.7C79.9,158,80.8,162.8,80.8,167.9z M77.8,168c0-4.5-0.8-8.8-2.5-12.8c-1.7-4-3.9-7.5-6.9-10.5
		c-2.9-3-6.3-5.5-10.2-7.3s-8.1-2.9-12.6-3.1v67.4c4.5-0.2,8.7-1.2,12.6-3.1s7.3-4.3,10.2-7.3c2.9-3,5.2-6.5,6.9-10.5
		C77,176.9,77.8,172.6,77.8,168z"/>
	<path d="M93.5,212.4v-78.2h-4.8v-3h17.4v81.2H93.5z M146.7,167.9c0,5.9-1.3,11.4-3.9,16.6c-2.6,5.1-6.3,9.5-11.1,13l9,14.9h-3.6
		l-7.9-13.2c-5.5,3.3-11.4,5.1-17.8,5.5v7.7h-3v-81.2h1.5c5,0,9.8,1,14.3,2.9c4.5,1.9,8.4,4.5,11.7,7.9c3.3,3.3,5.9,7.3,7.9,11.7
		C145.7,158.1,146.7,162.9,146.7,167.9z M143.7,167.9c0-4.5-0.8-8.8-2.5-12.8c-1.7-4-3.9-7.5-6.9-10.5s-6.3-5.4-10.2-7.3
		c-3.9-1.8-8.1-2.9-12.6-3.1v67.2c4.5-0.2,8.7-1.2,12.6-3.1c3.9-1.8,7.3-4.3,10.2-7.3c2.9-3,5.2-6.5,6.9-10.5
		C142.9,176.7,143.7,172.5,143.7,167.9z"/>
	<path d="M168.4,202.9c-4.3-4.1-7.7-8.8-10.1-14.1c-2.4-5.3-3.6-11-3.6-17c0-6,1.2-11.6,3.6-17c2.4-5.3,5.8-10,10.2-14.1V202.9z
		 M239.7,171.8c0,5.9-1.1,11.4-3.3,16.6c-2.2,5.1-5.3,9.6-9.1,13.4c-3.9,3.8-8.4,6.8-13.5,9c-5.1,2.2-10.7,3.3-16.6,3.3
		c-4.9,0-9.6-0.8-14.2-2.4c-4.6-1.6-8.8-4-12.6-7.1V139c3.8-3.2,8-5.6,12.5-7.2c4.5-1.6,9.3-2.4,14.3-2.4c5.9,0,11.4,1.1,16.6,3.3
		c5.2,2.2,9.7,5.2,13.5,9.1c3.8,3.9,6.8,8.4,9.1,13.5C238.6,160.4,239.7,165.9,239.7,171.8z M236,171.8c0-5.4-1-10.4-3-15.2
		c-2-4.7-4.8-8.8-8.3-12.3s-7.7-6.2-12.4-8.2c-4.7-2-9.8-3-15.2-3c-4.3,0-8.5,0.7-12.5,2.1c-4,1.4-7.8,3.4-11.1,6v61.2
		c3.4,2.6,7.1,4.6,11.1,6c4,1.4,8.2,2.2,12.5,2.2c5.4,0,10.5-1,15.2-3c4.7-2,8.8-4.8,12.3-8.2c3.5-3.5,6.3-7.6,8.3-12.3
		C235,182.2,236,177.2,236,171.8z"/>
	<path d="M249.7,212.4v-78.2H244v-3h18v81.2H249.7z M280.3,212.4V148c0-1.7-0.3-3.4-1-5c-0.7-1.6-1.6-3-2.8-4.2
		c-1.2-1.2-2.6-2.2-4.1-3c-1.6-0.8-3.2-1.3-5-1.5v78.1h-3v-81.2h0.8c3.2,0,6,0.6,8.6,1.8c2.6,1.2,4.8,3.1,6.6,5.7v-7.6h12.3v81.2
		H280.3z M310.9,212.4v-63.7c0-1.8-0.3-3.5-1-5.2s-1.5-3.1-2.7-4.4c-1.2-1.3-2.5-2.4-4.1-3.2c-1.6-0.8-3.3-1.3-5.1-1.6v78.1h-3
		v-81.2h0.8c2.5,0,4.9,0.4,7,1.2c2.2,0.8,4.1,2,5.7,3.6c1.6,1.5,3,3.4,3.9,5.5c1,2.1,1.4,4.5,1.4,7.1v63.8H310.9z"/>
	<path d="M335.6,202.9c-4.3-4.1-7.7-8.8-10.1-14.1c-2.4-5.3-3.6-11-3.6-17c0-6,1.2-11.6,3.6-17c2.4-5.3,5.8-10,10.2-14.1V202.9z
		 M406.9,171.8c0,5.9-1.1,11.4-3.3,16.6c-2.2,5.1-5.3,9.6-9.1,13.4c-3.9,3.8-8.4,6.8-13.5,9c-5.1,2.2-10.7,3.3-16.6,3.3
		c-4.9,0-9.6-0.8-14.2-2.4c-4.6-1.6-8.8-4-12.6-7.1V139c3.8-3.2,8-5.6,12.5-7.2c4.5-1.6,9.3-2.4,14.3-2.4c5.9,0,11.4,1.1,16.6,3.3
		c5.2,2.2,9.7,5.2,13.5,9.1c3.8,3.9,6.8,8.4,9.1,13.5C405.8,160.4,406.9,165.9,406.9,171.8z M403.2,171.8c0-5.4-1-10.4-3-15.2
		c-2-4.7-4.8-8.8-8.3-12.3c-3.5-3.5-7.7-6.2-12.4-8.2s-9.8-3-15.2-3c-4.3,0-8.5,0.7-12.5,2.1c-4,1.4-7.8,3.4-11.1,6v61.2
		c3.4,2.6,7.1,4.6,11.1,6c4,1.4,8.2,2.2,12.5,2.2c5.4,0,10.5-1,15.2-3c4.7-2,8.8-4.8,12.3-8.2c3.5-3.5,6.3-7.6,8.3-12.3
		S403.2,177.2,403.2,171.8z"/>
	<path d="M423.7,212.4v-78.2h-16v-3h28.6v81.2H423.7z M441.6,134.2v78.2h-3v-81.2h19.9v3H441.6z"/>
	<path d="M471.1,212.4v-78.2h-5v-3h17.3v81.2H471.1z M485.8,212.4v-81.2h3v81.2H485.8z"/>
	<path d="M510.5,202.9c-4.3-4.1-7.7-8.8-10.1-14.1c-2.4-5.3-3.6-11-3.6-17c0-6,1.2-11.6,3.6-17c2.4-5.3,5.8-10,10.2-14.1V202.9z
		 M581.7,171.8c0,5.9-1.1,11.4-3.3,16.6c-2.2,5.1-5.3,9.6-9.1,13.4c-3.9,3.8-8.4,6.8-13.5,9c-5.1,2.2-10.7,3.3-16.6,3.3
		c-4.9,0-9.6-0.8-14.2-2.4c-4.6-1.6-8.8-4-12.6-7.1V139c3.8-3.2,8-5.6,12.5-7.2s9.3-2.4,14.3-2.4c5.9,0,11.4,1.1,16.6,3.3
		c5.2,2.2,9.7,5.2,13.5,9.1c3.8,3.9,6.8,8.4,9.1,13.5C580.6,160.4,581.7,165.9,581.7,171.8z M578.1,171.8c0-5.4-1-10.4-3-15.2
		c-2-4.7-4.8-8.8-8.3-12.3c-3.5-3.5-7.7-6.2-12.4-8.2s-9.8-3-15.2-3c-4.3,0-8.5,0.7-12.5,2.1s-7.8,3.4-11.1,6v61.2
		c3.4,2.6,7.1,4.6,11.1,6c4,1.4,8.2,2.2,12.5,2.2c5.4,0,10.5-1,15.2-3c4.7-2,8.8-4.8,12.3-8.2c3.5-3.5,6.3-7.6,8.3-12.3
		S578.1,177.2,578.1,171.8z"/>
	<path d="M585.3,134.2v-3h17.3v81.2h-12.3v-78.2H585.3z M605,212.4v-81.2c3.5,0,6.5,0.6,9.2,1.8c2.7,1.2,5,3.1,6.8,5.7v-7.6h3v81.2
		h-3v-63.7c0-1.8-0.3-3.5-1-5.2s-1.6-3.1-2.8-4.4c-1.2-1.3-2.6-2.4-4.2-3.2c-1.6-0.8-3.3-1.3-5.1-1.6v78.1H605z"/>
	<path d="M111.9,339c-2.5,1.4-5.2,2.6-7.9,3.3c-2.8,0.8-5.6,1.2-8.6,1.2c-4.5,0-8.6-0.8-12.5-2.5c-3.9-1.7-7.3-4-10.2-6.9
		s-5.2-6.3-6.9-10.2c-1.7-3.9-2.5-8.1-2.5-12.5h3c0,4,0.8,7.8,2.3,11.4c1.5,3.6,3.6,6.7,6.2,9.3c2.6,2.6,5.7,4.7,9.3,6.2
		c3.6,1.5,7.4,2.3,11.4,2.3c2.3,0,4.6-0.3,6.9-0.8c2.3-0.5,4.5-1.4,6.6-2.5v-50.3l-13.5-5c-3.9-1.4-6.7-3.3-8.4-5.6
		c-1.7-2.3-2.5-4.6-2.5-6.9c0-2.7,1-5.1,2.9-7.1c1.9-2,4.6-3,7.9-3c2.3,0,4.4,0.7,6.4,2c1.9,1.3,3.3,3.1,4.2,5.2l-2.8,1.1
		c-0.6-1.6-1.7-2.8-3.1-3.7c-1.4-0.9-3-1.3-4.6-1.3c-2.4,0-4.3,0.7-5.6,2c-1.3,1.3-1.9,2.9-1.9,4.8c0,1.7,0.6,3.5,1.9,5.2
		c1.3,1.7,3.2,3.1,5.8,4.1l16.5,6.4V339z M127.7,311.4c0,5.3-1.2,10.3-3.7,14.9c-2.4,4.6-5.8,8.4-10.2,11.4v-51.8
		c4.3,3,7.7,6.7,10.2,11.1C126.5,301.3,127.7,306.1,127.7,311.4z"/>
	<path d="M141.1,342v-78.2h-16v-3h28.6V342H141.1z M158.9,263.8V342h-3v-81.2h19.9v3H158.9z"/>
	<path d="M188.3,342v-78.2h-4.8v-3h17.4V342H188.3z M241.5,297.5c0,5.9-1.3,11.4-3.9,16.6c-2.6,5.1-6.3,9.5-11.1,13l9,14.9H232
		l-7.9-13.2c-5.5,3.3-11.4,5.1-17.8,5.5v7.7h-3v-81.2h1.5c5,0,9.8,1,14.3,2.9c4.5,1.9,8.4,4.5,11.7,7.9c3.3,3.3,5.9,7.3,7.9,11.7
		C240.6,287.7,241.5,292.5,241.5,297.5z M238.5,297.5c0-4.5-0.8-8.8-2.5-12.8c-1.7-4-3.9-7.5-6.9-10.5s-6.3-5.4-10.2-7.3
		c-3.9-1.8-8.1-2.9-12.6-3.1v67.2c4.5-0.2,8.7-1.2,12.6-3.1c3.9-1.8,7.3-4.3,10.2-7.3s5.2-6.5,6.9-10.5
		C237.7,306.3,238.5,302.1,238.5,297.5z"/>
	<path d="M282.8,342l-2.6-8h-28l-2.6,8h-3.2l2.7-8h-5.3v-3h6.3l16.2-48l19.8,59H282.8z M266.2,292.7L253.3,331h25.8L266.2,292.7z
		 M289.3,342l-21.7-62.6l6.3-18.3l28,80.9H289.3z"/>
	<path d="M316.9,342v-78.2h-16v-3h28.6V342H316.9z M334.7,263.8V342h-3v-81.2h19.9v3H334.7z"/>
	<path d="M364.3,342v-78.2h-5v-3h17.4V342H364.3z M378.8,342v-81.2h28.6v3h-25.6v15.3h20v3h-20v56.6h25.6v3.2H378.8z"/>
	<path d="M426.5,331.8c-4-3.9-7.2-8.4-9.5-13.6c-2.3-5.2-3.5-10.6-3.5-16.2c0-6,1.1-11.7,3.2-16.8c2.2-5.2,5.4-9.9,9.7-14V331.8z
		 M455.7,343.4c-5,0-9.8-0.8-14.4-2.5c-4.6-1.7-8.9-4.1-12.7-7.3v-64.4c3.5-3,7.5-5.3,12.2-7.2c4.6-1.8,9.2-2.8,13.8-2.8
		c5.5,0,10.7,0.8,15.5,2.4c4.8,1.6,9.3,4.3,13.4,7.9l-1.9,2.4c-3.6-3.2-7.6-5.7-12.1-7.3c-4.5-1.6-9.1-2.4-13.8-2.4
		c-4.3,0-8.5,0.7-12.6,2.2c-4.1,1.5-7.9,3.5-11.3,6.1v61.5c3.5,2.7,7.3,4.7,11.4,6.1c4.1,1.4,8.4,2.2,12.8,2.2c5,0,9.9-0.9,14.5-2.8
		c4.6-1.9,8.7-4.5,12.2-7.8c3.5-3.3,6.4-7.2,8.6-11.6c2.2-4.4,3.4-9.2,3.7-14.3h-27.1v-3h30.2c0,6-1.1,11.6-3.3,16.7
		c-2.2,5.2-5.3,9.6-9.1,13.4c-3.9,3.8-8.3,6.8-13.4,9C466.9,342.3,461.5,343.4,455.7,343.4z"/>
	<path d="M520.4,342v-32l-21.8-49.2h13.6l20.8,47.4V342H520.4z M538.3,306.9V342h-3v-35.1l-20.4-46.1h3.3l18.4,41.7l14.2-41.7h3.2
		L538.3,306.9z"/>
	<path d="M576.6,341.4c-0.6,0.3-1.2,0.5-1.8,0.5c-0.6,0.1-1.3,0.1-1.8,0.1c-3,0-5.6-1-7.7-3.1c-2.1-2.1-3.1-4.6-3.1-7.6
		c0-1.9,0.5-3.7,1.4-5.3c0.9-1.6,2.2-2.9,3.9-3.9h-3.5v-61.7h12.6V341.4z M578.7,321.6v-61.2h3v61.2H578.7z M583.5,331.3
		c0,1.8-0.4,3.5-1.3,5.1c-0.9,1.6-2,2.9-3.5,3.9v-17.9c1.5,1,2.7,2.3,3.5,3.9C583.1,327.9,583.5,329.5,583.5,331.3z"/>
</g>
</svg>
