<!-- Generator: Adobe Illustrator 19.2.1, SVG Export Plug-In  -->
<svg version="1.1"
	 xmlns="http://www.w3.org/2000/svg" xmlns:xlink="http://www.w3.org/1999/xlink" xmlns:a="http://ns.adobe.com/AdobeSVGViewerExtensions/3.0/"
	 x="0px" y="0px" width="738.8px" height="78.5px" viewBox="0 0 738.8 78.5" style="enable-background:new 0 0 738.8 78.5;"
	 xml:space="preserve">
<style type="text/css">
	.st0{fill:#FFFFFF;}
</style>
<defs>
</defs>
<g>
	<path class="st0" d="M4.6,76.9V4.5H0V1.7h16.1v75.2H4.6z M18,76.9V1.7h26.5v2.8H20.8v14.2h18.5v2.8H20.8v52.4h23.7v3H18z"/>
	<path class="st0" d="M72.8,32.7l-20.9-31h3.4l17.1,25.4L84.8,1.7H88L72.8,32.7z M100.1,76.9l-20-29.6L65.6,76.9H52.9l37-75.2h12.7
		l-21,42.6l21.9,32.6H100.1z"/>
	<path class="st0" d="M115.3,76.9V4.5h-4.5V1.7H127v75.2H115.3z M164.6,35.7c0,4.6-0.8,8.9-2.5,13c-1.7,4-4,7.6-6.9,10.6
		c-2.9,3.1-6.4,5.5-10.3,7.4c-4,1.9-8.2,2.9-12.9,3.1v7.1h-2.8V1.7c5.2,0,10,0.9,14.3,2.7c4.3,1.8,8.1,4.2,11.2,7.2
		c3.1,3.1,5.6,6.7,7.3,10.8C163.7,26.5,164.6,31,164.6,35.7z M161.8,35.8c0-4.2-0.8-8.1-2.3-11.9c-1.5-3.7-3.6-6.9-6.3-9.8
		c-2.7-2.8-5.9-5-9.5-6.8c-3.6-1.7-7.5-2.6-11.7-2.8V67c4.2-0.2,8.1-1.1,11.7-2.9s6.8-4,9.5-6.8s4.8-6,6.3-9.8
		C161,43.9,161.8,40,161.8,35.8z"/>
	<path class="st0" d="M176.5,76.9V4.5h-4.6V1.7h16v75.2H176.5z M190.1,76.9V1.7h2.8v72.2h23.5v3H190.1z"/>
	<path class="st0" d="M236.3,68.1c-4-3.8-7.1-8.2-9.4-13.1c-2.2-4.9-3.3-10.2-3.3-15.7c0-5.5,1.1-10.8,3.3-15.7
		c2.2-4.9,5.3-9.3,9.4-13.1V68.1z M302.3,39.3c0,5.5-1,10.6-3.1,15.4c-2.1,4.8-4.9,8.9-8.5,12.5c-3.6,3.5-7.7,6.3-12.5,8.3
		c-4.8,2-9.9,3.1-15.3,3.1c-4.5,0-8.9-0.8-13.2-2.2c-4.2-1.5-8.1-3.7-11.6-6.6V8.9c3.5-2.9,7.4-5.1,11.6-6.6S258.3,0,262.9,0
		c5.5,0,10.6,1,15.4,3c4.8,2,9,4.8,12.5,8.4c3.5,3.6,6.3,7.7,8.4,12.5C301.3,28.7,302.3,33.8,302.3,39.3z M298.9,39.2
		c0-5-0.9-9.7-2.8-14c-1.9-4.4-4.4-8.2-7.7-11.4c-3.3-3.2-7.1-5.8-11.5-7.6s-9.1-2.8-14.1-2.8c-4,0-7.9,0.6-11.6,1.9
		c-3.7,1.3-7.2,3.1-10.3,5.5v56.6c3.1,2.4,6.6,4.3,10.3,5.6c3.7,1.3,7.6,2,11.6,2c5,0,9.7-0.9,14.1-2.8c4.4-1.9,8.2-4.4,11.4-7.6
		c3.2-3.2,5.8-7,7.7-11.4S298.9,44.2,298.9,39.2z"/>
	<path class="st0" d="M314,76.9V4.5h-4.4V1.7h16.1v75.2H314z M363.3,35.7c0,5.5-1.2,10.6-3.6,15.4c-2.4,4.8-5.8,8.8-10.2,12.1
		l8.3,13.8h-3.3l-7.3-12.2c-5.1,3.1-10.6,4.8-16.4,5.1v7.1h-2.8V1.7h1.4c4.7,0,9.1,0.9,13.2,2.7c4.2,1.8,7.8,4.2,10.8,7.3
		s5.5,6.7,7.3,10.9C362.4,26.6,363.3,31,363.3,35.7z M360.5,35.7c0-4.2-0.8-8.1-2.3-11.8c-1.5-3.7-3.6-6.9-6.3-9.7
		c-2.7-2.8-5.9-5-9.5-6.7c-3.6-1.7-7.5-2.6-11.7-2.8v62.2c4.2-0.2,8.1-1.1,11.7-2.8c3.6-1.7,6.8-3.9,9.5-6.7c2.7-2.8,4.8-6,6.3-9.7
		C359.7,43.8,360.5,39.9,360.5,35.7z"/>
	<path class="st0" d="M375.3,76.9V4.5h-4.6V1.7h16.1v75.2H375.3z M388.7,76.9V1.7h26.5v2.8h-23.7v14.2H410v2.8h-18.5v52.4h23.7v3
		H388.7z"/>
	<path class="st0" d="M480.4,76.9V4.5h-5.3V1.7h16.7v75.2H480.4z M508.7,76.9V17.3c0-1.6-0.3-3.1-1-4.6c-0.6-1.5-1.5-2.8-2.6-3.9
		c-1.1-1.1-2.4-2.1-3.8-2.8c-1.4-0.7-3-1.2-4.6-1.4v72.3h-2.8V1.7h0.7c2.9,0,5.6,0.6,8,1.7c2.4,1.1,4.4,2.9,6.1,5.3v-7h11.4v75.2
		H508.7z M537,76.9v-59c0-1.7-0.3-3.3-0.9-4.8c-0.6-1.5-1.4-2.9-2.5-4.1c-1.1-1.2-2.3-2.2-3.8-2.9c-1.5-0.8-3-1.2-4.7-1.4v72.3h-2.8
		V1.7h0.7c2.3,0,4.5,0.4,6.5,1.2c2,0.8,3.8,1.9,5.3,3.3c1.5,1.4,2.7,3.1,3.6,5.1c0.9,2,1.3,4.1,1.3,6.5v59.1H537z"/>
	<path class="st0" d="M559.9,68.1c-4-3.8-7.1-8.2-9.3-13.1c-2.2-4.9-3.4-10.2-3.4-15.7c0-5.5,1.1-10.8,3.3-15.7
		c2.2-4.9,5.3-9.3,9.4-13.1V68.1z M625.9,39.3c0,5.5-1,10.6-3.1,15.4c-2.1,4.8-4.9,8.9-8.5,12.5c-3.6,3.5-7.7,6.3-12.5,8.3
		c-4.8,2-9.9,3.1-15.3,3.1c-4.5,0-8.9-0.8-13.2-2.2c-4.2-1.5-8.1-3.7-11.7-6.6V8.9c3.5-2.9,7.4-5.1,11.6-6.6S581.9,0,586.5,0
		c5.5,0,10.6,1,15.4,3c4.8,2,9,4.8,12.5,8.4c3.5,3.6,6.3,7.7,8.4,12.5C624.9,28.7,625.9,33.8,625.9,39.3z M622.5,39.2
		c0-5-0.9-9.7-2.8-14c-1.9-4.4-4.4-8.2-7.7-11.4c-3.3-3.2-7.1-5.8-11.5-7.6s-9.1-2.8-14.1-2.8c-4,0-7.9,0.6-11.6,1.9
		c-3.7,1.3-7.2,3.1-10.3,5.5v56.6c3.1,2.4,6.6,4.3,10.3,5.6c3.7,1.3,7.6,2,11.6,2c5,0,9.7-0.9,14.1-2.8c4.4-1.9,8.2-4.4,11.4-7.6
		s5.8-7,7.7-11.4C621.5,48.9,622.5,44.2,622.5,39.2z"/>
	<path class="st0" d="M637.6,76.9V4.5h-4.4V1.7h16.1v75.2H637.6z M686.9,35.7c0,5.5-1.2,10.6-3.6,15.4c-2.4,4.8-5.8,8.8-10.2,12.1
		l8.3,13.8H678l-7.3-12.2c-5.1,3.1-10.6,4.8-16.4,5.1v7.1h-2.8V1.7h1.4c4.7,0,9.1,0.9,13.2,2.7c4.2,1.8,7.8,4.2,10.8,7.3
		c3.1,3.1,5.5,6.7,7.3,10.9C686,26.6,686.9,31,686.9,35.7z M684.1,35.7c0-4.2-0.8-8.1-2.3-11.8c-1.5-3.7-3.7-6.9-6.4-9.7
		c-2.7-2.8-5.8-5-9.4-6.7c-3.6-1.7-7.5-2.6-11.7-2.8v62.2c4.2-0.2,8.1-1.1,11.7-2.8c3.6-1.7,6.8-3.9,9.4-6.7c2.7-2.8,4.8-6,6.4-9.7
		C683.3,43.8,684.1,39.9,684.1,35.7z"/>
	<path class="st0" d="M698.9,76.9V4.5h-4.6V1.7h16.1v75.2H698.9z M712.3,76.9V1.7h26.5v2.8h-23.7v14.2h18.5v2.8h-18.5v52.4h23.7v3
		H712.3z"/>
</g>
</svg>
