<!-- Generator: Adobe Illustrator 19.2.1, SVG Export Plug-In  -->
<svg version="1.1"
	 xmlns="http://www.w3.org/2000/svg" xmlns:xlink="http://www.w3.org/1999/xlink" xmlns:a="http://ns.adobe.com/AdobeSVGViewerExtensions/3.0/"
	 x="0px" y="0px" width="1229.6px" height="84.2px" viewBox="0 0 1229.6 84.2" style="enable-background:new 0 0 1229.6 84.2;"
	 xml:space="preserve">
<style type="text/css">
	.st0{fill:#FFFFFF;}
</style>
<defs>
</defs>
<g>
	<path class="st0" d="M16,82.8V4.6H0v-3h28.6v81.2H16z M33.8,4.6v78.2h-3V1.6h19.9v3H33.8z"/>
	<path class="st0" d="M63.4,82.8V4.6h-5v-3h17.3v81.2H63.4z M104.1,82.8V23h-23v59.8h-3V1.6h3V20h23V1.6h3v81.2H104.1z"/>
	<path class="st0" d="M119.9,82.8V4.6h-5v-3h17.4v81.2H119.9z M134.4,82.8V1.6H163v3h-25.6V20h20v3h-20v56.6H163v3.2H134.4z"/>
	<path class="st0" d="M232.5,82.8V4.6h-4.9v-3h17.5v81.2H232.5z M285.8,38.3c0,5-0.9,9.6-2.7,14c-1.8,4.4-4.3,8.2-7.5,11.5
		c-3.2,3.3-6.9,6-11.2,8c-4.3,2-8.9,3.1-13.9,3.3v7.7h-3V1.6c5.6,0,10.8,1,15.4,2.9c4.7,1.9,8.7,4.5,12.1,7.8
		c3.4,3.3,6,7.2,7.9,11.7C284.8,28.4,285.8,33.2,285.8,38.3z M282.7,38.4c0-4.5-0.8-8.8-2.5-12.8c-1.7-4-3.9-7.5-6.9-10.5
		c-2.9-3-6.3-5.5-10.2-7.3s-8.1-2.9-12.6-3.1v67.4c4.5-0.2,8.7-1.2,12.6-3.1s7.3-4.3,10.2-7.3s5.2-6.5,6.9-10.5
		C281.9,47.2,282.7,43,282.7,38.4z"/>
	<path class="st0" d="M337.3,61.9c0,3-0.6,5.9-1.7,8.5c-1.1,2.6-2.7,4.9-4.6,6.9c-2,2-4.3,3.5-6.9,4.7c-2.6,1.2-5.5,1.7-8.5,1.7
		c-3,0-5.9-0.6-8.5-1.7c-2.6-1.2-5-2.7-7-4.6c-2-1.9-3.6-4.2-4.8-6.9c-1.2-2.7-1.7-5.5-1.7-8.5V1.6h3.7v60.2c0,2.5,0.5,4.9,1.4,7.1
		c0.9,2.2,2.2,4.2,3.9,5.8s3.6,2.9,5.8,3.9c2.2,0.9,4.6,1.4,7.1,1.4c2.5,0,4.9-0.5,7.1-1.5c2.2-1,4.1-2.3,5.8-3.9
		c1.7-1.7,3-3.6,3.9-5.8c0.9-2.2,1.4-4.5,1.4-7.1V1.6h3.6V61.9z M331.6,61.7c0,1.9-0.3,3.7-0.9,5.5c-0.6,1.8-1.5,3.3-2.6,4.8
		c-1.2,1.4-2.5,2.6-4.1,3.6c-1.5,1-3.2,1.7-5,2.2v-76h12.6V61.7z"/>
	<path class="st0" d="M350.1,82.8V4.6h-5v-3h17.3v81.2H350.1z M405.4,51.5c0,4.3-0.8,8.4-2.5,12.2c-1.7,3.8-3.9,7.1-6.8,10
		c-2.8,2.8-6.2,5.1-10,6.7c-3.8,1.6-7.9,2.4-12.2,2.4h-9.6V1.6h8.9c3,0,5.6,1,7.6,3.1c2.1,2.1,3.1,4.6,3.1,7.6c0,1.6-0.3,3.1-1,4.6
		c-0.7,1.5-1.6,2.7-2.9,3.7c3.7,0.7,7.1,2,10.2,3.9c3.1,1.9,5.8,4.2,8,7c2.2,2.8,4,5.9,5.2,9.3C404.8,44.2,405.4,47.8,405.4,51.5z
		 M380.9,12.4c0-2.1-0.8-3.9-2.3-5.4c-1.5-1.5-3.3-2.3-5.4-2.3h-5.8V20h5.8c2.1,0,3.9-0.7,5.4-2.3C380.1,16.2,380.9,14.4,380.9,12.4
		z M402.4,51.5c0-4-0.7-7.7-2.2-11.1c-1.5-3.4-3.5-6.5-6.1-9.1c-2.6-2.6-5.6-4.6-9-6.1c-3.5-1.5-7.2-2.2-11.2-2.2h-6.5v56.6h6.5
		c3.9,0,7.6-0.7,11-2.2c3.5-1.5,6.5-3.5,9-6c2.6-2.5,4.6-5.5,6.1-8.9C401.6,59,402.4,55.3,402.4,51.5z"/>
	<path class="st0" d="M414.9,82.8V4.6h-5v-3h17.3v81.2H414.9z M429.6,82.8V1.6h3v78H458v3.2H429.6z"/>
	<path class="st0" d="M470.8,82.8V4.6h-5v-3h17.3v81.2H470.8z M485.5,82.8V1.6h3v81.2H485.5z"/>
	<path class="st0" d="M509.8,72.9c-4.5-4.2-7.8-9-10-14.4c-2.2-5.3-3.3-11.1-3.3-17.2c0-5.7,1.2-11.1,3.6-16.3
		c2.4-5.2,5.7-9.7,9.8-13.6V72.9z M566,74c-3.9,3.4-8.2,5.9-12.9,7.7c-4.7,1.7-9.6,2.6-14.7,2.6c-4.9,0-9.6-0.8-14.2-2.4
		c-4.6-1.6-8.7-4-12.5-7.1V9.6c3.7-3.1,7.9-5.5,12.5-7.1c4.6-1.7,9.3-2.5,14.2-2.5c5.1,0,10,0.9,14.8,2.6c4.8,1.8,9,4.4,12.9,7.8
		l-1.9,2.4c-3.5-3.2-7.5-5.7-11.9-7.2c-4.4-1.6-9-2.4-13.8-2.4c-4.3,0-8.5,0.7-12.5,2c-4,1.4-7.7,3.3-11.1,5.9v62
		c3.4,2.6,7.1,4.6,11.2,5.9c4.1,1.4,8.2,2,12.5,2c4.8,0,9.3-0.8,13.8-2.5c4.4-1.7,8.4-4,11.9-7.1L566,74z"/>
	<path class="st0" d="M579,82.8V4.6h-5v-3h17.3v81.2H579z M593.7,82.8V1.6h3v81.2H593.7z"/>
	<path class="st0" d="M620.6,82.8V4.6h-16v-3h28.6v81.2H620.6z M638.4,4.6v78.2h-3V1.6h19.9v3H638.4z"/>
	<path class="st0" d="M684.8,82.8v-32L663,1.6h13.6L697.5,49v33.8H684.8z M702.7,47.7v35.1h-3V47.7L679.3,1.6h3.3l18.4,41.7
		l14.2-41.7h3.2L702.7,47.7z"/>
	<path class="st0" d="M788.1,82.8V4.6h-4.9v-3h17.5v81.2H788.1z M841.3,38.3c0,5-0.9,9.6-2.7,14c-1.8,4.4-4.3,8.2-7.5,11.5
		c-3.2,3.3-6.9,6-11.2,8c-4.3,2-8.9,3.1-13.9,3.3v7.7h-3V1.6c5.6,0,10.8,1,15.4,2.9c4.7,1.9,8.7,4.5,12.1,7.8
		c3.4,3.3,6,7.2,7.9,11.7C840.4,28.4,841.3,33.2,841.3,38.3z M838.3,38.4c0-4.5-0.8-8.8-2.5-12.8c-1.7-4-3.9-7.5-6.9-10.5
		c-2.9-3-6.3-5.5-10.2-7.3s-8.1-2.9-12.6-3.1v67.4c4.5-0.2,8.7-1.2,12.6-3.1s7.3-4.3,10.2-7.3s5.2-6.5,6.9-10.5
		C837.5,47.2,838.3,43,838.3,38.4z"/>
	<path class="st0" d="M880.1,82.8l-2.6-8h-28l-2.6,8h-3.2l2.7-8h-5.3v-3h6.3l16.2-48l19.8,59H880.1z M863.5,33.5l-12.9,38.3h25.8
		L863.5,33.5z M886.6,82.8l-21.7-62.6l6.3-18.3l28,80.9H886.6z"/>
	<path class="st0" d="M915.1,72.9c-4.5-4.2-7.8-9-10-14.4c-2.2-5.3-3.3-11.1-3.3-17.2c0-5.7,1.2-11.1,3.6-16.3
		c2.4-5.2,5.7-9.7,9.8-13.6V72.9z M971.3,74c-3.9,3.4-8.2,5.9-12.9,7.7c-4.7,1.7-9.6,2.6-14.7,2.6c-4.9,0-9.6-0.8-14.2-2.4
		s-8.7-4-12.5-7.1V9.6c3.7-3.1,7.9-5.5,12.5-7.1c4.6-1.7,9.3-2.5,14.2-2.5c5.1,0,10,0.9,14.8,2.6c4.8,1.8,9,4.4,12.9,7.8l-1.9,2.4
		c-3.5-3.2-7.5-5.7-11.9-7.2c-4.4-1.6-9-2.4-13.8-2.4c-4.3,0-8.5,0.7-12.5,2c-4,1.4-7.7,3.3-11.1,5.9v62c3.4,2.6,7.1,4.6,11.2,5.9
		c4.1,1.4,8.2,2,12.5,2c4.8,0,9.3-0.8,13.8-2.5c4.4-1.7,8.4-4,11.9-7.1L971.3,74z"/>
	<path class="st0" d="M984.3,82.8V4.6h-5v-3h17.3v81.2H984.3z M1021.1,82.8c0-2.6-0.5-5.1-1.5-7.6c-1-2.5-2.3-4.7-4-6.6
		c-1.7-1.9-3.8-3.5-6.1-4.8c-2.3-1.2-4.8-1.9-7.5-2.1v21.1h-3V1.6h3v57c1.3,0.1,2.6,0.4,3.9,0.6l13.8-57.7h3.1l-14,58.6
		c2.3,0.9,4.4,2.1,6.3,3.6c1.9,1.5,3.5,3.3,4.9,5.3c1.4,2,2.4,4.2,3.1,6.5c0.7,2.3,1.1,4.7,1.1,7.1H1021.1z"/>
	<path class="st0" d="M1071,82.8l-2.6-8h-28l-2.6,8h-3.2l2.7-8h-5.3v-3h6.3l16.2-48l19.8,59H1071z M1054.4,33.5l-12.9,38.3h25.8
		L1054.4,33.5z M1077.5,82.8l-21.7-62.6l6.3-18.3l28,80.9H1077.5z"/>
	<path class="st0" d="M1105.6,72.6c-4-3.9-7.2-8.4-9.5-13.6c-2.3-5.2-3.5-10.6-3.5-16.2c0-6,1.1-11.7,3.2-16.8s5.4-9.9,9.7-14V72.6z
		 M1134.7,84.2c-5,0-9.8-0.8-14.4-2.5c-4.6-1.7-8.9-4.1-12.7-7.3V10c3.5-3,7.5-5.3,12.1-7.2c4.6-1.8,9.2-2.8,13.8-2.8
		c5.5,0,10.7,0.8,15.5,2.4c4.8,1.6,9.3,4.3,13.4,7.9l-1.9,2.4c-3.6-3.2-7.6-5.7-12.1-7.3c-4.5-1.6-9.1-2.4-13.8-2.4
		c-4.3,0-8.5,0.7-12.6,2.2c-4.1,1.5-7.9,3.5-11.3,6.1v61.5c3.5,2.7,7.3,4.7,11.4,6.1c4.1,1.4,8.4,2.2,12.8,2.2c5,0,9.9-0.9,14.5-2.8
		c4.6-1.9,8.7-4.5,12.2-7.8c3.5-3.3,6.4-7.2,8.6-11.6c2.2-4.4,3.4-9.2,3.7-14.3h-27.1v-3h30.2c0,6-1.1,11.6-3.3,16.7
		c-2.2,5.2-5.3,9.6-9.1,13.4c-3.9,3.8-8.3,6.8-13.4,9C1145.9,83.1,1140.5,84.2,1134.7,84.2z"/>
	<path class="st0" d="M1186.5,82.8V4.6h-5v-3h17.4v81.2H1186.5z M1200.9,82.8V1.6h28.6v3H1204V20h20v3h-20v56.6h25.6v3.2H1200.9z"/>
</g>
</svg>
