<!-- Generator: Adobe Illustrator 19.2.1, SVG Export Plug-In  -->
<svg version="1.1"
	 xmlns="http://www.w3.org/2000/svg" xmlns:xlink="http://www.w3.org/1999/xlink" xmlns:a="http://ns.adobe.com/AdobeSVGViewerExtensions/3.0/"
	 x="0px" y="0px" width="1103px" height="225.3px" viewBox="0 0 1103 225.3" style="enable-background:new 0 0 1103 225.3;"
	 xml:space="preserve">
<style type="text/css">
	.st0{fill:#FFFFFF;}
</style>
<defs>
</defs>
<g>
	<path class="st0" d="M212,86c-2.7,1.5-5.5,2.7-8.5,3.6c-3,0.8-6.1,1.3-9.2,1.3c-4.8,0-9.3-0.9-13.5-2.7c-4.2-1.8-7.8-4.3-11-7.4
		c-3.1-3.1-5.6-6.8-7.4-11c-1.8-4.2-2.7-8.7-2.7-13.5h3.2c0,4.3,0.8,8.4,2.4,12.2s3.8,7.2,6.7,10c2.8,2.8,6.1,5,10,6.7
		c3.8,1.6,7.9,2.4,12.2,2.4c2.5,0,4.9-0.3,7.4-0.9c2.5-0.6,4.8-1.5,7.1-2.7V29.9l-14.5-5.3c-4.2-1.5-7.2-3.6-9-6
		c-1.8-2.5-2.7-4.9-2.7-7.4c0-2.9,1-5.5,3.1-7.7c2.1-2.2,4.9-3.2,8.5-3.2c2.5,0,4.8,0.7,6.8,2.1c2.1,1.4,3.6,3.3,4.5,5.6l-3,1.2
		c-0.7-1.7-1.8-3-3.4-4c-1.5-1-3.2-1.5-5-1.5c-2.6,0-4.6,0.7-6,2.1C186.7,7.3,186,9,186,11c0,1.9,0.7,3.7,2,5.6
		c1.4,1.9,3.4,3.3,6.2,4.4l17.7,6.8V86z M228.9,56.3c0,5.7-1.3,11.1-3.9,16c-2.6,5-6.3,9-10.9,12.3V28.9c4.6,3.2,8.3,7.2,10.9,11.9
		C227.6,45.5,228.9,50.6,228.9,56.3z"/>
	<path class="st0" d="M239.8,89.2v-84h-5.3V2H253v87.2H239.8z M283.6,89.2V24.9h-24.7v64.3h-3.2V2h3.2v19.7h24.7V2h3.2v87.2H283.6z"
		/>
	<path class="st0" d="M307,79c-4.6-4.4-8.3-9.5-10.8-15.2c-2.6-5.7-3.9-11.8-3.9-18.2c0-6.4,1.3-12.5,3.8-18.2
		c2.6-5.7,6.2-10.8,10.9-15.2V79z M383.5,45.6c0,6.3-1.2,12.3-3.6,17.8c-2.4,5.5-5.7,10.3-9.8,14.4c-4.1,4.1-9,7.3-14.5,9.7
		c-5.5,2.4-11.5,3.5-17.8,3.5c-5.3,0-10.3-0.9-15.3-2.6c-4.9-1.7-9.4-4.3-13.5-7.6V10.3c4.1-3.4,8.6-6,13.5-7.7
		c4.9-1.7,10-2.6,15.3-2.6c6.3,0,12.3,1.2,17.9,3.5c5.6,2.4,10.4,5.6,14.5,9.7c4.1,4.1,7.3,9,9.7,14.5
		C382.3,33.3,383.5,39.2,383.5,45.6z M379.6,45.5c0-5.8-1.1-11.2-3.3-16.3c-2.2-5.1-5.2-9.5-8.9-13.2c-3.8-3.7-8.2-6.7-13.3-8.9
		C349,5,343.6,3.9,337.8,3.9c-4.6,0-9.1,0.8-13.5,2.3c-4.3,1.5-8.3,3.6-12,6.4v65.7c3.6,2.8,7.6,4.9,12,6.5
		c4.3,1.5,8.8,2.3,13.5,2.3c5.8,0,11.3-1.1,16.3-3.2c5.1-2.2,9.5-5.1,13.2-8.9c3.8-3.7,6.7-8.1,8.9-13.2
		C378.5,56.7,379.6,51.3,379.6,45.5z"/>
	<path class="st0" d="M413.9,90.5L383.4,2h14.5l23.2,67.4L413.9,90.5z M444.3,90.5l-15.2-44.4l-6.6,19.3L400.9,2h3.5l18,53.4
		l4.9-14.4L413.9,2h14.5l23.1,67.4L444.3,90.5z M452.9,65.3L431.5,2h3.4l18.1,53.4L471.1,2h3.5L452.9,65.3z"/>
	<path class="st0" d="M485.5,89.2v-84h-5.3V2h18.6v87.2H485.5z M501.3,89.2V2h3.2v87.2H501.3z"/>
	<path class="st0" d="M510.1,5.2V2h18.6v87.2h-13.2v-84H510.1z M531.2,89.2V2c3.7,0,7,0.7,9.9,2c2.9,1.3,5.3,3.4,7.2,6.1V2h3.2v87.2
		h-3.2V20.7c0-1.9-0.3-3.8-1-5.6c-0.7-1.8-1.7-3.4-3-4.7c-1.3-1.4-2.8-2.5-4.5-3.4c-1.7-0.9-3.5-1.4-5.5-1.7v83.9H531.2z"/>
	<path class="st0" d="M571.1,78.2c-4.3-4.2-7.7-9-10.2-14.6c-2.5-5.6-3.7-11.4-3.7-17.4c0-6.5,1.2-12.5,3.5-18.1
		c2.3-5.6,5.8-10.6,10.4-15.1V78.2z M602.4,90.7c-5.3,0-10.5-0.9-15.5-2.7c-5-1.8-9.5-4.4-13.6-7.9V11c3.7-3.2,8.1-5.7,13-7.7
		c5-2,9.9-3,14.8-3c6,0,11.5,0.9,16.6,2.6c5.1,1.7,10,4.6,14.4,8.5l-2.1,2.6c-3.9-3.5-8.2-6.1-13-7.8c-4.8-1.7-9.7-2.6-14.8-2.6
		c-4.6,0-9.2,0.8-13.6,2.4c-4.4,1.6-8.5,3.8-12.2,6.5v66c3.7,2.9,7.8,5.1,12.2,6.6c4.4,1.5,9,2.3,13.7,2.3c5.4,0,10.6-1,15.5-3
		c4.9-2,9.3-4.8,13.1-8.3c3.8-3.5,6.9-7.7,9.2-12.4c2.4-4.7,3.7-9.8,4-15.3h-29.1v-3.2h32.5c0,6.4-1.2,12.4-3.6,18
		c-2.4,5.5-5.7,10.3-9.8,14.4c-4.1,4.1-9,7.3-14.4,9.7C614.5,89.5,608.6,90.7,602.4,90.7z"/>
	<path class="st0" d="M726.1,79c-4.6-4.4-8.3-9.5-10.8-15.2c-2.6-5.7-3.9-11.8-3.9-18.2c0-6.4,1.3-12.5,3.8-18.2
		c2.6-5.7,6.2-10.8,10.9-15.2V79z M802.7,45.6c0,6.3-1.2,12.3-3.6,17.8c-2.4,5.5-5.7,10.3-9.8,14.4c-4.1,4.1-9,7.3-14.5,9.7
		c-5.5,2.4-11.5,3.5-17.8,3.5c-5.3,0-10.3-0.9-15.3-2.6c-4.9-1.7-9.4-4.3-13.5-7.6V10.3c4.1-3.4,8.6-6,13.5-7.7
		c4.9-1.7,10-2.6,15.3-2.6c6.3,0,12.3,1.2,17.9,3.5c5.6,2.4,10.4,5.6,14.5,9.7c4.1,4.1,7.3,9,9.7,14.5
		C801.5,33.3,802.7,39.2,802.7,45.6z M798.7,45.5c0-5.8-1.1-11.2-3.3-16.3c-2.2-5.1-5.2-9.5-8.9-13.2c-3.8-3.7-8.2-6.7-13.3-8.9
		s-10.5-3.2-16.3-3.2c-4.6,0-9.1,0.8-13.5,2.3c-4.3,1.5-8.3,3.6-12,6.4v65.7c3.6,2.8,7.6,4.9,12,6.5c4.3,1.5,8.8,2.3,13.5,2.3
		c5.8,0,11.2-1.1,16.3-3.2s9.5-5.1,13.2-8.9c3.8-3.7,6.7-8.1,8.9-13.2C797.6,56.7,798.7,51.3,798.7,45.5z"/>
	<path class="st0" d="M813.6,89.2v-84h-5.3V2h18.6v87.2H813.6z M832.3,5.2v16.5h21.6v3.2h-21.6v64.3h-3.2V2h29.6v3.2H832.3z"/>
	<path class="st0" d="M869.6,89.2v-84h-5.3V2h18.6v87.2H869.6z M888.4,5.2v16.5h21.6v3.2h-21.6v64.3h-3.2V2h29.6v3.2H888.4z"/>
	<path class="st0" d="M937.8,60.3c-1.9,1.1-3.9,1.6-5.9,1.6c-3.2,0-6-1.1-8.2-3.3c-2.2-2.2-3.4-4.9-3.4-8.2s1.1-6,3.4-8.2
		c2.2-2.2,5-3.3,8.2-3.3c1.1,0,2.1,0.1,3.1,0.3c1,0.2,1.9,0.7,2.8,1.3V60.3z M937.8,90.5c-0.9,0.4-1.9,0.7-2.8,1
		c-1,0.3-2,0.5-3.1,0.5c-1.6,0-3.1-0.3-4.5-0.9c-1.4-0.6-2.6-1.4-3.7-2.4c-1-1-1.9-2.2-2.5-3.6c-0.6-1.4-0.9-2.9-0.9-4.5
		c0-3.2,1.1-6,3.4-8.2c2.2-2.2,5-3.3,8.2-3.3c1.1,0,2.1,0.1,3.1,0.3c1,0.2,1.9,0.7,2.8,1.3V90.5z M943.4,50.5c0,3-1.1,5.7-3.2,8
		l0.1-16c1.1,1.1,1.9,2.3,2.4,3.7C943.1,47.6,943.4,49,943.4,50.5z M943.4,80.6c0,3-1.1,5.7-3.2,8v-16c1.1,1.1,1.9,2.3,2.5,3.7
		C943.1,77.7,943.4,79.2,943.4,80.6z"/>
</g>
<g>
	<path class="st0" d="M24.6,201c-4.6,5-10.3,7.8-17.1,8.3v15.9H0v-67.8c0.5,0,0.9,0,1.4,0c0.5,0,0.9,0,1.4,0c0.5,0,0.9,0,1.4,0
		c0.5,0,0.9,0,1.4,0c7.1,0,13.2,2.5,18.3,7.6c5.1,5.1,7.6,11.2,7.6,18.3C31.5,190,29.2,195.9,24.6,201z M19.4,170.9
		c-3.2-3.5-7.1-5.5-11.9-5.9v36.8c4.7-0.5,8.6-2.5,11.8-6c3.2-3.5,4.8-7.7,4.8-12.4C24.1,178.6,22.5,174.4,19.4,170.9z"/>
	<path class="st0" d="M56.8,222.2c-4.3-2-8-4.8-11.2-8.2v11.2h-7.4v-67.8c0.5,0,0.9,0,1.4,0c0.4,0,0.9,0,1.4,0c0.4,0,0.9,0,1.3,0
		c0.5,0,0.9,0,1.4,0c7.1,0,13.3,2.5,18.4,7.6c5.1,5.1,7.6,11.2,7.6,18.3c0,5.9-1.8,11.1-5.4,15.8c-3.6,4.6-8.2,7.7-13.7,9.3
		c2.4,2.9,5.3,5.2,8.8,6.9c3.4,1.7,7.1,2.5,11,2.5v7.5C65.7,225.2,61.1,224.2,56.8,222.2z M57.5,170.9c-3.2-3.5-7.1-5.5-11.9-5.9
		v36.8c4.7-0.5,8.6-2.5,11.8-6c3.2-3.5,4.8-7.7,4.8-12.4C62.3,178.6,60.7,174.4,57.5,170.9z"/>
	<path class="st0" d="M135.3,215.2c-6.6,6.6-14.6,9.9-23.9,9.9c-9.3,0-17.3-3.3-23.9-9.9c-6.6-6.6-9.9-14.6-9.9-24
		c0-9.3,3.3-17.3,9.9-23.9c6.6-6.6,14.6-9.9,23.9-9.9c9.3,0,17.3,3.3,23.9,9.9c6.6,6.6,9.9,14.6,9.9,23.9
		C145.3,200.6,141.9,208.6,135.3,215.2z M130.1,172.6c-5.2-5.2-11.4-7.7-18.7-7.7c-7.3,0-13.5,2.6-18.7,7.7
		c-5.2,5.2-7.8,11.4-7.8,18.6c0,7.3,2.6,13.5,7.8,18.7c5.2,5.2,11.4,7.8,18.7,7.8c7.3,0,13.6-2.6,18.7-7.8
		c5.2-5.2,7.7-11.4,7.7-18.7C137.9,184,135.3,177.8,130.1,172.6z"/>
	<path class="st0" d="M187.6,225.2v-54.6l-14.2,11.2l-14.2-11.2v54.6h-7.4v-69.8l21.6,16.9l21.6-16.9v69.8H187.6z"/>
	<path class="st0" d="M260.4,215.2c-6.6,6.6-14.6,9.9-23.9,9.9c-9.3,0-17.3-3.3-23.9-9.9c-6.6-6.6-9.9-14.6-9.9-24
		c0-9.3,3.3-17.3,9.9-23.9c6.6-6.6,14.6-9.9,23.9-9.9c9.3,0,17.3,3.3,23.9,9.9c6.6,6.6,9.9,14.6,9.9,23.9
		C270.4,200.6,267,208.6,260.4,215.2z M255.2,172.6c-5.2-5.2-11.4-7.7-18.7-7.7c-7.3,0-13.5,2.6-18.7,7.7
		c-5.2,5.2-7.8,11.4-7.8,18.6c0,7.3,2.6,13.5,7.8,18.7c5.2,5.2,11.4,7.8,18.7,7.8c7.3,0,13.6-2.6,18.7-7.8
		c5.2-5.2,7.7-11.4,7.7-18.7C263,184,260.4,177.8,255.2,172.6z"/>
	<path class="st0" d="M291.8,164.9v60.3h-7.4v-60.3h-13.3v-7.5h34v7.5H291.8z"/>
	<path class="st0" d="M312.7,225.2v-67.8h7.4v67.8H312.7z"/>
	<path class="st0" d="M351,225.2v-51.6c-2.2-2.3-4.8-4.2-7.6-5.6c-2.9-1.5-5.9-2.4-9-2.8v60h-7.5v-67.8c0.7,0,1.3,0,1.9,0
		s1.2,0,1.8,0c3.7,0.1,7.2,0.6,10.7,1.8c3.5,1.1,6.7,2.7,9.6,4.8v-6.6h7.4v67.8H351z"/>
	<path class="st0" d="M401.2,225.2c-0.6,0-1.3,0-1.9,0c-9.2-0.2-17-3.6-23.5-10.2c-6.5-6.6-9.8-14.5-9.8-23.8c0-9.1,3.2-17,9.6-23.6
		c6.4-6.6,14.2-10,23.5-10.3v7.5c-7.1,0.2-13.2,2.8-18.2,8c-5,5.1-7.5,11.3-7.5,18.4c0,6.5,2.1,12.2,6.3,17.2c4.2,5,9.5,8,15.9,9
		v-36.7h-10.3v-7.5H403v51.9C402.4,225.2,401.8,225.2,401.2,225.2z"/>
	<path class="st0" d="M463.5,178.2v47h-7.4v-47l-15-20.8h9.1l9.6,13.2l9.6-13.2h9.1L463.5,178.2z"/>
	<path class="st0" d="M533.2,215.2c-6.6,6.6-14.6,9.9-23.9,9.9c-9.3,0-17.3-3.3-23.9-9.9c-6.6-6.6-9.9-14.6-9.9-24
		c0-9.3,3.3-17.3,9.9-23.9c6.6-6.6,14.6-9.9,23.9-9.9c9.3,0,17.3,3.3,23.9,9.9c6.6,6.6,9.9,14.6,9.9,23.9
		C543.1,200.6,539.8,208.6,533.2,215.2z M528,172.6c-5.2-5.2-11.4-7.7-18.7-7.7c-7.3,0-13.5,2.6-18.7,7.7
		c-5.2,5.2-7.8,11.4-7.8,18.6c0,7.3,2.6,13.5,7.8,18.7c5.2,5.2,11.4,7.8,18.7,7.8c7.3,0,13.6-2.6,18.7-7.8
		c5.2-5.2,7.7-11.4,7.7-18.7C535.8,184,533.2,177.8,528,172.6z"/>
	<path class="st0" d="M580.4,220c-3.4,3.5-7.6,5.2-12.4,5.2c-4.8,0-8.9-1.7-12.4-5.2c-3.5-3.4-5.2-7.6-5.2-12.4v-50.2h7.5
		c0,8.3,0,16.7,0,25.1s0,16.8,0,25.2c0,2.8,1,5.1,3,7.1c2,2,4.3,3,7.1,3c2.8,0,5.2-1,7.2-3c2-2,3-4.3,3-7.1v-50.2h7.4
		c0,8.3,0,16.7,0,25.1s0,16.8,0,25.2C585.5,212.4,583.8,216.6,580.4,220z"/>
	<path class="st0" d="M612,222.2c-4.3-2-8-4.8-11.2-8.2v11.2h-7.4v-67.8c0.5,0,0.9,0,1.4,0s0.9,0,1.4,0c0.4,0,0.9,0,1.3,0
		c0.5,0,0.9,0,1.3,0c7.1,0,13.3,2.5,18.4,7.6c5.1,5.1,7.7,11.2,7.7,18.3c0,5.9-1.8,11.1-5.4,15.8c-3.6,4.6-8.2,7.7-13.7,9.3
		c2.4,2.9,5.3,5.2,8.8,6.9s7.1,2.5,11,2.5v7.5C620.9,225.2,616.3,224.2,612,222.2z M612.7,170.9c-3.2-3.5-7.1-5.5-11.9-5.9v36.8
		c4.7-0.5,8.6-2.5,11.8-6c3.2-3.5,4.8-7.7,4.8-12.4C617.5,178.6,615.9,174.4,612.7,170.9z"/>
	<path class="st0" d="M674.5,215.2c-6.6-6.6-9.9-14.6-9.9-24c0-9.3,3.3-17.3,9.9-23.9c6.6-6.6,14.6-9.9,23.9-9.9v7.5
		c-7.3,0-13.5,2.6-18.7,7.7c-5.2,5.2-7.8,11.4-7.8,18.6c0,7.3,2.6,13.5,7.8,18.7c5.2,5.2,11.4,7.8,18.7,7.8v7.5
		C689.1,225.2,681.1,221.9,674.5,215.2z"/>
	<path class="st0" d="M760.2,215.2c-6.6,6.6-14.6,9.9-23.9,9.9c-9.3,0-17.3-3.3-23.9-9.9c-6.6-6.6-9.9-14.6-9.9-24
		c0-9.3,3.3-17.3,9.9-23.9c6.6-6.6,14.6-9.9,23.9-9.9c9.3,0,17.3,3.3,23.9,9.9c6.6,6.6,9.9,14.6,9.9,23.9
		C770.1,200.6,766.8,208.6,760.2,215.2z M755,172.6c-5.2-5.2-11.4-7.7-18.7-7.7c-7.3,0-13.5,2.6-18.7,7.7
		c-5.2,5.2-7.8,11.4-7.8,18.6c0,7.3,2.6,13.5,7.8,18.7c5.2,5.2,11.4,7.8,18.7,7.8c7.3,0,13.6-2.6,18.7-7.8
		c5.2-5.2,7.7-11.4,7.7-18.7C762.7,184,760.2,177.8,755,172.6z"/>
	<path class="st0" d="M800.7,225.2v-51.6c-2.2-2.3-4.8-4.2-7.6-5.6c-2.9-1.5-5.9-2.4-9-2.8v60h-7.5v-67.8c0.7,0,1.3,0,1.9,0
		s1.2,0,1.8,0c3.7,0.1,7.2,0.6,10.7,1.8c3.5,1.1,6.7,2.7,9.6,4.8v-6.6h7.4v67.8H800.7z"/>
	<path class="st0" d="M827.7,180.7v44.5h-7.4v-44.5h-4.8v-7.5h4.8v-15.8h29.6v7.5h-22.2v8.4h23v7.5H827.7z"/>
	<path class="st0" d="M871.5,215.1c-6.6-6.6-9.9-14.6-9.9-23.8c0-1.7,0-3.5,0-5.3s0-3.5,0-5.3h-4.3v-7.5h4.3v-15.8h32.9v7.5h-25.5
		v8.4H895v7.5h-25.9c0,1.7,0,3.5,0,5.3s0,3.5,0,5.3c0,7.2,2.5,13.4,7.6,18.5c5,5.2,11.2,7.8,18.4,7.9v7.6
		C885.9,225.1,878.1,221.7,871.5,215.1z"/>
	<path class="st0" d="M921.7,222.2c-4.3-2-8-4.8-11.2-8.2v11.2h-7.4v-67.8c0.5,0,0.9,0,1.4,0s0.9,0,1.4,0c0.4,0,0.9,0,1.3,0
		c0.5,0,0.9,0,1.3,0c7.1,0,13.3,2.5,18.4,7.6c5.1,5.1,7.7,11.2,7.7,18.3c0,5.9-1.8,11.1-5.4,15.8c-3.6,4.6-8.2,7.7-13.7,9.3
		c2.4,2.9,5.3,5.2,8.8,6.9s7.1,2.5,11,2.5v7.5C930.6,225.2,926,224.2,921.7,222.2z M922.4,170.9c-3.2-3.5-7.1-5.5-11.9-5.9v36.8
		c4.7-0.5,8.6-2.5,11.8-6c3.2-3.5,4.8-7.7,4.8-12.4C927.2,178.6,925.6,174.4,922.4,170.9z"/>
	<path class="st0" d="M956.5,215.1c-6.6-6.6-9.9-14.6-9.9-23.8c0-1.7,0-3.5,0-5.3s0-3.5,0-5.3h-4.3v-7.5h4.3v-15.8h32.9v7.5h-25.5
		v8.4H980v7.5h-25.9c0,1.7,0,3.5,0,5.3s0,3.5,0,5.3c0,7.2,2.5,13.4,7.6,18.5s11.2,7.8,18.5,7.9v7.6
		C970.9,225.1,963,221.7,956.5,215.1z"/>
	<path class="st0" d="M1011.5,225.2v-51.6c-2.2-2.3-4.8-4.2-7.6-5.6c-2.9-1.5-5.9-2.4-9-2.8v60h-7.5v-67.8c0.7,0,1.3,0,1.9,0
		s1.2,0,1.8,0c3.7,0.1,7.2,0.6,10.7,1.8c3.5,1.1,6.7,2.7,9.6,4.8v-6.6h7.4v67.8H1011.5z"/>
	<path class="st0" d="M1036.2,215.2c-6.6-6.6-9.9-14.6-9.9-24c0-9.3,3.3-17.3,9.9-23.9c6.6-6.6,14.6-9.9,23.9-9.9v7.5
		c-7.3,0-13.5,2.6-18.7,7.7c-5.2,5.2-7.8,11.4-7.8,18.6c0,7.3,2.6,13.5,7.8,18.7c5.2,5.2,11.4,7.8,18.7,7.8v7.5
		C1050.8,225.2,1042.8,221.9,1036.2,215.2z"/>
	<path class="st0" d="M1079.4,215.1c-6.6-6.6-9.9-14.6-9.9-23.8c0-1.7,0-3.5,0-5.3s0-3.5,0-5.3h-4.3v-7.5h4.3v-15.8h32.9v7.5H1077
		v8.4h25.9v7.5H1077c0,1.7,0,3.5,0,5.3s0,3.5,0,5.3c0,7.2,2.5,13.4,7.6,18.5s11.2,7.8,18.5,7.9v7.6
		C1093.8,225.1,1086,221.7,1079.4,215.1z"/>
</g>
</svg>
