<!-- Generator: Adobe Illustrator 19.2.1, SVG Export Plug-In  -->
<svg version="1.1"
	 xmlns="http://www.w3.org/2000/svg" xmlns:xlink="http://www.w3.org/1999/xlink" xmlns:a="http://ns.adobe.com/AdobeSVGViewerExtensions/3.0/"
	 x="0px" y="0px" width="902px" height="87px" viewBox="0 0 902 87" style="enable-background:new 0 0 902 87;"
	 xml:space="preserve">
<defs>
</defs>
<g>
	<path d="M110.9,66.9c-3.9,4-8.6,6-14.2,6.1c-0.2,0-0.4,0-0.5,0c-0.2,0-0.4,0-0.5,0c-0.2,0-0.4,0-0.6,0s-0.4,0-0.5,0V32.3
		c0.2,0,0.4,0,0.5,0s0.4,0,0.6,0c0.2,0,0.4,0,0.5,0c0.2,0,0.4,0,0.5,0c5.5,0.1,10.3,2.1,14.2,6.1c3.9,4,5.9,8.7,5.9,14.2
		C116.8,58.2,114.8,62.9,110.9,66.9z M108.5,42.3c-2.5-3-5.7-4.8-9.6-5.4v31.4c3.9-0.6,7-2.4,9.6-5.4c2.5-3,3.8-6.4,3.8-10.3
		C112.3,48.8,111,45.3,108.5,42.3z"/>
	<path d="M120.6,73V32.3h4.4V73H120.6z"/>
	<path d="M145.6,73h-4.2l-12.9-40.7h4.7l10.3,33l10.3-33h4.7L145.6,73z"/>
	<path d="M169.1,66.9c-3.9-4-5.9-8.7-5.9-14.3c0-1,0-2.1,0-3.2c0-1.1,0-2.1,0-3.2h-2.6v-4.5h2.6v-9.5H183v4.5h-15.3v5h15.6v4.5
		h-15.6c0,1,0,2.1,0,3.2c0,1.1,0,2.1,0,3.2c0,4.3,1.5,8,4.5,11.1c3,3.1,6.7,4.7,11.1,4.8V73C177.8,72.9,173.1,70.9,169.1,66.9z"/>
	<path d="M199.2,71.2c-2.6-1.2-4.8-2.9-6.7-4.9V73h-4.4V32.3c0.3,0,0.6,0,0.8,0c0.3,0,0.5,0,0.8,0c0.3,0,0.5,0,0.8,0
		c0.3,0,0.6,0,0.8,0c4.3,0,8,1.5,11,4.6c3.1,3,4.6,6.7,4.6,11c0,3.5-1.1,6.7-3.2,9.4c-2.2,2.8-4.9,4.6-8.2,5.6
		c1.4,1.8,3.2,3.1,5.3,4.1c2.1,1,4.3,1.5,6.6,1.5V73C204.6,73,201.8,72.4,199.2,71.2z M199.7,40.4c-1.9-2.1-4.3-3.3-7.1-3.6v22.1
		c2.8-0.3,5.2-1.5,7.1-3.6c1.9-2.1,2.9-4.6,2.9-7.5C202.5,45,201.6,42.5,199.7,40.4z"/>
	<path d="M223.4,69.1c-2.5,2.6-5.6,3.8-9.1,3.8v-4.5c2.3,0,4.3-0.8,6-2.5c1.7-1.7,2.5-3.7,2.5-6c0-0.2,0-0.4,0-0.5
		c0-0.2,0-0.3-0.1-0.5c-0.1-0.9-0.3-1.8-0.7-2.7c-0.4-0.9-0.9-1.6-1.6-2.2c-0.9-0.8-1.9-1.7-2.9-2.5c-1-0.8-1.9-1.7-2.9-2.5
		c-1-0.9-1.8-2-2.3-3.2c-0.5-1.2-0.8-2.5-0.8-3.9c0-2.7,1-5,2.9-6.9c1.9-1.9,4.2-2.9,6.9-2.9v4.5c-1.5,0-2.7,0.5-3.8,1.5
		c-1,1-1.6,2.3-1.6,3.8c0,0.1,0,0.2,0,0.3s0,0.2,0.1,0.3c0,0.6,0.2,1.1,0.4,1.7c0.2,0.5,0.5,1,1,1.4c1,0.8,1.9,1.7,2.9,2.5
		c1,0.8,1.9,1.7,2.9,2.5c1.3,1.1,2.2,2.5,2.8,4c0.6,1.6,1,3.2,1.1,4.8c0,0.1,0,0.1,0,0.2c0,0.1,0,0.1,0,0.2
		C227.2,63.5,226,66.6,223.4,69.1z"/>
	<path d="M231.5,73V32.3h4.4V73H231.5z"/>
	<path d="M247.9,46.3V73h-4.4V46.3h-2.9v-4.5h2.9v-9.5h17.8v4.5h-13.3v5h13.8v4.5H247.9z"/>
	<path d="M278.1,44.8V73h-4.4V44.8l-9-12.5h5.5l5.8,7.9l5.8-7.9h5.5L278.1,44.8z"/>
	<path d="M322.7,44.8V73h-4.4V44.8l-9-12.5h5.5l5.8,7.9l5.8-7.9h5.5L322.7,44.8z"/>
	<path d="M364.5,67c-4,4-8.8,6-14.3,6s-10.4-2-14.3-6c-4-4-6-8.8-6-14.4c0-5.6,2-10.4,6-14.3c4-4,8.8-6,14.3-6s10.4,2,14.3,6
		c4,4,6,8.8,6,14.3C370.5,58.2,368.5,63,364.5,67z M361.4,41.4c-3.1-3.1-6.8-4.6-11.2-4.6c-4.4,0-8.1,1.5-11.2,4.6
		c-3.1,3.1-4.7,6.8-4.7,11.2c0,4.4,1.6,8.1,4.7,11.2c3.1,3.1,6.8,4.7,11.2,4.7c4.4,0,8.1-1.6,11.2-4.7c3.1-3.1,4.6-6.8,4.6-11.2
		C366.1,48.3,364.5,44.5,361.4,41.4z"/>
	<path d="M392.8,69.9c-2.1,2.1-4.5,3.1-7.5,3.1c-2.9,0-5.4-1-7.4-3.1c-2.1-2.1-3.1-4.5-3.1-7.4V32.3h4.5c0,5,0,10,0,15
		s0,10.1,0,15.1c0,1.7,0.6,3.1,1.8,4.3c1.2,1.2,2.6,1.8,4.3,1.8c1.7,0,3.1-0.6,4.3-1.8c1.2-1.2,1.8-2.6,1.8-4.3V32.3h4.4
		c0,5,0,10,0,15s0,10.1,0,15.1C395.9,65.3,394.9,67.8,392.8,69.9z"/>
	<path d="M411.8,71.2c-2.6-1.2-4.8-2.9-6.7-4.9V73h-4.4V32.3c0.3,0,0.6,0,0.8,0c0.3,0,0.5,0,0.8,0c0.3,0,0.5,0,0.8,0
		c0.3,0,0.6,0,0.8,0c4.3,0,8,1.5,11,4.6c3.1,3,4.6,6.7,4.6,11c0,3.5-1.1,6.7-3.2,9.4c-2.2,2.8-4.9,4.6-8.2,5.6
		c1.4,1.8,3.2,3.1,5.3,4.1c2.1,1,4.3,1.5,6.6,1.5V73C417.1,73,414.4,72.4,411.8,71.2z M412.2,40.4c-1.9-2.1-4.3-3.3-7.1-3.6v22.1
		c2.8-0.3,5.2-1.5,7.1-3.6c1.9-2.1,2.9-4.6,2.9-7.5C415.1,45,414.1,42.5,412.2,40.4z"/>
	<path d="M454.9,69.1c-2.5,2.6-5.6,3.8-9.1,3.8v-4.5c2.3,0,4.3-0.8,6-2.5c1.7-1.7,2.5-3.7,2.5-6c0-0.2,0-0.4,0-0.5
		c0-0.2,0-0.3-0.1-0.5c-0.1-0.9-0.3-1.8-0.7-2.7c-0.4-0.9-0.9-1.6-1.6-2.2c-0.9-0.8-1.9-1.7-2.9-2.5c-1-0.8-1.9-1.7-2.9-2.5
		c-1-0.9-1.8-2-2.3-3.2c-0.5-1.2-0.8-2.5-0.8-3.9c0-2.7,1-5,2.9-6.9c1.9-1.9,4.2-2.9,6.9-2.9v4.5c-1.5,0-2.7,0.5-3.8,1.5
		c-1,1-1.6,2.3-1.6,3.8c0,0.1,0,0.2,0,0.3s0,0.2,0.1,0.3c0,0.6,0.2,1.1,0.4,1.7s0.5,1,1,1.4c1,0.8,1.9,1.7,2.9,2.5
		c1,0.8,1.9,1.7,2.9,2.5c1.3,1.1,2.2,2.5,2.8,4s1,3.2,1.1,4.8c0,0.1,0,0.1,0,0.2c0,0.1,0,0.1,0,0.2
		C458.7,63.5,457.4,66.6,454.9,69.1z"/>
	<path d="M497.7,67c-4,4-8.8,6-14.3,6c-5.6,0-10.4-2-14.3-6c-4-4-6-8.8-6-14.4c0-5.6,2-10.4,6-14.3c4-4,8.8-6,14.3-6
		c5.6,0,10.4,2,14.3,6c4,4,6,8.8,6,14.3C503.6,58.2,501.7,63,497.7,67z M494.6,41.4c-3.1-3.1-6.8-4.6-11.2-4.6
		c-4.4,0-8.1,1.5-11.2,4.6c-3.1,3.1-4.7,6.8-4.7,11.2c0,4.4,1.6,8.1,4.7,11.2c3.1,3.1,6.8,4.7,11.2,4.7c4.4,0,8.1-1.6,11.2-4.7
		c3.1-3.1,4.6-6.8,4.6-11.2C499.2,48.3,497.7,44.5,494.6,41.4z"/>
	<path d="M514,67c-4-4-6-8.8-6-14.4c0-5.6,2-10.4,6-14.3c4-4,8.8-6,14.3-6v4.5c-4.4,0-8.1,1.5-11.2,4.6c-3.1,3.1-4.7,6.8-4.7,11.2
		c0,4.4,1.6,8.1,4.7,11.2c3.1,3.1,6.8,4.7,11.2,4.7V73C522.7,73,518,71,514,67z"/>
	<path d="M533.4,73V32.3h4.4V73H533.4z"/>
	<path d="M567.8,73l-3.1-9.9h-14l-3.1,9.9h-4.7l3.1-9.9h-2.4v-4.6h3.8l8.2-26h4.2L572.4,73H567.8z M557.7,40.6l-5.6,17.8h11.1
		L557.7,40.6z"/>
	<path d="M577.5,73V32.3h4.5v36.2h13.1V73H577.5z"/>
	<path d="M639.6,73V40.2l-8.5,6.7l-8.5-6.7V73h-4.4V31.1l13,10.2l13-10.2V73H639.6z"/>
	<path d="M657.4,66.9c-3.9-4-5.9-8.7-5.9-14.3c0-1,0-2.1,0-3.2c0-1.1,0-2.1,0-3.2h-2.6v-4.5h2.6v-9.5h19.8v4.5H656v5h15.6v4.5H656
		c0,1,0,2.1,0,3.2c0,1.1,0,2.1,0,3.2c0,4.3,1.5,8,4.5,11.1c3,3.1,6.7,4.7,11.1,4.8V73C666.1,72.9,661.3,70.9,657.4,66.9z"/>
	<path d="M692.9,66.9c-3.9,4-8.6,6-14.2,6.1c-0.2,0-0.4,0-0.5,0c-0.2,0-0.4,0-0.5,0c-0.2,0-0.4,0-0.6,0c-0.2,0-0.4,0-0.5,0V32.3
		c0.2,0,0.4,0,0.5,0c0.2,0,0.4,0,0.6,0c0.2,0,0.4,0,0.5,0c0.2,0,0.4,0,0.5,0c5.5,0.1,10.3,2.1,14.2,6.1c3.9,4,5.9,8.7,5.9,14.2
		C698.8,58.2,696.8,62.9,692.9,66.9z M690.5,42.3c-2.5-3-5.7-4.8-9.6-5.4v31.4c3.9-0.6,7-2.4,9.6-5.4c2.5-3,3.8-6.4,3.8-10.3
		C694.3,48.8,693,45.3,690.5,42.3z"/>
	<path d="M702.6,73V32.3h4.4V73H702.6z"/>
	<path d="M737,73l-3.1-9.9h-14l-3.1,9.9h-4.7l3.1-9.9h-2.4v-4.6h3.8l8.2-26h4.2L741.6,73H737z M726.9,40.6l-5.6,17.8h11.1
		L726.9,40.6z"/>
	<path d="M773.1,46.3V73h-4.4V46.3h-2.9v-4.5h2.9v-9.5h17.8v4.5h-13.3v5h13.8v4.5H773.1z"/>
	<path d="M825.4,67c-4,4-8.8,6-14.3,6s-10.4-2-14.3-6c-4-4-6-8.8-6-14.4c0-5.6,2-10.4,6-14.3c4-4,8.8-6,14.3-6s10.4,2,14.3,6
		c4,4,6,8.8,6,14.3C831.4,58.2,829.4,63,825.4,67z M822.3,41.4c-3.1-3.1-6.8-4.6-11.2-4.6c-4.4,0-8.1,1.5-11.2,4.6
		c-3.1,3.1-4.7,6.8-4.7,11.2c0,4.4,1.6,8.1,4.7,11.2c3.1,3.1,6.8,4.7,11.2,4.7c4.4,0,8.1-1.6,11.2-4.7c3.1-3.1,4.6-6.8,4.6-11.2
		C827,48.3,825.4,44.5,822.3,41.4z"/>
	<path d="M841.8,67c-4-4-6-8.8-6-14.4c0-5.6,2-10.4,6-14.3c4-4,8.8-6,14.3-6v4.5c-4.4,0-8.1,1.5-11.2,4.6c-3.1,3.1-4.7,6.8-4.7,11.2
		c0,4.4,1.6,8.1,4.7,11.2c3.1,3.1,6.8,4.7,11.2,4.7V73C850.5,73,845.7,71,841.8,67z"/>
	<path d="M878.8,69.9c-2.1,2.1-4.5,3.1-7.5,3.1c-2.9,0-5.4-1-7.4-3.1c-2.1-2.1-3.1-4.5-3.1-7.4V32.3h4.5c0,5,0,10,0,15
		s0,10.1,0,15.1c0,1.7,0.6,3.1,1.8,4.3c1.2,1.2,2.6,1.8,4.3,1.8c1.7,0,3.1-0.6,4.3-1.8c1.2-1.2,1.8-2.6,1.8-4.3V32.3h4.4
		c0,5,0,10,0,15s0,10.1,0,15.1C881.9,65.3,880.9,67.8,878.8,69.9z"/>
	<path d="M898.3,69.1c-2.5,2.6-5.6,3.8-9.1,3.8v-4.5c2.3,0,4.3-0.8,6-2.5c1.7-1.7,2.5-3.7,2.5-6c0-0.2,0-0.4,0-0.5
		c0-0.2,0-0.3-0.1-0.5c-0.1-0.9-0.3-1.8-0.7-2.7c-0.4-0.9-0.9-1.6-1.6-2.2c-0.9-0.8-1.9-1.7-2.9-2.5c-1-0.8-1.9-1.7-2.9-2.5
		c-1-0.9-1.8-2-2.3-3.2c-0.5-1.2-0.8-2.5-0.8-3.9c0-2.7,1-5,2.9-6.9c1.9-1.9,4.2-2.9,6.9-2.9v4.5c-1.5,0-2.7,0.5-3.8,1.5
		c-1,1-1.6,2.3-1.6,3.8c0,0.1,0,0.2,0,0.3s0,0.2,0.1,0.3c0,0.6,0.2,1.1,0.4,1.7s0.5,1,1,1.4c1,0.8,1.9,1.7,2.9,2.5
		c1,0.8,1.9,1.7,2.9,2.5c1.3,1.1,2.2,2.5,2.8,4s1,3.2,1.1,4.8c0,0.1,0,0.1,0,0.2c0,0.1,0,0.1,0,0.2C902,63.5,900.8,66.6,898.3,69.1z
		"/>
</g>
<g>
	<path d="M8,84.5V17l-6.2,4.3L0,18.8L20.6,4.2v80.2H8z M23.8,84.5V2.1l3-2.1v84.5H23.8z"/>
	<path d="M51,85.6c-0.9,0.4-1.7,0.7-2.6,1c-0.9,0.3-1.9,0.4-2.9,0.4c-1.5,0-2.9-0.3-4.2-0.8C40,85.7,38.8,85,37.9,84
		c-1-0.9-1.7-2.1-2.3-3.3c-0.6-1.3-0.9-2.7-0.9-4.2c0-3,1-5.6,3.1-7.6c2.1-2.1,4.6-3.1,7.7-3.1c1,0,2,0.1,2.9,0.3
		c0.9,0.2,1.8,0.6,2.6,1.2V85.6z M56.2,76.5c0,2.8-1,5.3-3,7.5V69c1,1,1.8,2.2,2.3,3.5C55.9,73.8,56.2,75.1,56.2,76.5z"/>
</g>
</svg>
